<svg width="32" height="35" viewBox="0 0 32 35" fill="none" xmlns="http://www.w3.org/2000/svg">
<path d="M16.3036 33.0357C16.3036 33.2065 16.1708 33.3393 16 33.3393C14.1596 33.3393 12.6607 31.8404 12.6607 30C12.6607 29.8292 12.7935 29.6964 12.9643 29.6964C13.135 29.6964 13.2679 29.8292 13.2679 30C13.2679 31.4989 14.5011 32.7321 16 32.7321C16.1708 32.7321 16.3036 32.865 16.3036 33.0357ZM3.66741 27.5714C7.06362 23.7388 8.71429 18.5402 8.71429 11.7857C8.71429 9.33817 11.029 5.71429 16 5.71429C20.971 5.71429 23.2857 9.33817 23.2857 11.7857C23.2857 18.5402 24.9364 23.7388 28.3326 27.5714H3.66741ZM31.7857 27.5714C28.9777 25.1998 25.7143 20.9498 25.7143 11.7857C25.7143 8.14286 22.6975 4.15848 17.6696 3.41853C17.7645 3.19085 17.8214 2.9442 17.8214 2.67857C17.8214 1.67299 17.0056 0.857141 16 0.857141C14.9944 0.857141 14.1786 1.67299 14.1786 2.67857C14.1786 2.9442 14.2355 3.19085 14.3304 3.41853C9.30246 4.15848 6.28571 8.14286 6.28571 11.7857C6.28571 20.9498 3.02232 25.1998 0.214286 27.5714C0.214286 28.8996 1.31473 30 2.64286 30H11.1429C11.1429 32.6752 13.3248 34.8571 16 34.8571C18.6752 34.8571 20.8571 32.6752 20.8571 30H29.3571C30.6853 30 31.7857 28.8996 31.7857 27.5714Z" fill="#5C6468"/>
</svg>
