<svg width="781" height="284" viewBox="0 0 781 284" fill="none" xmlns="http://www.w3.org/2000/svg">
<circle cx="313.214" cy="159.67" r="5.25363" fill="white"/>
<path opacity="0.08" d="M381.343 1.57422V155.256" stroke="#446285" stroke-width="1.47" stroke-linecap="square" stroke-dasharray="6.01"/>
<path d="M510.193 1.57422V155.256" stroke="white" stroke-opacity="0.130791" stroke-width="1.47" stroke-linecap="square" stroke-dasharray="6.01"/>
<path d="M592.751 1.57422V155.256" stroke="white" stroke-opacity="0.130791" stroke-width="1.47" stroke-linecap="square" stroke-dasharray="6.01"/>
<path d="M694.342 268.242L691.514 278H690.086L687.818 270.146L685.466 278L684.052 278.014L681.322 268.242H682.68L684.808 276.516L687.16 268.242H688.588L690.828 276.488L692.97 268.242H694.342ZM702.736 273.87C702.736 274.113 702.722 274.369 702.694 274.64H696.562C696.609 275.396 696.866 275.989 697.332 276.418C697.808 276.838 698.382 277.048 699.054 277.048C699.605 277.048 700.062 276.922 700.426 276.67C700.8 276.409 701.061 276.063 701.21 275.634H702.582C702.377 276.371 701.966 276.973 701.35 277.44C700.734 277.897 699.969 278.126 699.054 278.126C698.326 278.126 697.673 277.963 697.094 277.636C696.525 277.309 696.077 276.847 695.75 276.25C695.424 275.643 695.26 274.943 695.26 274.15C695.26 273.357 695.419 272.661 695.736 272.064C696.054 271.467 696.497 271.009 697.066 270.692C697.645 270.365 698.308 270.202 699.054 270.202C699.782 270.202 700.426 270.361 700.986 270.678C701.546 270.995 701.976 271.434 702.274 271.994C702.582 272.545 702.736 273.17 702.736 273.87ZM701.42 273.604C701.42 273.119 701.313 272.703 701.098 272.358C700.884 272.003 700.59 271.737 700.216 271.56C699.852 271.373 699.446 271.28 698.998 271.28C698.354 271.28 697.804 271.485 697.346 271.896C696.898 272.307 696.642 272.876 696.576 273.604H701.42ZM703.942 274.136C703.942 273.352 704.101 272.666 704.418 272.078C704.735 271.481 705.169 271.019 705.72 270.692C706.28 270.365 706.905 270.202 707.596 270.202C708.193 270.202 708.749 270.342 709.262 270.622C709.775 270.893 710.167 271.252 710.438 271.7V267.64H711.726V278H710.438V276.558C710.186 277.015 709.813 277.393 709.318 277.692C708.823 277.981 708.245 278.126 707.582 278.126C706.901 278.126 706.28 277.958 705.72 277.622C705.169 277.286 704.735 276.815 704.418 276.208C704.101 275.601 703.942 274.911 703.942 274.136ZM710.438 274.15C710.438 273.571 710.321 273.067 710.088 272.638C709.855 272.209 709.537 271.882 709.136 271.658C708.744 271.425 708.31 271.308 707.834 271.308C707.358 271.308 706.924 271.42 706.532 271.644C706.14 271.868 705.827 272.195 705.594 272.624C705.361 273.053 705.244 273.557 705.244 274.136C705.244 274.724 705.361 275.237 705.594 275.676C705.827 276.105 706.14 276.437 706.532 276.67C706.924 276.894 707.358 277.006 707.834 277.006C708.31 277.006 708.744 276.894 709.136 276.67C709.537 276.437 709.855 276.105 710.088 275.676C710.321 275.237 710.438 274.729 710.438 274.15Z" fill="#99A4BB"/>
<path d="M762.084 268.242V269.278H759.424V278H758.15V269.278H755.476V268.242H762.084ZM767.46 270.188C768.039 270.188 768.562 270.314 769.028 270.566C769.495 270.809 769.859 271.177 770.12 271.672C770.391 272.167 770.526 272.769 770.526 273.478V278H769.266V273.66C769.266 272.895 769.075 272.311 768.692 271.91C768.31 271.499 767.787 271.294 767.124 271.294C766.452 271.294 765.916 271.504 765.514 271.924C765.122 272.344 764.926 272.955 764.926 273.758V278H763.652V267.64H764.926V271.42C765.178 271.028 765.524 270.725 765.962 270.51C766.41 270.295 766.91 270.188 767.46 270.188ZM779.411 270.328V278H778.137V276.866C777.895 277.258 777.554 277.566 777.115 277.79C776.686 278.005 776.21 278.112 775.687 278.112C775.09 278.112 774.553 277.991 774.077 277.748C773.601 277.496 773.223 277.123 772.943 276.628C772.673 276.133 772.537 275.531 772.537 274.822V270.328H773.797V274.654C773.797 275.41 773.989 275.993 774.371 276.404C774.754 276.805 775.277 277.006 775.939 277.006C776.621 277.006 777.157 276.796 777.549 276.376C777.941 275.956 778.137 275.345 778.137 274.542V270.328H779.411Z" fill="#99A4BB"/>
<path d="M620.084 268.242V269.278H617.424V278H616.15V269.278H613.476V268.242H620.084ZM628.456 270.328V278H627.182V276.866C626.94 277.258 626.599 277.566 626.16 277.79C625.731 278.005 625.255 278.112 624.732 278.112C624.135 278.112 623.598 277.991 623.122 277.748C622.646 277.496 622.268 277.123 621.988 276.628C621.718 276.133 621.582 275.531 621.582 274.822V270.328H622.842V274.654C622.842 275.41 623.034 275.993 623.416 276.404C623.799 276.805 624.322 277.006 624.984 277.006C625.666 277.006 626.202 276.796 626.594 276.376C626.986 275.956 627.182 275.345 627.182 274.542V270.328H628.456ZM637.607 273.87C637.607 274.113 637.593 274.369 637.565 274.64H631.433C631.48 275.396 631.737 275.989 632.203 276.418C632.679 276.838 633.253 277.048 633.925 277.048C634.476 277.048 634.933 276.922 635.297 276.67C635.671 276.409 635.932 276.063 636.081 275.634H637.453C637.248 276.371 636.837 276.973 636.221 277.44C635.605 277.897 634.84 278.126 633.925 278.126C633.197 278.126 632.544 277.963 631.965 277.636C631.396 277.309 630.948 276.847 630.621 276.25C630.295 275.643 630.131 274.943 630.131 274.15C630.131 273.357 630.29 272.661 630.607 272.064C630.925 271.467 631.368 271.009 631.937 270.692C632.516 270.365 633.179 270.202 633.925 270.202C634.653 270.202 635.297 270.361 635.857 270.678C636.417 270.995 636.847 271.434 637.145 271.994C637.453 272.545 637.607 273.17 637.607 273.87ZM636.291 273.604C636.291 273.119 636.184 272.703 635.969 272.358C635.755 272.003 635.461 271.737 635.087 271.56C634.723 271.373 634.317 271.28 633.869 271.28C633.225 271.28 632.675 271.485 632.217 271.896C631.769 272.307 631.513 272.876 631.447 273.604H636.291Z" fill="#99A4BB"/>
<path d="M551.976 268.312V278H550.702V270.776L547.482 278H546.586L543.352 270.762V278H542.078V268.312H543.45L547.034 276.32L550.618 268.312H551.976ZM557.483 278.126C556.764 278.126 556.111 277.963 555.523 277.636C554.944 277.309 554.487 276.847 554.151 276.25C553.824 275.643 553.661 274.943 553.661 274.15C553.661 273.366 553.829 272.675 554.165 272.078C554.51 271.471 554.977 271.009 555.565 270.692C556.153 270.365 556.811 270.202 557.539 270.202C558.267 270.202 558.925 270.365 559.513 270.692C560.101 271.009 560.563 271.467 560.899 272.064C561.244 272.661 561.417 273.357 561.417 274.15C561.417 274.943 561.239 275.643 560.885 276.25C560.539 276.847 560.068 277.309 559.471 277.636C558.873 277.963 558.211 278.126 557.483 278.126ZM557.483 277.006C557.94 277.006 558.369 276.899 558.771 276.684C559.172 276.469 559.494 276.147 559.737 275.718C559.989 275.289 560.115 274.766 560.115 274.15C560.115 273.534 559.993 273.011 559.751 272.582C559.508 272.153 559.191 271.835 558.799 271.63C558.407 271.415 557.982 271.308 557.525 271.308C557.058 271.308 556.629 271.415 556.237 271.63C555.854 271.835 555.546 272.153 555.313 272.582C555.079 273.011 554.963 273.534 554.963 274.15C554.963 274.775 555.075 275.303 555.299 275.732C555.532 276.161 555.84 276.483 556.223 276.698C556.605 276.903 557.025 277.006 557.483 277.006ZM566.83 270.188C567.763 270.188 568.519 270.473 569.098 271.042C569.676 271.602 569.966 272.414 569.966 273.478V278H568.706V273.66C568.706 272.895 568.514 272.311 568.132 271.91C567.749 271.499 567.226 271.294 566.564 271.294C565.892 271.294 565.355 271.504 564.954 271.924C564.562 272.344 564.366 272.955 564.366 273.758V278H563.092V270.328H564.366V271.42C564.618 271.028 564.958 270.725 565.388 270.51C565.826 270.295 566.307 270.188 566.83 270.188Z" fill="#99A4BB"/>
<path d="M476.172 278.098C475.528 278.098 474.949 277.986 474.436 277.762C473.932 277.529 473.535 277.211 473.246 276.81C472.957 276.399 472.807 275.928 472.798 275.396H474.156C474.203 275.853 474.389 276.241 474.716 276.558C475.052 276.866 475.537 277.02 476.172 277.02C476.779 277.02 477.255 276.871 477.6 276.572C477.955 276.264 478.132 275.872 478.132 275.396C478.132 275.023 478.029 274.719 477.824 274.486C477.619 274.253 477.362 274.075 477.054 273.954C476.746 273.833 476.331 273.702 475.808 273.562C475.164 273.394 474.646 273.226 474.254 273.058C473.871 272.89 473.54 272.629 473.26 272.274C472.989 271.91 472.854 271.425 472.854 270.818C472.854 270.286 472.989 269.815 473.26 269.404C473.531 268.993 473.909 268.676 474.394 268.452C474.889 268.228 475.453 268.116 476.088 268.116C477.003 268.116 477.749 268.345 478.328 268.802C478.916 269.259 479.247 269.866 479.322 270.622H477.922C477.875 270.249 477.679 269.922 477.334 269.642C476.989 269.353 476.531 269.208 475.962 269.208C475.43 269.208 474.996 269.348 474.66 269.628C474.324 269.899 474.156 270.281 474.156 270.776C474.156 271.131 474.254 271.42 474.45 271.644C474.655 271.868 474.903 272.041 475.192 272.162C475.491 272.274 475.906 272.405 476.438 272.554C477.082 272.731 477.6 272.909 477.992 273.086C478.384 273.254 478.72 273.52 479 273.884C479.28 274.239 479.42 274.724 479.42 275.34C479.42 275.816 479.294 276.264 479.042 276.684C478.79 277.104 478.417 277.445 477.922 277.706C477.427 277.967 476.844 278.098 476.172 278.098ZM488.099 270.328V278H486.825V276.866C486.582 277.258 486.241 277.566 485.803 277.79C485.373 278.005 484.897 278.112 484.375 278.112C483.777 278.112 483.241 277.991 482.765 277.748C482.289 277.496 481.911 277.123 481.631 276.628C481.36 276.133 481.225 275.531 481.225 274.822V270.328H482.485V274.654C482.485 275.41 482.676 275.993 483.059 276.404C483.441 276.805 483.964 277.006 484.627 277.006C485.308 277.006 485.845 276.796 486.237 276.376C486.629 275.956 486.825 275.345 486.825 274.542V270.328H488.099ZM493.988 270.188C494.921 270.188 495.677 270.473 496.256 271.042C496.835 271.602 497.124 272.414 497.124 273.478V278H495.864V273.66C495.864 272.895 495.673 272.311 495.29 271.91C494.907 271.499 494.385 271.294 493.722 271.294C493.05 271.294 492.513 271.504 492.112 271.924C491.72 272.344 491.524 272.955 491.524 273.758V278H490.25V270.328H491.524V271.42C491.776 271.028 492.117 270.725 492.546 270.51C492.985 270.295 493.465 270.188 493.988 270.188Z" fill="#99A4BB"/>
<path d="M411.172 278.098C410.528 278.098 409.949 277.986 409.436 277.762C408.932 277.529 408.535 277.211 408.246 276.81C407.957 276.399 407.807 275.928 407.798 275.396H409.156C409.203 275.853 409.389 276.241 409.716 276.558C410.052 276.866 410.537 277.02 411.172 277.02C411.779 277.02 412.255 276.871 412.6 276.572C412.955 276.264 413.132 275.872 413.132 275.396C413.132 275.023 413.029 274.719 412.824 274.486C412.619 274.253 412.362 274.075 412.054 273.954C411.746 273.833 411.331 273.702 410.808 273.562C410.164 273.394 409.646 273.226 409.254 273.058C408.871 272.89 408.54 272.629 408.26 272.274C407.989 271.91 407.854 271.425 407.854 270.818C407.854 270.286 407.989 269.815 408.26 269.404C408.531 268.993 408.909 268.676 409.394 268.452C409.889 268.228 410.453 268.116 411.088 268.116C412.003 268.116 412.749 268.345 413.328 268.802C413.916 269.259 414.247 269.866 414.322 270.622H412.922C412.875 270.249 412.679 269.922 412.334 269.642C411.989 269.353 411.531 269.208 410.962 269.208C410.43 269.208 409.996 269.348 409.66 269.628C409.324 269.899 409.156 270.281 409.156 270.776C409.156 271.131 409.254 271.42 409.45 271.644C409.655 271.868 409.903 272.041 410.192 272.162C410.491 272.274 410.906 272.405 411.438 272.554C412.082 272.731 412.6 272.909 412.992 273.086C413.384 273.254 413.72 273.52 414 273.884C414.28 274.239 414.42 274.724 414.42 275.34C414.42 275.816 414.294 276.264 414.042 276.684C413.79 277.104 413.417 277.445 412.922 277.706C412.427 277.967 411.844 278.098 411.172 278.098ZM415.819 274.136C415.819 273.352 415.977 272.666 416.295 272.078C416.612 271.481 417.046 271.019 417.597 270.692C418.157 270.365 418.777 270.202 419.459 270.202C420.131 270.202 420.714 270.347 421.209 270.636C421.703 270.925 422.072 271.289 422.315 271.728V270.328H423.603V278H422.315V276.572C422.063 277.02 421.685 277.393 421.181 277.692C420.686 277.981 420.107 278.126 419.445 278.126C418.763 278.126 418.147 277.958 417.597 277.622C417.046 277.286 416.612 276.815 416.295 276.208C415.977 275.601 415.819 274.911 415.819 274.136ZM422.315 274.15C422.315 273.571 422.198 273.067 421.965 272.638C421.731 272.209 421.414 271.882 421.013 271.658C420.621 271.425 420.187 271.308 419.711 271.308C419.235 271.308 418.801 271.42 418.409 271.644C418.017 271.868 417.704 272.195 417.471 272.624C417.237 273.053 417.121 273.557 417.121 274.136C417.121 274.724 417.237 275.237 417.471 275.676C417.704 276.105 418.017 276.437 418.409 276.67C418.801 276.894 419.235 277.006 419.711 277.006C420.187 277.006 420.621 276.894 421.013 276.67C421.414 276.437 421.731 276.105 421.965 275.676C422.198 275.237 422.315 274.729 422.315 274.15ZM427.31 271.378V275.9C427.31 276.273 427.389 276.539 427.548 276.698C427.706 276.847 427.982 276.922 428.374 276.922H429.312V278H428.164C427.454 278 426.922 277.837 426.568 277.51C426.213 277.183 426.036 276.647 426.036 275.9V271.378H425.042V270.328H426.036V268.396H427.31V270.328H429.312V271.378H427.31Z" fill="#99A4BB"/>
<path d="M355.594 268.242V269.278H351.352V272.568H354.796V273.604H351.352V278H350.078V268.242H355.594ZM358.407 271.574C358.631 271.135 358.948 270.795 359.359 270.552C359.779 270.309 360.287 270.188 360.885 270.188V271.504H360.549C359.121 271.504 358.407 272.279 358.407 273.828V278H357.133V270.328H358.407V271.574ZM363.013 269.082C362.771 269.082 362.565 268.998 362.397 268.83C362.229 268.662 362.145 268.457 362.145 268.214C362.145 267.971 362.229 267.766 362.397 267.598C362.565 267.43 362.771 267.346 363.013 267.346C363.247 267.346 363.443 267.43 363.601 267.598C363.769 267.766 363.853 267.971 363.853 268.214C363.853 268.457 363.769 268.662 363.601 268.83C363.443 268.998 363.247 269.082 363.013 269.082ZM363.629 270.328V278H362.355V270.328H363.629Z" fill="#99A4BB"/>
<path d="M288.084 268.242V269.278H285.424V278H284.15V269.278H281.476V268.242H288.084ZM293.46 270.188C294.039 270.188 294.562 270.314 295.028 270.566C295.495 270.809 295.859 271.177 296.12 271.672C296.391 272.167 296.526 272.769 296.526 273.478V278H295.266V273.66C295.266 272.895 295.075 272.311 294.692 271.91C294.31 271.499 293.787 271.294 293.124 271.294C292.452 271.294 291.916 271.504 291.514 271.924C291.122 272.344 290.926 272.955 290.926 273.758V278H289.652V267.64H290.926V271.42C291.178 271.028 291.524 270.725 291.962 270.51C292.41 270.295 292.91 270.188 293.46 270.188ZM305.411 270.328V278H304.137V276.866C303.895 277.258 303.554 277.566 303.115 277.79C302.686 278.005 302.21 278.112 301.687 278.112C301.09 278.112 300.553 277.991 300.077 277.748C299.601 277.496 299.223 277.123 298.943 276.628C298.673 276.133 298.537 275.531 298.537 274.822V270.328H299.797V274.654C299.797 275.41 299.989 275.993 300.371 276.404C300.754 276.805 301.277 277.006 301.939 277.006C302.621 277.006 303.157 276.796 303.549 276.376C303.941 275.956 304.137 275.345 304.137 274.542V270.328H305.411Z" fill="#99A4BB"/>
<path d="M220.342 268.242L217.514 278H216.086L213.818 270.146L211.466 278L210.052 278.014L207.322 268.242H208.68L210.808 276.516L213.16 268.242H214.588L216.828 276.488L218.97 268.242H220.342ZM228.736 273.87C228.736 274.113 228.722 274.369 228.694 274.64H222.562C222.609 275.396 222.866 275.989 223.332 276.418C223.808 276.838 224.382 277.048 225.054 277.048C225.605 277.048 226.062 276.922 226.426 276.67C226.8 276.409 227.061 276.063 227.21 275.634H228.582C228.377 276.371 227.966 276.973 227.35 277.44C226.734 277.897 225.969 278.126 225.054 278.126C224.326 278.126 223.673 277.963 223.094 277.636C222.525 277.309 222.077 276.847 221.75 276.25C221.424 275.643 221.26 274.943 221.26 274.15C221.26 273.357 221.419 272.661 221.736 272.064C222.054 271.467 222.497 271.009 223.066 270.692C223.645 270.365 224.308 270.202 225.054 270.202C225.782 270.202 226.426 270.361 226.986 270.678C227.546 270.995 227.976 271.434 228.274 271.994C228.582 272.545 228.736 273.17 228.736 273.87ZM227.42 273.604C227.42 273.119 227.313 272.703 227.098 272.358C226.884 272.003 226.59 271.737 226.216 271.56C225.852 271.373 225.446 271.28 224.998 271.28C224.354 271.28 223.804 271.485 223.346 271.896C222.898 272.307 222.642 272.876 222.576 273.604H227.42ZM229.942 274.136C229.942 273.352 230.101 272.666 230.418 272.078C230.735 271.481 231.169 271.019 231.72 270.692C232.28 270.365 232.905 270.202 233.596 270.202C234.193 270.202 234.749 270.342 235.262 270.622C235.775 270.893 236.167 271.252 236.438 271.7V267.64H237.726V278H236.438V276.558C236.186 277.015 235.813 277.393 235.318 277.692C234.823 277.981 234.245 278.126 233.582 278.126C232.901 278.126 232.28 277.958 231.72 277.622C231.169 277.286 230.735 276.815 230.418 276.208C230.101 275.601 229.942 274.911 229.942 274.136ZM236.438 274.15C236.438 273.571 236.321 273.067 236.088 272.638C235.855 272.209 235.537 271.882 235.136 271.658C234.744 271.425 234.31 271.308 233.834 271.308C233.358 271.308 232.924 271.42 232.532 271.644C232.14 271.868 231.827 272.195 231.594 272.624C231.361 273.053 231.244 273.557 231.244 274.136C231.244 274.724 231.361 275.237 231.594 275.676C231.827 276.105 232.14 276.437 232.532 276.67C232.924 276.894 233.358 277.006 233.834 277.006C234.31 277.006 234.744 276.894 235.136 276.67C235.537 276.437 235.855 276.105 236.088 275.676C236.321 275.237 236.438 274.729 236.438 274.15Z" fill="#99A4BB"/>
<path d="M146.084 268.242V269.278H143.424V278H142.15V269.278H139.476V268.242H146.084ZM154.456 270.328V278H153.182V276.866C152.94 277.258 152.599 277.566 152.16 277.79C151.731 278.005 151.255 278.112 150.732 278.112C150.135 278.112 149.598 277.991 149.122 277.748C148.646 277.496 148.268 277.123 147.988 276.628C147.718 276.133 147.582 275.531 147.582 274.822V270.328H148.842V274.654C148.842 275.41 149.034 275.993 149.416 276.404C149.799 276.805 150.322 277.006 150.984 277.006C151.666 277.006 152.202 276.796 152.594 276.376C152.986 275.956 153.182 275.345 153.182 274.542V270.328H154.456ZM163.607 273.87C163.607 274.113 163.593 274.369 163.565 274.64H157.433C157.48 275.396 157.737 275.989 158.203 276.418C158.679 276.838 159.253 277.048 159.925 277.048C160.476 277.048 160.933 276.922 161.297 276.67C161.671 276.409 161.932 276.063 162.081 275.634H163.453C163.248 276.371 162.837 276.973 162.221 277.44C161.605 277.897 160.84 278.126 159.925 278.126C159.197 278.126 158.544 277.963 157.965 277.636C157.396 277.309 156.948 276.847 156.621 276.25C156.295 275.643 156.131 274.943 156.131 274.15C156.131 273.357 156.29 272.661 156.607 272.064C156.925 271.467 157.368 271.009 157.937 270.692C158.516 270.365 159.179 270.202 159.925 270.202C160.653 270.202 161.297 270.361 161.857 270.678C162.417 270.995 162.847 271.434 163.145 271.994C163.453 272.545 163.607 273.17 163.607 273.87ZM162.291 273.604C162.291 273.119 162.184 272.703 161.969 272.358C161.755 272.003 161.461 271.737 161.087 271.56C160.723 271.373 160.317 271.28 159.869 271.28C159.225 271.28 158.675 271.485 158.217 271.896C157.769 272.307 157.513 272.876 157.447 273.604H162.291Z" fill="#99A4BB"/>
<path d="M78.392 268.312V278H77.118V270.776L73.898 278H73.002L69.768 270.762V278H68.494V268.312H69.866L73.45 276.32L77.034 268.312H78.392ZM83.8986 278.126C83.1799 278.126 82.5266 277.963 81.9386 277.636C81.3599 277.309 80.9026 276.847 80.5666 276.25C80.2399 275.643 80.0766 274.943 80.0766 274.15C80.0766 273.366 80.2446 272.675 80.5806 272.078C80.9259 271.471 81.3926 271.009 81.9806 270.692C82.5686 270.365 83.2266 270.202 83.9546 270.202C84.6826 270.202 85.3406 270.365 85.9286 270.692C86.5166 271.009 86.9786 271.467 87.3146 272.064C87.6599 272.661 87.8326 273.357 87.8326 274.15C87.8326 274.943 87.6553 275.643 87.3006 276.25C86.9553 276.847 86.4839 277.309 85.8866 277.636C85.2893 277.963 84.6266 278.126 83.8986 278.126ZM83.8986 277.006C84.3559 277.006 84.7853 276.899 85.1866 276.684C85.5879 276.469 85.9099 276.147 86.1526 275.718C86.4046 275.289 86.5306 274.766 86.5306 274.15C86.5306 273.534 86.4093 273.011 86.1666 272.582C85.9239 272.153 85.6066 271.835 85.2146 271.63C84.8226 271.415 84.3979 271.308 83.9406 271.308C83.4739 271.308 83.0446 271.415 82.6526 271.63C82.2699 271.835 81.9619 272.153 81.7286 272.582C81.4953 273.011 81.3786 273.534 81.3786 274.15C81.3786 274.775 81.4906 275.303 81.7146 275.732C81.9479 276.161 82.2559 276.483 82.6386 276.698C83.0213 276.903 83.4413 277.006 83.8986 277.006ZM93.2457 270.188C94.179 270.188 94.935 270.473 95.5137 271.042C96.0924 271.602 96.3817 272.414 96.3817 273.478V278H95.1217V273.66C95.1217 272.895 94.9304 272.311 94.5477 271.91C94.165 271.499 93.6424 271.294 92.9797 271.294C92.3077 271.294 91.771 271.504 91.3697 271.924C90.9777 272.344 90.7817 272.955 90.7817 273.758V278H89.5077V270.328H90.7817V271.42C91.0337 271.028 91.3744 270.725 91.8037 270.51C92.2424 270.295 92.723 270.188 93.2457 270.188Z" fill="#99A4BB"/>
<path d="M1.28822 46.0268C2.47355 45.0748 3.40222 44.2955 4.07422 43.6888C4.74622 43.0728 5.31089 42.4335 5.76822 41.7708C6.23489 41.0988 6.46822 40.4408 6.46822 39.7968C6.46822 39.1902 6.31889 38.7142 6.02022 38.3688C5.73089 38.0142 5.25955 37.8368 4.60622 37.8368C3.97155 37.8368 3.47689 38.0375 3.12222 38.4388C2.77689 38.8308 2.59022 39.3582 2.56222 40.0208H1.33022C1.36755 38.9755 1.68489 38.1682 2.28222 37.5988C2.87955 37.0295 3.64955 36.7448 4.59222 36.7448C5.55355 36.7448 6.31422 37.0108 6.87422 37.5428C7.44355 38.0748 7.72822 38.8075 7.72822 39.7408C7.72822 40.5155 7.49489 41.2715 7.02822 42.0088C6.57089 42.7368 6.04822 43.3808 5.46022 43.9408C4.87222 44.4915 4.12089 45.1355 3.20622 45.8728H8.02222V46.9368H1.28822V46.0268ZM15.949 38.0328H11.035V41.2248C11.2496 40.9262 11.567 40.6835 11.987 40.4968C12.407 40.3008 12.8596 40.2028 13.345 40.2028C14.1196 40.2028 14.7496 40.3662 15.235 40.6928C15.7203 41.0102 16.0656 41.4255 16.271 41.9388C16.4856 42.4428 16.593 42.9795 16.593 43.5488C16.593 44.2208 16.467 44.8228 16.215 45.3548C15.963 45.8868 15.5756 46.3068 15.053 46.6148C14.5396 46.9228 13.9003 47.0768 13.135 47.0768C12.155 47.0768 11.3616 46.8248 10.755 46.3208C10.1483 45.8168 9.77962 45.1448 9.64895 44.3048H10.895C11.0163 44.8368 11.273 45.2522 11.665 45.5508C12.057 45.8495 12.5516 45.9988 13.149 45.9988C13.8863 45.9988 14.4416 45.7795 14.815 45.3408C15.1883 44.8928 15.375 44.3048 15.375 43.5768C15.375 42.8488 15.1883 42.2888 14.815 41.8968C14.4416 41.4955 13.891 41.2948 13.163 41.2948C12.6683 41.2948 12.2343 41.4162 11.861 41.6588C11.497 41.8922 11.231 42.2142 11.063 42.6248H9.85895V36.9128H15.949V38.0328ZM18.286 41.8828C18.286 40.2775 18.5473 39.0268 19.07 38.1308C19.5926 37.2255 20.5073 36.7728 21.814 36.7728C23.1113 36.7728 24.0213 37.2255 24.544 38.1308C25.0666 39.0268 25.328 40.2775 25.328 41.8828C25.328 43.5162 25.0666 44.7855 24.544 45.6908C24.0213 46.5962 23.1113 47.0488 21.814 47.0488C20.5073 47.0488 19.5926 46.5962 19.07 45.6908C18.5473 44.7855 18.286 43.5162 18.286 41.8828ZM24.068 41.8828C24.068 41.0708 24.012 40.3848 23.9 39.8248C23.7973 39.2555 23.578 38.7982 23.242 38.4528C22.9153 38.1075 22.4393 37.9348 21.814 37.9348C21.1793 37.9348 20.694 38.1075 20.358 38.4528C20.0313 38.7982 19.812 39.2555 19.7 39.8248C19.5973 40.3848 19.546 41.0708 19.546 41.8828C19.546 42.7228 19.5973 43.4275 19.7 43.9968C19.812 44.5662 20.0313 45.0235 20.358 45.3688C20.694 45.7142 21.1793 45.8868 21.814 45.8868C22.4393 45.8868 22.9153 45.7142 23.242 45.3688C23.578 45.0235 23.7973 44.5662 23.9 43.9968C24.012 43.4275 24.068 42.7228 24.068 41.8828ZM27.077 41.8828C27.077 40.2775 27.3383 39.0268 27.861 38.1308C28.3837 37.2255 29.2983 36.7728 30.605 36.7728C31.9023 36.7728 32.8123 37.2255 33.335 38.1308C33.8577 39.0268 34.119 40.2775 34.119 41.8828C34.119 43.5162 33.8577 44.7855 33.335 45.6908C32.8123 46.5962 31.9023 47.0488 30.605 47.0488C29.2983 47.0488 28.3837 46.5962 27.861 45.6908C27.3383 44.7855 27.077 43.5162 27.077 41.8828ZM32.859 41.8828C32.859 41.0708 32.803 40.3848 32.691 39.8248C32.5883 39.2555 32.369 38.7982 32.033 38.4528C31.7063 38.1075 31.2303 37.9348 30.605 37.9348C29.9703 37.9348 29.485 38.1075 29.149 38.4528C28.8223 38.7982 28.603 39.2555 28.491 39.8248C28.3883 40.3848 28.337 41.0708 28.337 41.8828C28.337 42.7228 28.3883 43.4275 28.491 43.9968C28.603 44.5662 28.8223 45.0235 29.149 45.3688C29.485 45.7142 29.9703 45.8868 30.605 45.8868C31.2303 45.8868 31.7063 45.7142 32.033 45.3688C32.369 45.0235 32.5883 44.5662 32.691 43.9968C32.803 43.4275 32.859 42.7228 32.859 41.8828Z" fill="#99A4BB"/>
<path d="M1.28822 91.2607C2.47355 90.3087 3.40222 89.5294 4.07422 88.9227C4.74622 88.3067 5.31089 87.6674 5.76822 87.0047C6.23489 86.3327 6.46822 85.6747 6.46822 85.0307C6.46822 84.424 6.31889 83.948 6.02022 83.6027C5.73089 83.248 5.25955 83.0707 4.60622 83.0707C3.97155 83.0707 3.47689 83.2714 3.12222 83.6727C2.77689 84.0647 2.59022 84.592 2.56222 85.2547H1.33022C1.36755 84.2094 1.68489 83.402 2.28222 82.8327C2.87955 82.2634 3.64955 81.9787 4.59222 81.9787C5.55355 81.9787 6.31422 82.2447 6.87422 82.7767C7.44355 83.3087 7.72822 84.0414 7.72822 84.9747C7.72822 85.7494 7.49489 86.5054 7.02822 87.2427C6.57089 87.9707 6.04822 88.6147 5.46022 89.1747C4.87222 89.7254 4.12089 90.3694 3.20622 91.1067H8.02222V92.1707H1.28822V91.2607ZM9.49495 87.1167C9.49495 85.5114 9.75629 84.2607 10.279 83.3647C10.8016 82.4594 11.7163 82.0067 13.023 82.0067C14.3203 82.0067 15.2303 82.4594 15.753 83.3647C16.2756 84.2607 16.537 85.5114 16.537 87.1167C16.537 88.75 16.2756 90.0194 15.753 90.9247C15.2303 91.83 14.3203 92.2827 13.023 92.2827C11.7163 92.2827 10.8016 91.83 10.279 90.9247C9.75629 90.0194 9.49495 88.75 9.49495 87.1167ZM15.277 87.1167C15.277 86.3047 15.221 85.6187 15.109 85.0587C15.0063 84.4894 14.787 84.032 14.451 83.6867C14.1243 83.3414 13.6483 83.1687 13.023 83.1687C12.3883 83.1687 11.903 83.3414 11.567 83.6867C11.2403 84.032 11.021 84.4894 10.909 85.0587C10.8063 85.6187 10.755 86.3047 10.755 87.1167C10.755 87.9567 10.8063 88.6614 10.909 89.2307C11.021 89.8 11.2403 90.2574 11.567 90.6027C11.903 90.948 12.3883 91.1207 13.023 91.1207C13.6483 91.1207 14.1243 90.948 14.451 90.6027C14.787 90.2574 15.0063 89.8 15.109 89.2307C15.221 88.6614 15.277 87.9567 15.277 87.1167ZM18.286 87.1167C18.286 85.5114 18.5473 84.2607 19.07 83.3647C19.5926 82.4594 20.5073 82.0067 21.814 82.0067C23.1113 82.0067 24.0213 82.4594 24.544 83.3647C25.0666 84.2607 25.328 85.5114 25.328 87.1167C25.328 88.75 25.0666 90.0194 24.544 90.9247C24.0213 91.83 23.1113 92.2827 21.814 92.2827C20.5073 92.2827 19.5926 91.83 19.07 90.9247C18.5473 90.0194 18.286 88.75 18.286 87.1167ZM24.068 87.1167C24.068 86.3047 24.012 85.6187 23.9 85.0587C23.7973 84.4894 23.578 84.032 23.242 83.6867C22.9153 83.3414 22.4393 83.1687 21.814 83.1687C21.1793 83.1687 20.694 83.3414 20.358 83.6867C20.0313 84.032 19.812 84.4894 19.7 85.0587C19.5973 85.6187 19.546 86.3047 19.546 87.1167C19.546 87.9567 19.5973 88.6614 19.7 89.2307C19.812 89.8 20.0313 90.2574 20.358 90.6027C20.694 90.948 21.1793 91.1207 21.814 91.1207C22.4393 91.1207 22.9153 90.948 23.242 90.6027C23.578 90.2574 23.7973 89.8 23.9 89.2307C24.012 88.6614 24.068 87.9567 24.068 87.1167ZM27.077 87.1167C27.077 85.5114 27.3383 84.2607 27.861 83.3647C28.3837 82.4594 29.2983 82.0067 30.605 82.0067C31.9023 82.0067 32.8123 82.4594 33.335 83.3647C33.8577 84.2607 34.119 85.5114 34.119 87.1167C34.119 88.75 33.8577 90.0194 33.335 90.9247C32.8123 91.83 31.9023 92.2827 30.605 92.2827C29.2983 92.2827 28.3837 91.83 27.861 90.9247C27.3383 90.0194 27.077 88.75 27.077 87.1167ZM32.859 87.1167C32.859 86.3047 32.803 85.6187 32.691 85.0587C32.5883 84.4894 32.369 84.032 32.033 83.6867C31.7063 83.3414 31.2303 83.1687 30.605 83.1687C29.9703 83.1687 29.485 83.3414 29.149 83.6867C28.8223 84.032 28.603 84.4894 28.491 85.0587C28.3883 85.6187 28.337 86.3047 28.337 87.1167C28.337 87.9567 28.3883 88.6614 28.491 89.2307C28.603 89.8 28.8223 90.2574 29.149 90.6027C29.485 90.948 29.9703 91.1207 30.605 91.1207C31.2303 91.1207 31.7063 90.948 32.033 90.6027C32.369 90.2574 32.5883 89.8 32.691 89.2307C32.803 88.6614 32.859 87.9567 32.859 87.1167Z" fill="#99A4BB"/>
<path d="M4.67409 128.553V127.391H7.30609V137.513H6.01809V128.553H4.67409ZM15.9485 128.497H11.0345V131.689C11.2491 131.391 11.5665 131.148 11.9865 130.961C12.4065 130.765 12.8591 130.667 13.3445 130.667C14.1191 130.667 14.7491 130.831 15.2345 131.157C15.7198 131.475 16.0651 131.89 16.2705 132.403C16.4851 132.907 16.5925 133.444 16.5925 134.013C16.5925 134.685 16.4665 135.287 16.2145 135.819C15.9625 136.351 15.5751 136.771 15.0525 137.079C14.5391 137.387 13.8998 137.541 13.1345 137.541C12.1545 137.541 11.3611 137.289 10.7545 136.785C10.1478 136.281 9.77913 135.609 9.64846 134.769H10.8945C11.0158 135.301 11.2725 135.717 11.6645 136.015C12.0565 136.314 12.5511 136.463 13.1485 136.463C13.8858 136.463 14.4411 136.244 14.8145 135.805C15.1878 135.357 15.3745 134.769 15.3745 134.041C15.3745 133.313 15.1878 132.753 14.8145 132.361C14.4411 131.96 13.8905 131.759 13.1625 131.759C12.6678 131.759 12.2338 131.881 11.8605 132.123C11.4965 132.357 11.2305 132.679 11.0625 133.089H9.85846V127.377H15.9485V128.497ZM18.2855 132.347C18.2855 130.742 18.5468 129.491 19.0695 128.595C19.5921 127.69 20.5068 127.237 21.8135 127.237C23.1108 127.237 24.0208 127.69 24.5435 128.595C25.0661 129.491 25.3275 130.742 25.3275 132.347C25.3275 133.981 25.0661 135.25 24.5435 136.155C24.0208 137.061 23.1108 137.513 21.8135 137.513C20.5068 137.513 19.5921 137.061 19.0695 136.155C18.5468 135.25 18.2855 133.981 18.2855 132.347ZM24.0675 132.347C24.0675 131.535 24.0115 130.849 23.8995 130.289C23.7968 129.72 23.5775 129.263 23.2415 128.917C22.9148 128.572 22.4388 128.399 21.8135 128.399C21.1788 128.399 20.6935 128.572 20.3575 128.917C20.0308 129.263 19.8115 129.72 19.6995 130.289C19.5968 130.849 19.5455 131.535 19.5455 132.347C19.5455 133.187 19.5968 133.892 19.6995 134.461C19.8115 135.031 20.0308 135.488 20.3575 135.833C20.6935 136.179 21.1788 136.351 21.8135 136.351C22.4388 136.351 22.9148 136.179 23.2415 135.833C23.5775 135.488 23.7968 135.031 23.8995 134.461C24.0115 133.892 24.0675 133.187 24.0675 132.347ZM27.0765 132.347C27.0765 130.742 27.3378 129.491 27.8605 128.595C28.3832 127.69 29.2978 127.237 30.6045 127.237C31.9018 127.237 32.8118 127.69 33.3345 128.595C33.8572 129.491 34.1185 130.742 34.1185 132.347C34.1185 133.981 33.8572 135.25 33.3345 136.155C32.8118 137.061 31.9018 137.513 30.6045 137.513C29.2978 137.513 28.3832 137.061 27.8605 136.155C27.3378 135.25 27.0765 133.981 27.0765 132.347ZM32.8585 132.347C32.8585 131.535 32.8025 130.849 32.6905 130.289C32.5878 129.72 32.3685 129.263 32.0325 128.917C31.7058 128.572 31.2298 128.399 30.6045 128.399C29.9698 128.399 29.4845 128.572 29.1485 128.917C28.8218 129.263 28.6025 129.72 28.4905 130.289C28.3878 130.849 28.3365 131.535 28.3365 132.347C28.3365 133.187 28.3878 133.892 28.4905 134.461C28.6025 135.031 28.8218 135.488 29.1485 135.833C29.4845 136.179 29.9698 136.351 30.6045 136.351C31.2298 136.351 31.7058 136.179 32.0325 135.833C32.3685 135.488 32.5878 135.031 32.6905 134.461C32.8025 133.892 32.8585 133.187 32.8585 132.347Z" fill="#99A4BB"/>
<path d="M4.67409 173.788V172.626H7.30609V182.748H6.01809V173.788H4.67409ZM9.49446 177.582C9.49446 175.976 9.7558 174.726 10.2785 173.83C10.8011 172.924 11.7158 172.472 13.0225 172.472C14.3198 172.472 15.2298 172.924 15.7525 173.83C16.2751 174.726 16.5365 175.976 16.5365 177.582C16.5365 179.215 16.2751 180.484 15.7525 181.39C15.2298 182.295 14.3198 182.748 13.0225 182.748C11.7158 182.748 10.8011 182.295 10.2785 181.39C9.7558 180.484 9.49446 179.215 9.49446 177.582ZM15.2765 177.582C15.2765 176.77 15.2205 176.084 15.1085 175.524C15.0058 174.954 14.7865 174.497 14.4505 174.152C14.1238 173.806 13.6478 173.634 13.0225 173.634C12.3878 173.634 11.9025 173.806 11.5665 174.152C11.2398 174.497 11.0205 174.954 10.9085 175.524C10.8058 176.084 10.7545 176.77 10.7545 177.582C10.7545 178.422 10.8058 179.126 10.9085 179.696C11.0205 180.265 11.2398 180.722 11.5665 181.068C11.9025 181.413 12.3878 181.586 13.0225 181.586C13.6478 181.586 14.1238 181.413 14.4505 181.068C14.7865 180.722 15.0058 180.265 15.1085 179.696C15.2205 179.126 15.2765 178.422 15.2765 177.582ZM18.2855 177.582C18.2855 175.976 18.5468 174.726 19.0695 173.83C19.5921 172.924 20.5068 172.472 21.8135 172.472C23.1108 172.472 24.0208 172.924 24.5435 173.83C25.0661 174.726 25.3275 175.976 25.3275 177.582C25.3275 179.215 25.0661 180.484 24.5435 181.39C24.0208 182.295 23.1108 182.748 21.8135 182.748C20.5068 182.748 19.5921 182.295 19.0695 181.39C18.5468 180.484 18.2855 179.215 18.2855 177.582ZM24.0675 177.582C24.0675 176.77 24.0115 176.084 23.8995 175.524C23.7968 174.954 23.5775 174.497 23.2415 174.152C22.9148 173.806 22.4388 173.634 21.8135 173.634C21.1788 173.634 20.6935 173.806 20.3575 174.152C20.0308 174.497 19.8115 174.954 19.6995 175.524C19.5968 176.084 19.5455 176.77 19.5455 177.582C19.5455 178.422 19.5968 179.126 19.6995 179.696C19.8115 180.265 20.0308 180.722 20.3575 181.068C20.6935 181.413 21.1788 181.586 21.8135 181.586C22.4388 181.586 22.9148 181.413 23.2415 181.068C23.5775 180.722 23.7968 180.265 23.8995 179.696C24.0115 179.126 24.0675 178.422 24.0675 177.582ZM27.0765 177.582C27.0765 175.976 27.3378 174.726 27.8605 173.83C28.3832 172.924 29.2978 172.472 30.6045 172.472C31.9018 172.472 32.8118 172.924 33.3345 173.83C33.8572 174.726 34.1185 175.976 34.1185 177.582C34.1185 179.215 33.8572 180.484 33.3345 181.39C32.8118 182.295 31.9018 182.748 30.6045 182.748C29.2978 182.748 28.3832 182.295 27.8605 181.39C27.3378 180.484 27.0765 179.215 27.0765 177.582ZM32.8585 177.582C32.8585 176.77 32.8025 176.084 32.6905 175.524C32.5878 174.954 32.3685 174.497 32.0325 174.152C31.7058 173.806 31.2298 173.634 30.6045 173.634C29.9698 173.634 29.4845 173.806 29.1485 174.152C28.8218 174.497 28.6025 174.954 28.4905 175.524C28.3878 176.084 28.3365 176.77 28.3365 177.582C28.3365 178.422 28.3878 179.126 28.4905 179.696C28.6025 180.265 28.8218 180.722 29.1485 181.068C29.4845 181.413 29.9698 181.586 30.6045 181.586C31.2298 181.586 31.7058 181.413 32.0325 181.068C32.3685 180.722 32.5878 180.265 32.6905 179.696C32.8025 179.126 32.8585 178.422 32.8585 177.582Z" fill="#99A4BB"/>
<path d="M15.9485 217.864H11.0345V221.056C11.2491 220.758 11.5665 220.515 11.9865 220.328C12.4065 220.132 12.8591 220.034 13.3445 220.034C14.1191 220.034 14.7491 220.198 15.2345 220.524C15.7198 220.842 16.0651 221.257 16.2705 221.77C16.4851 222.274 16.5925 222.811 16.5925 223.38C16.5925 224.052 16.4665 224.654 16.2145 225.186C15.9625 225.718 15.5751 226.138 15.0525 226.446C14.5391 226.754 13.8998 226.908 13.1345 226.908C12.1545 226.908 11.3611 226.656 10.7545 226.152C10.1478 225.648 9.77913 224.976 9.64846 224.136H10.8945C11.0158 224.668 11.2725 225.084 11.6645 225.382C12.0565 225.681 12.5511 225.83 13.1485 225.83C13.8858 225.83 14.4411 225.611 14.8145 225.172C15.1878 224.724 15.3745 224.136 15.3745 223.408C15.3745 222.68 15.1878 222.12 14.8145 221.728C14.4411 221.327 13.8905 221.126 13.1625 221.126C12.6678 221.126 12.2338 221.248 11.8605 221.49C11.4965 221.724 11.2305 222.046 11.0625 222.456H9.85846V216.744H15.9485V217.864ZM18.2855 221.714C18.2855 220.109 18.5468 218.858 19.0695 217.962C19.5921 217.057 20.5068 216.604 21.8135 216.604C23.1108 216.604 24.0208 217.057 24.5435 217.962C25.0661 218.858 25.3275 220.109 25.3275 221.714C25.3275 223.348 25.0661 224.617 24.5435 225.522C24.0208 226.428 23.1108 226.88 21.8135 226.88C20.5068 226.88 19.5921 226.428 19.0695 225.522C18.5468 224.617 18.2855 223.348 18.2855 221.714ZM24.0675 221.714C24.0675 220.902 24.0115 220.216 23.8995 219.656C23.7968 219.087 23.5775 218.63 23.2415 218.284C22.9148 217.939 22.4388 217.766 21.8135 217.766C21.1788 217.766 20.6935 217.939 20.3575 218.284C20.0308 218.63 19.8115 219.087 19.6995 219.656C19.5968 220.216 19.5455 220.902 19.5455 221.714C19.5455 222.554 19.5968 223.259 19.6995 223.828C19.8115 224.398 20.0308 224.855 20.3575 225.2C20.6935 225.546 21.1788 225.718 21.8135 225.718C22.4388 225.718 22.9148 225.546 23.2415 225.2C23.5775 224.855 23.7968 224.398 23.8995 223.828C24.0115 223.259 24.0675 222.554 24.0675 221.714ZM27.0765 221.714C27.0765 220.109 27.3378 218.858 27.8605 217.962C28.3832 217.057 29.2978 216.604 30.6045 216.604C31.9018 216.604 32.8118 217.057 33.3345 217.962C33.8572 218.858 34.1185 220.109 34.1185 221.714C34.1185 223.348 33.8572 224.617 33.3345 225.522C32.8118 226.428 31.9018 226.88 30.6045 226.88C29.2978 226.88 28.3832 226.428 27.8605 225.522C27.3378 224.617 27.0765 223.348 27.0765 221.714ZM32.8585 221.714C32.8585 220.902 32.8025 220.216 32.6905 219.656C32.5878 219.087 32.3685 218.63 32.0325 218.284C31.7058 217.939 31.2298 217.766 30.6045 217.766C29.9698 217.766 29.4845 217.939 29.1485 218.284C28.8218 218.63 28.6025 219.087 28.4905 219.656C28.3878 220.216 28.3365 220.902 28.3365 221.714C28.3365 222.554 28.3878 223.259 28.4905 223.828C28.6025 224.398 28.8218 224.855 29.1485 225.2C29.4845 225.546 29.9698 225.718 30.6045 225.718C31.2298 225.718 31.7058 225.546 32.0325 225.2C32.3685 224.855 32.5878 224.398 32.6905 223.828C32.8025 223.259 32.8585 222.554 32.8585 221.714Z" fill="#99A4BB"/>
</svg>
