<svg width="425" height="242" viewBox="0 0 425 242" fill="none" xmlns="http://www.w3.org/2000/svg">
<path d="M109.233 162.771L103.108 177.651H78.5541H63" stroke="#777777" stroke-width="2" stroke-miterlimit="10" stroke-linecap="round" stroke-linejoin="round"/>
<path d="M137.233 41.8804L131.108 27.0001H106.554H91" stroke="#777777" stroke-width="2" stroke-miterlimit="10" stroke-linecap="round" stroke-linejoin="round"/>
<path d="M297.984 200.053L309.335 214.035H357.199" stroke="#777777" stroke-width="2" stroke-miterlimit="10" stroke-linecap="round" stroke-linejoin="round"/>
<path d="M279 23.9814L290.352 10H328.215" stroke="#777777" stroke-width="2" stroke-miterlimit="10" stroke-linecap="round" stroke-linejoin="round"/>
<mask id="mask0_50_1003" style="mask-type:alpha" maskUnits="userSpaceOnUse" x="100" y="5" width="237" height="237">
<circle cx="218.924" cy="123.99" r="118.01" fill="#C4C4C4"/>
</mask>
<g mask="url(#mask0_50_1003)">
<rect x="219" y="139" width="128" height="112" fill="#501CD8"/>
<rect x="219" y="6" width="128" height="133" fill="#2571FF"/>
<rect x="89.9272" y="-3.01416" width="150.8" height="134.488" fill="#F8256D"/>
<rect x="89.9272" y="124.155" width="129.162" height="127.165" fill="#00B0FF"/>
</g>
<path d="M218.786 190.8C255.758 190.8 285.73 160.828 285.73 123.856C285.73 86.8837 255.758 56.9116 218.786 56.9116C181.813 56.9116 151.841 86.8837 151.841 123.856C151.841 160.828 181.813 190.8 218.786 190.8Z" fill="white"/>
<path d="M350.129 3.27L347.245 13H345.439L343.395 5.636L341.225 13L339.433 13.014L336.675 3.27H338.369L340.385 11.194L342.569 3.27H344.361L346.391 11.152L348.421 3.27H350.129ZM351.314 9.108C351.314 8.33333 351.472 7.64733 351.79 7.05C352.116 6.45267 352.555 5.99067 353.106 5.664C353.666 5.328 354.282 5.16 354.954 5.16C355.56 5.16 356.088 5.28133 356.536 5.524C356.993 5.75733 357.357 6.05133 357.628 6.406V5.286H359.238V13H357.628V11.852C357.357 12.216 356.988 12.5193 356.522 12.762C356.055 13.0047 355.523 13.126 354.926 13.126C354.263 13.126 353.656 12.958 353.106 12.622C352.555 12.2767 352.116 11.8007 351.79 11.194C351.472 10.578 351.314 9.88267 351.314 9.108ZM357.628 9.136C357.628 8.604 357.516 8.142 357.292 7.75C357.077 7.358 356.792 7.05933 356.438 6.854C356.083 6.64867 355.7 6.546 355.29 6.546C354.879 6.546 354.496 6.64867 354.142 6.854C353.787 7.05 353.498 7.344 353.274 7.736C353.059 8.11867 352.952 8.576 352.952 9.108C352.952 9.64 353.059 10.1067 353.274 10.508C353.498 10.9093 353.787 11.2173 354.142 11.432C354.506 11.6373 354.888 11.74 355.29 11.74C355.7 11.74 356.083 11.6373 356.438 11.432C356.792 11.2267 357.077 10.928 357.292 10.536C357.516 10.1347 357.628 9.668 357.628 9.136ZM363.596 6.588V10.858C363.596 11.1473 363.661 11.3573 363.792 11.488C363.932 11.6093 364.165 11.67 364.492 11.67H365.472V13H364.212C363.493 13 362.942 12.832 362.56 12.496C362.177 12.16 361.986 11.614 361.986 10.858V6.588H361.076V5.286H361.986V3.368H363.596V5.286H365.472V6.588H363.596ZM366.811 9.136C366.811 8.34267 366.969 7.64733 367.287 7.05C367.613 6.44333 368.061 5.97667 368.631 5.65C369.2 5.32333 369.853 5.16 370.591 5.16C371.524 5.16 372.294 5.384 372.901 5.832C373.517 6.27067 373.932 6.90067 374.147 7.722H372.425C372.285 7.33933 372.061 7.04067 371.753 6.826C371.445 6.61133 371.057 6.504 370.591 6.504C369.937 6.504 369.415 6.73733 369.023 7.204C368.64 7.66133 368.449 8.30533 368.449 9.136C368.449 9.96667 368.64 10.6153 369.023 11.082C369.415 11.5487 369.937 11.782 370.591 11.782C371.515 11.782 372.126 11.376 372.425 10.564H374.147C373.923 11.348 373.503 11.9733 372.887 12.44C372.271 12.8973 371.505 13.126 370.591 13.126C369.853 13.126 369.2 12.9627 368.631 12.636C368.061 12.3 367.613 11.8333 367.287 11.236C366.969 10.6293 366.811 9.92933 366.811 9.136ZM380.127 5.16C380.715 5.16 381.238 5.286 381.695 5.538C382.162 5.79 382.526 6.16333 382.787 6.658C383.058 7.15267 383.193 7.75 383.193 8.45V13H381.611V8.688C381.611 7.99733 381.439 7.47 381.093 7.106C380.748 6.73267 380.277 6.546 379.679 6.546C379.082 6.546 378.606 6.73267 378.251 7.106C377.906 7.47 377.733 7.99733 377.733 8.688V13H376.137V2.64H377.733V6.182C378.004 5.85533 378.345 5.60333 378.755 5.426C379.175 5.24867 379.633 5.16 380.127 5.16ZM388.429 13.126C387.822 13.126 387.276 13.0187 386.791 12.804C386.315 12.58 385.937 12.2813 385.657 11.908C385.377 11.5253 385.228 11.1007 385.209 10.634H386.861C386.889 10.9607 387.043 11.236 387.323 11.46C387.612 11.6747 387.972 11.782 388.401 11.782C388.849 11.782 389.194 11.698 389.437 11.53C389.689 11.3527 389.815 11.1287 389.815 10.858C389.815 10.5687 389.675 10.354 389.395 10.214C389.124 10.074 388.69 9.92 388.093 9.752C387.514 9.59333 387.043 9.43933 386.679 9.29C386.315 9.14067 385.998 8.912 385.727 8.604C385.466 8.296 385.335 7.89 385.335 7.386C385.335 6.97533 385.456 6.602 385.699 6.266C385.942 5.92067 386.287 5.65 386.735 5.454C387.192 5.258 387.715 5.16 388.303 5.16C389.18 5.16 389.885 5.384 390.417 5.832C390.958 6.27067 391.248 6.87267 391.285 7.638H389.689C389.661 7.29267 389.521 7.01733 389.269 6.812C389.017 6.60667 388.676 6.504 388.247 6.504C387.827 6.504 387.505 6.58333 387.281 6.742C387.057 6.90067 386.945 7.11067 386.945 7.372C386.945 7.57733 387.02 7.75 387.169 7.89C387.318 8.03 387.5 8.142 387.715 8.226C387.93 8.30067 388.247 8.39867 388.667 8.52C389.227 8.66933 389.684 8.82333 390.039 8.982C390.403 9.13133 390.716 9.35533 390.977 9.654C391.238 9.95267 391.374 10.3493 391.383 10.844C391.383 11.2827 391.262 11.6747 391.019 12.02C390.776 12.3653 390.431 12.636 389.983 12.832C389.544 13.028 389.026 13.126 388.429 13.126Z" fill="#5C6468"/>
<path d="M382.896 208.27L380.012 218H378.206L376.162 210.636L373.992 218L372.2 218.014L369.442 208.27H371.136L373.152 216.194L375.336 208.27H377.128L379.158 216.152L381.188 208.27H382.896ZM384.08 214.108C384.08 213.333 384.239 212.647 384.556 212.05C384.883 211.453 385.321 210.991 385.872 210.664C386.432 210.328 387.048 210.16 387.72 210.16C388.327 210.16 388.854 210.281 389.302 210.524C389.759 210.757 390.123 211.051 390.394 211.406V210.286H392.004V218H390.394V216.852C390.123 217.216 389.755 217.519 389.288 217.762C388.821 218.005 388.289 218.126 387.692 218.126C387.029 218.126 386.423 217.958 385.872 217.622C385.321 217.277 384.883 216.801 384.556 216.194C384.239 215.578 384.08 214.883 384.08 214.108ZM390.394 214.136C390.394 213.604 390.282 213.142 390.058 212.75C389.843 212.358 389.559 212.059 389.204 211.854C388.849 211.649 388.467 211.546 388.056 211.546C387.645 211.546 387.263 211.649 386.908 211.854C386.553 212.05 386.264 212.344 386.04 212.736C385.825 213.119 385.718 213.576 385.718 214.108C385.718 214.64 385.825 215.107 386.04 215.508C386.264 215.909 386.553 216.217 386.908 216.432C387.272 216.637 387.655 216.74 388.056 216.74C388.467 216.74 388.849 216.637 389.204 216.432C389.559 216.227 389.843 215.928 390.058 215.536C390.282 215.135 390.394 214.668 390.394 214.136ZM396.362 211.588V215.858C396.362 216.147 396.428 216.357 396.558 216.488C396.698 216.609 396.932 216.67 397.258 216.67H398.238V218H396.978C396.26 218 395.709 217.832 395.326 217.496C394.944 217.16 394.752 216.614 394.752 215.858V211.588H393.842V210.286H394.752V208.368H396.362V210.286H398.238V211.588H396.362ZM399.577 214.136C399.577 213.343 399.736 212.647 400.053 212.05C400.38 211.443 400.828 210.977 401.397 210.65C401.967 210.323 402.62 210.16 403.357 210.16C404.291 210.16 405.061 210.384 405.667 210.832C406.283 211.271 406.699 211.901 406.913 212.722H405.191C405.051 212.339 404.827 212.041 404.519 211.826C404.211 211.611 403.824 211.504 403.357 211.504C402.704 211.504 402.181 211.737 401.789 212.204C401.407 212.661 401.215 213.305 401.215 214.136C401.215 214.967 401.407 215.615 401.789 216.082C402.181 216.549 402.704 216.782 403.357 216.782C404.281 216.782 404.893 216.376 405.191 215.564H406.913C406.689 216.348 406.269 216.973 405.653 217.44C405.037 217.897 404.272 218.126 403.357 218.126C402.62 218.126 401.967 217.963 401.397 217.636C400.828 217.3 400.38 216.833 400.053 216.236C399.736 215.629 399.577 214.929 399.577 214.136ZM412.894 210.16C413.482 210.16 414.005 210.286 414.462 210.538C414.929 210.79 415.293 211.163 415.554 211.658C415.825 212.153 415.96 212.75 415.96 213.45V218H414.378V213.688C414.378 212.997 414.205 212.47 413.86 212.106C413.515 211.733 413.043 211.546 412.446 211.546C411.849 211.546 411.373 211.733 411.018 212.106C410.673 212.47 410.5 212.997 410.5 213.688V218H408.904V207.64H410.5V211.182C410.771 210.855 411.111 210.603 411.522 210.426C411.942 210.249 412.399 210.16 412.894 210.16ZM421.196 218.126C420.589 218.126 420.043 218.019 419.558 217.804C419.082 217.58 418.704 217.281 418.424 216.908C418.144 216.525 417.994 216.101 417.976 215.634H419.628C419.656 215.961 419.81 216.236 420.09 216.46C420.379 216.675 420.738 216.782 421.168 216.782C421.616 216.782 421.961 216.698 422.204 216.53C422.456 216.353 422.582 216.129 422.582 215.858C422.582 215.569 422.442 215.354 422.162 215.214C421.891 215.074 421.457 214.92 420.86 214.752C420.281 214.593 419.81 214.439 419.446 214.29C419.082 214.141 418.764 213.912 418.494 213.604C418.232 213.296 418.102 212.89 418.102 212.386C418.102 211.975 418.223 211.602 418.466 211.266C418.708 210.921 419.054 210.65 419.502 210.454C419.959 210.258 420.482 210.16 421.07 210.16C421.947 210.16 422.652 210.384 423.184 210.832C423.725 211.271 424.014 211.873 424.052 212.638H422.456C422.428 212.293 422.288 212.017 422.036 211.812C421.784 211.607 421.443 211.504 421.014 211.504C420.594 211.504 420.272 211.583 420.048 211.742C419.824 211.901 419.712 212.111 419.712 212.372C419.712 212.577 419.786 212.75 419.936 212.89C420.085 213.03 420.267 213.142 420.482 213.226C420.696 213.301 421.014 213.399 421.434 213.52C421.994 213.669 422.451 213.823 422.806 213.982C423.17 214.131 423.482 214.355 423.744 214.654C424.005 214.953 424.14 215.349 424.15 215.844C424.15 216.283 424.028 216.675 423.786 217.02C423.543 217.365 423.198 217.636 422.75 217.832C422.311 218.028 421.793 218.126 421.196 218.126Z" fill="#5C6468"/>
<path d="M13.8958 172.27L11.0118 182H9.20578L7.16178 174.636L4.99178 182L3.19978 182.014L0.441781 172.27H2.13578L4.15178 180.194L6.33578 172.27H8.12778L10.1578 180.152L12.1878 172.27H13.8958ZM15.0801 178.108C15.0801 177.333 15.2388 176.647 15.5561 176.05C15.8828 175.453 16.3214 174.991 16.8721 174.664C17.4321 174.328 18.0481 174.16 18.7201 174.16C19.3268 174.16 19.8541 174.281 20.3021 174.524C20.7594 174.757 21.1234 175.051 21.3941 175.406V174.286H23.0041V182H21.3941V180.852C21.1234 181.216 20.7548 181.519 20.2881 181.762C19.8214 182.005 19.2894 182.126 18.6921 182.126C18.0294 182.126 17.4228 181.958 16.8721 181.622C16.3214 181.277 15.8828 180.801 15.5561 180.194C15.2388 179.578 15.0801 178.883 15.0801 178.108ZM21.3941 178.136C21.3941 177.604 21.2821 177.142 21.0581 176.75C20.8434 176.358 20.5588 176.059 20.2041 175.854C19.8494 175.649 19.4668 175.546 19.0561 175.546C18.6454 175.546 18.2628 175.649 17.9081 175.854C17.5534 176.05 17.2641 176.344 17.0401 176.736C16.8254 177.119 16.7181 177.576 16.7181 178.108C16.7181 178.64 16.8254 179.107 17.0401 179.508C17.2641 179.909 17.5534 180.217 17.9081 180.432C18.2721 180.637 18.6548 180.74 19.0561 180.74C19.4668 180.74 19.8494 180.637 20.2041 180.432C20.5588 180.227 20.8434 179.928 21.0581 179.536C21.2821 179.135 21.3941 178.668 21.3941 178.136ZM27.3624 175.588V179.858C27.3624 180.147 27.4277 180.357 27.5584 180.488C27.6984 180.609 27.9317 180.67 28.2584 180.67H29.2384V182H27.9784C27.2597 182 26.7091 181.832 26.3264 181.496C25.9437 181.16 25.7524 180.614 25.7524 179.858V175.588H24.8424V174.286H25.7524V172.368H27.3624V174.286H29.2384V175.588H27.3624ZM30.5774 178.136C30.5774 177.343 30.736 176.647 31.0534 176.05C31.38 175.443 31.828 174.977 32.3974 174.65C32.9667 174.323 33.62 174.16 34.3574 174.16C35.2907 174.16 36.0607 174.384 36.6674 174.832C37.2834 175.271 37.6987 175.901 37.9134 176.722H36.1914C36.0514 176.339 35.8274 176.041 35.5194 175.826C35.2114 175.611 34.824 175.504 34.3574 175.504C33.704 175.504 33.1814 175.737 32.7894 176.204C32.4067 176.661 32.2154 177.305 32.2154 178.136C32.2154 178.967 32.4067 179.615 32.7894 180.082C33.1814 180.549 33.704 180.782 34.3574 180.782C35.2814 180.782 35.8927 180.376 36.1914 179.564H37.9134C37.6894 180.348 37.2694 180.973 36.6534 181.44C36.0374 181.897 35.272 182.126 34.3574 182.126C33.62 182.126 32.9667 181.963 32.3974 181.636C31.828 181.3 31.38 180.833 31.0534 180.236C30.736 179.629 30.5774 178.929 30.5774 178.136ZM43.8939 174.16C44.4819 174.16 45.0046 174.286 45.4619 174.538C45.9286 174.79 46.2926 175.163 46.5539 175.658C46.8246 176.153 46.9599 176.75 46.9599 177.45V182H45.3779V177.688C45.3779 176.997 45.2052 176.47 44.8599 176.106C44.5146 175.733 44.0432 175.546 43.4459 175.546C42.8486 175.546 42.3726 175.733 42.0179 176.106C41.6726 176.47 41.4999 176.997 41.4999 177.688V182H39.9039V171.64H41.4999V175.182C41.7706 174.855 42.1112 174.603 42.5219 174.426C42.9419 174.249 43.3992 174.16 43.8939 174.16ZM52.1957 182.126C51.589 182.126 51.043 182.019 50.5577 181.804C50.0817 181.58 49.7037 181.281 49.4237 180.908C49.1437 180.525 48.9944 180.101 48.9757 179.634H50.6277C50.6557 179.961 50.8097 180.236 51.0897 180.46C51.379 180.675 51.7384 180.782 52.1677 180.782C52.6157 180.782 52.961 180.698 53.2037 180.53C53.4557 180.353 53.5817 180.129 53.5817 179.858C53.5817 179.569 53.4417 179.354 53.1617 179.214C52.891 179.074 52.457 178.92 51.8597 178.752C51.281 178.593 50.8097 178.439 50.4457 178.29C50.0817 178.141 49.7644 177.912 49.4937 177.604C49.2324 177.296 49.1017 176.89 49.1017 176.386C49.1017 175.975 49.223 175.602 49.4657 175.266C49.7084 174.921 50.0537 174.65 50.5017 174.454C50.959 174.258 51.4817 174.16 52.0697 174.16C52.947 174.16 53.6517 174.384 54.1837 174.832C54.725 175.271 55.0144 175.873 55.0517 176.638H53.4557C53.4277 176.293 53.2877 176.017 53.0357 175.812C52.7837 175.607 52.443 175.504 52.0137 175.504C51.5937 175.504 51.2717 175.583 51.0477 175.742C50.8237 175.901 50.7117 176.111 50.7117 176.372C50.7117 176.577 50.7864 176.75 50.9357 176.89C51.085 177.03 51.267 177.142 51.4817 177.226C51.6964 177.301 52.0137 177.399 52.4337 177.52C52.9937 177.669 53.451 177.823 53.8057 177.982C54.1697 178.131 54.4824 178.355 54.7437 178.654C55.005 178.953 55.1404 179.349 55.1497 179.844C55.1497 180.283 55.0284 180.675 54.7857 181.02C54.543 181.365 54.1977 181.636 53.7497 181.832C53.311 182.028 52.793 182.126 52.1957 182.126Z" fill="#5C6468"/>
<path d="M43.8958 21.27L41.0118 31H39.2058L37.1618 23.636L34.9918 31L33.1998 31.014L30.4418 21.27H32.1358L34.1518 29.194L36.3358 21.27H38.1278L40.1578 29.152L42.1878 21.27H43.8958ZM45.0801 27.108C45.0801 26.3333 45.2388 25.6473 45.5561 25.05C45.8828 24.4527 46.3214 23.9907 46.8721 23.664C47.4321 23.328 48.0481 23.16 48.7201 23.16C49.3268 23.16 49.8541 23.2813 50.3021 23.524C50.7594 23.7573 51.1234 24.0513 51.3941 24.406V23.286H53.0041V31H51.3941V29.852C51.1234 30.216 50.7548 30.5193 50.2881 30.762C49.8214 31.0047 49.2894 31.126 48.6921 31.126C48.0294 31.126 47.4228 30.958 46.8721 30.622C46.3214 30.2767 45.8828 29.8007 45.5561 29.194C45.2388 28.578 45.0801 27.8827 45.0801 27.108ZM51.3941 27.136C51.3941 26.604 51.2821 26.142 51.0581 25.75C50.8434 25.358 50.5588 25.0593 50.2041 24.854C49.8494 24.6487 49.4668 24.546 49.0561 24.546C48.6454 24.546 48.2628 24.6487 47.9081 24.854C47.5534 25.05 47.2641 25.344 47.0401 25.736C46.8254 26.1187 46.7181 26.576 46.7181 27.108C46.7181 27.64 46.8254 28.1067 47.0401 28.508C47.2641 28.9093 47.5534 29.2173 47.9081 29.432C48.2721 29.6373 48.6548 29.74 49.0561 29.74C49.4668 29.74 49.8494 29.6373 50.2041 29.432C50.5588 29.2267 50.8434 28.928 51.0581 28.536C51.2821 28.1347 51.3941 27.668 51.3941 27.136ZM57.3624 24.588V28.858C57.3624 29.1473 57.4277 29.3573 57.5584 29.488C57.6984 29.6093 57.9317 29.67 58.2584 29.67H59.2384V31H57.9784C57.2597 31 56.7091 30.832 56.3264 30.496C55.9437 30.16 55.7524 29.614 55.7524 28.858V24.588H54.8424V23.286H55.7524V21.368H57.3624V23.286H59.2384V24.588H57.3624ZM60.5774 27.136C60.5774 26.3427 60.736 25.6473 61.0534 25.05C61.38 24.4433 61.828 23.9767 62.3974 23.65C62.9667 23.3233 63.62 23.16 64.3574 23.16C65.2907 23.16 66.0607 23.384 66.6674 23.832C67.2834 24.2707 67.6987 24.9007 67.9134 25.722H66.1914C66.0514 25.3393 65.8274 25.0407 65.5194 24.826C65.2114 24.6113 64.824 24.504 64.3574 24.504C63.704 24.504 63.1814 24.7373 62.7894 25.204C62.4067 25.6613 62.2154 26.3053 62.2154 27.136C62.2154 27.9667 62.4067 28.6153 62.7894 29.082C63.1814 29.5487 63.704 29.782 64.3574 29.782C65.2814 29.782 65.8927 29.376 66.1914 28.564H67.9134C67.6894 29.348 67.2694 29.9733 66.6534 30.44C66.0374 30.8973 65.272 31.126 64.3574 31.126C63.62 31.126 62.9667 30.9627 62.3974 30.636C61.828 30.3 61.38 29.8333 61.0534 29.236C60.736 28.6293 60.5774 27.9293 60.5774 27.136ZM73.8939 23.16C74.4819 23.16 75.0046 23.286 75.4619 23.538C75.9286 23.79 76.2926 24.1633 76.5539 24.658C76.8246 25.1527 76.9599 25.75 76.9599 26.45V31H75.3779V26.688C75.3779 25.9973 75.2052 25.47 74.8599 25.106C74.5146 24.7327 74.0432 24.546 73.4459 24.546C72.8486 24.546 72.3726 24.7327 72.0179 25.106C71.6726 25.47 71.4999 25.9973 71.4999 26.688V31H69.9039V20.64H71.4999V24.182C71.7706 23.8553 72.1112 23.6033 72.5219 23.426C72.9419 23.2487 73.3992 23.16 73.8939 23.16ZM82.1957 31.126C81.589 31.126 81.043 31.0187 80.5577 30.804C80.0817 30.58 79.7037 30.2813 79.4237 29.908C79.1437 29.5253 78.9944 29.1007 78.9757 28.634H80.6277C80.6557 28.9607 80.8097 29.236 81.0897 29.46C81.379 29.6747 81.7384 29.782 82.1677 29.782C82.6157 29.782 82.961 29.698 83.2037 29.53C83.4557 29.3527 83.5817 29.1287 83.5817 28.858C83.5817 28.5687 83.4417 28.354 83.1617 28.214C82.891 28.074 82.457 27.92 81.8597 27.752C81.281 27.5933 80.8097 27.4393 80.4457 27.29C80.0817 27.1407 79.7644 26.912 79.4937 26.604C79.2324 26.296 79.1017 25.89 79.1017 25.386C79.1017 24.9753 79.223 24.602 79.4657 24.266C79.7084 23.9207 80.0537 23.65 80.5017 23.454C80.959 23.258 81.4817 23.16 82.0697 23.16C82.947 23.16 83.6517 23.384 84.1837 23.832C84.725 24.2707 85.0144 24.8727 85.0517 25.638H83.4557C83.4277 25.2927 83.2877 25.0173 83.0357 24.812C82.7837 24.6067 82.443 24.504 82.0137 24.504C81.5937 24.504 81.2717 24.5833 81.0477 24.742C80.8237 24.9007 80.7117 25.1107 80.7117 25.372C80.7117 25.5773 80.7864 25.75 80.9357 25.89C81.085 26.03 81.267 26.142 81.4817 26.226C81.6964 26.3007 82.0137 26.3987 82.4337 26.52C82.9937 26.6693 83.451 26.8233 83.8057 26.982C84.1697 27.1313 84.4824 27.3553 84.7437 27.654C85.005 27.9527 85.1404 28.3493 85.1497 28.844C85.1497 29.2827 85.0284 29.6747 84.7857 30.02C84.543 30.3653 84.1977 30.636 83.7497 30.832C83.311 31.028 82.793 31.126 82.1957 31.126Z" fill="#5C6468"/>
</svg>
