<svg width="11" height="11" viewBox="0 0 11 11" fill="none" xmlns="http://www.w3.org/2000/svg">
<path d="M2.41112 5.99157C1.51882 5.44623 0.928223 4.49736 0.928223 3.41807C0.928223 1.72691 2.37827 0.355957 4.167 0.355957C5.67614 0.355957 6.9442 1.33183 7.30374 2.65254H8.62032C9.73827 2.65254 10.6446 3.50939 10.6446 4.56637C10.6446 5.62334 9.73827 6.48019 8.62032 6.48019H3.76215C3.24297 6.48019 2.76943 6.29539 2.41112 5.99157Z" fill="#446285"/>
<path d="M7.34191 8.438H6.28582V7.41338C6.28582 7.27245 6.16498 7.1582 6.01592 7.1582L5.46354 7.1582C5.31448 7.1582 5.19365 7.27245 5.19365 7.41338V8.438L4.13755 8.438C3.98849 8.438 3.86765 8.55225 3.86765 8.69318C3.86765 8.75356 3.8903 8.81198 3.93156 8.85806L5.53375 10.6472C5.63006 10.7547 5.80037 10.7681 5.91413 10.677C5.92551 10.6679 5.93608 10.6579 5.94572 10.6472L7.5479 8.85806C7.64422 8.75051 7.63007 8.58949 7.51631 8.49843C7.46757 8.45941 7.40578 8.438 7.34191 8.438Z" fill="#446285"/>
</svg>
