<svg width="767" height="319" viewBox="0 0 767 319" fill="none" xmlns="http://www.w3.org/2000/svg">
<rect x="294.704" y="0.785156" width="33.0228" height="210.896" rx="16.5114" fill="url(#paint0_linear_50_858)"/>
<rect x="309.713" y="15.7974" width="3.00208" height="180.875" rx="1.50104" fill="#343DA6"/>
<circle cx="311.214" cy="193.67" r="5.25363" fill="white"/>
<circle cx="311.214" cy="21.051" r="5.25363" fill="#343DA6"/>
<path opacity="0.08" d="M144.344 35.5742V189.256" stroke="#446285" stroke-width="1.47" stroke-linecap="square" stroke-dasharray="6.01"/>
<path opacity="0.08" d="M191.344 35.5742V189.256" stroke="#446285" stroke-width="1.47" stroke-linecap="square" stroke-dasharray="6.01"/>
<path opacity="0.08" d="M97.3439 35.5742V189.256" stroke="#446285" stroke-width="1.47" stroke-linecap="square" stroke-dasharray="6.01"/>
<path opacity="0.08" d="M50.3439 35.5742V189.256" stroke="#446285" stroke-width="1.47" stroke-linecap="square" stroke-dasharray="6.01"/>
<path opacity="0.08" d="M285.344 35.5742V189.256" stroke="#446285" stroke-width="1.47" stroke-linecap="square" stroke-dasharray="6.01"/>
<path opacity="0.08" d="M332.344 35.5742V189.256" stroke="#446285" stroke-width="1.47" stroke-linecap="square" stroke-dasharray="6.01"/>
<path opacity="0.08" d="M238.344 35.5742V189.256" stroke="#446285" stroke-width="1.47" stroke-linecap="square" stroke-dasharray="6.01"/>
<path opacity="0.08" d="M426.344 35.5742V189.256" stroke="#446285" stroke-width="1.47" stroke-linecap="square" stroke-dasharray="6.01"/>
<path opacity="0.08" d="M473.344 35.5742V189.256" stroke="#446285" stroke-width="1.47" stroke-linecap="square" stroke-dasharray="6.01"/>
<path opacity="0.08" d="M379.344 35.5742V189.256" stroke="#446285" stroke-width="1.47" stroke-linecap="square" stroke-dasharray="6.01"/>
<path d="M508.194 35.5742V189.256" stroke="white" stroke-opacity="0.130791" stroke-width="1.47" stroke-linecap="square" stroke-dasharray="6.01"/>
<path opacity="0.08" d="M520.344 35.5742V189.256" stroke="#446285" stroke-width="1.47" stroke-linecap="square" stroke-dasharray="6.01"/>
<path opacity="0.08" d="M567.344 35.5742V189.256" stroke="#446285" stroke-width="1.47" stroke-linecap="square" stroke-dasharray="6.01"/>
<path opacity="0.08" d="M614.344 35.5742V189.256" stroke="#446285" stroke-width="1.47" stroke-linecap="square" stroke-dasharray="6.01"/>
<path opacity="0.08" d="M661.344 35.5742V189.256" stroke="#446285" stroke-width="1.47" stroke-linecap="square" stroke-dasharray="6.01"/>
<path opacity="0.08" d="M708.344 35.5742V189.256" stroke="#446285" stroke-width="1.47" stroke-linecap="square" stroke-dasharray="6.01"/>
<path opacity="0.08" d="M755.344 35.5742V189.256" stroke="#446285" stroke-width="1.47" stroke-linecap="square" stroke-dasharray="6.01"/>
<path d="M590.752 35.5742V189.256" stroke="white" stroke-opacity="0.130791" stroke-width="1.47" stroke-linecap="square" stroke-dasharray="6.01"/>
<path fill-rule="evenodd" clip-rule="evenodd" d="M50.0244 202.161C56.9907 206.847 63.0523 199.785 67.9378 197.884C72.8232 195.983 77.2896 197.903 90.7366 200.26C104.184 202.618 98.879 211.075 111.093 205.45C123.306 199.825 130.635 212.915 130.635 212.915C130.635 212.915 137.733 233.19 151.088 217.47C164.444 201.749 172.975 212.915 181.118 216.418C189.26 219.922 196.588 222.597 209.616 215.943C216.13 213.092 250.782 197.122 275.01 200.26C304.068 204.024 302.813 258.482 328.533 258.482C354.253 258.482 355.121 217.396 376.732 205.45C398.344 193.504 428.963 196.24 447.334 222.915C465.705 249.591 484.421 238.278 487.751 226.335C491.081 214.393 513.329 188.094 534.825 198.597C556.321 209.1 554.041 210.24 581.725 203.349C609.41 196.458 604.044 226.707 619.995 233.489C635.946 240.271 661.705 206.43 687.973 217.687C714.242 228.945 756.271 240.953 757.764 224.248C757.764 204.003 757.764 187.307 757.764 187.307L50.0244 185.835C50.0244 185.835 50.0244 194 50.0244 202.161Z" fill="#E0D9F8"/>
<path fill-rule="evenodd" clip-rule="evenodd" d="M50.0324 141.883C50.0324 141.883 55.286 154.641 62.7912 153.14C70.2964 151.639 68.4501 164.134 78.5521 160.646C88.6542 157.157 87.5584 147.887 95.9021 152.765C104.246 157.644 110.074 117.866 120.581 117.866C131.088 117.866 139.344 153.14 150.602 144.885C161.86 136.629 199.196 157.785 217.398 153.14C239.228 147.57 244.417 89.3463 258.677 89.3463C272.936 89.3463 286.47 135.128 295.464 152.765C304.458 170.402 311.313 184.049 338.232 135.878C352.491 110.361 374.257 133.627 383.263 130.625C392.269 127.623 398.854 116.74 403.527 117.866C417.936 121.337 423.542 147.13 435.799 153.14C456.597 163.338 465.82 123.12 481.581 123.12C497.342 123.12 507.849 188.415 526.612 112.612C545.375 36.81 549.936 34.5355 576.897 121.619C585.46 150.454 589.655 117.116 603.915 102.105C614.913 90.5286 619.258 117.006 630.934 118.617C652.699 121.619 650.001 110.619 665.458 127.623C690.67 155.358 712.74 69.0823 719.495 69.0823C726.25 69.0823 726.078 82.4783 740.51 98.3525C748.015 106.608 751.288 103.084 757.764 109.105C757.597 121.413 757.764 188.577 757.764 188.577L50.0244 190.336L50.0324 141.883Z" fill="#662CFA"/>
<path opacity="0.15" fill-rule="evenodd" clip-rule="evenodd" d="M662.793 64.73H766.365V255.362H662.793V64.73Z" fill="#F6F8FA"/>
<path d="M648.444 312.339C647.539 312.339 646.713 312.129 645.966 311.709C645.22 311.28 644.627 310.687 644.188 309.931C643.759 309.166 643.544 308.307 643.544 307.355C643.544 306.403 643.759 305.549 644.188 304.793C644.627 304.028 645.22 303.435 645.966 303.015C646.713 302.586 647.539 302.371 648.444 302.371C649.359 302.371 650.19 302.586 650.936 303.015C651.683 303.435 652.271 304.023 652.7 304.779C653.13 305.535 653.344 306.394 653.344 307.355C653.344 308.317 653.13 309.175 652.7 309.931C652.271 310.687 651.683 311.28 650.936 311.709C650.19 312.129 649.359 312.339 648.444 312.339ZM648.444 311.233C649.126 311.233 649.737 311.075 650.278 310.757C650.829 310.44 651.258 309.987 651.566 309.399C651.884 308.811 652.042 308.13 652.042 307.355C652.042 306.571 651.884 305.89 651.566 305.311C651.258 304.723 650.834 304.271 650.292 303.953C649.751 303.636 649.135 303.477 648.444 303.477C647.754 303.477 647.138 303.636 646.596 303.953C646.055 304.271 645.626 304.723 645.308 305.311C645 305.89 644.846 306.571 644.846 307.355C644.846 308.13 645 308.811 645.308 309.399C645.626 309.987 646.055 310.44 646.596 310.757C647.147 311.075 647.763 311.233 648.444 311.233ZM654.55 308.391C654.55 307.598 654.709 306.907 655.026 306.319C655.344 305.722 655.782 305.26 656.342 304.933C656.912 304.607 657.56 304.443 658.288 304.443C659.231 304.443 660.006 304.672 660.612 305.129C661.228 305.587 661.634 306.221 661.83 307.033H660.458C660.328 306.567 660.071 306.198 659.688 305.927C659.315 305.657 658.848 305.521 658.288 305.521C657.56 305.521 656.972 305.773 656.524 306.277C656.076 306.772 655.852 307.477 655.852 308.391C655.852 309.315 656.076 310.029 656.524 310.533C656.972 311.037 657.56 311.289 658.288 311.289C658.848 311.289 659.315 311.159 659.688 310.897C660.062 310.636 660.318 310.263 660.458 309.777H661.83C661.625 310.561 661.214 311.191 660.598 311.667C659.982 312.134 659.212 312.367 658.288 312.367C657.56 312.367 656.912 312.204 656.342 311.877C655.782 311.551 655.344 311.089 655.026 310.491C654.709 309.894 654.55 309.194 654.55 308.391ZM665.084 305.619V310.141C665.084 310.515 665.163 310.781 665.322 310.939C665.481 311.089 665.756 311.163 666.148 311.163H667.086V312.241H665.938C665.229 312.241 664.697 312.078 664.342 311.751C663.987 311.425 663.81 310.888 663.81 310.141V305.619H662.816V304.569H663.81V302.637H665.084V304.569H667.086V305.619H665.084Z" fill="#99A4BB"/>
<path d="M581.821 312.339C581.177 312.339 580.598 312.227 580.085 312.003C579.581 311.77 579.184 311.453 578.895 311.051C578.606 310.641 578.456 310.169 578.447 309.637H579.805C579.852 310.095 580.038 310.482 580.365 310.799C580.701 311.107 581.186 311.261 581.821 311.261C582.428 311.261 582.904 311.112 583.249 310.813C583.604 310.505 583.781 310.113 583.781 309.637C583.781 309.264 583.678 308.961 583.473 308.727C583.268 308.494 583.011 308.317 582.703 308.195C582.395 308.074 581.98 307.943 581.457 307.803C580.813 307.635 580.295 307.467 579.903 307.299C579.52 307.131 579.189 306.87 578.909 306.515C578.638 306.151 578.503 305.666 578.503 305.059C578.503 304.527 578.638 304.056 578.909 303.645C579.18 303.235 579.558 302.917 580.043 302.693C580.538 302.469 581.102 302.357 581.737 302.357C582.652 302.357 583.398 302.586 583.977 303.043C584.565 303.501 584.896 304.107 584.971 304.863H583.571C583.524 304.49 583.328 304.163 582.983 303.883C582.638 303.594 582.18 303.449 581.611 303.449C581.079 303.449 580.645 303.589 580.309 303.869C579.973 304.14 579.805 304.523 579.805 305.017C579.805 305.372 579.903 305.661 580.099 305.885C580.304 306.109 580.552 306.282 580.841 306.403C581.14 306.515 581.555 306.646 582.087 306.795C582.731 306.973 583.249 307.15 583.641 307.327C584.033 307.495 584.369 307.761 584.649 308.125C584.929 308.48 585.069 308.965 585.069 309.581C585.069 310.057 584.943 310.505 584.691 310.925C584.439 311.345 584.066 311.686 583.571 311.947C583.076 312.209 582.493 312.339 581.821 312.339ZM593.944 308.111C593.944 308.354 593.93 308.611 593.902 308.881H587.77C587.816 309.637 588.073 310.23 588.54 310.659C589.016 311.079 589.59 311.289 590.262 311.289C590.812 311.289 591.27 311.163 591.634 310.911C592.007 310.65 592.268 310.305 592.418 309.875H593.79C593.584 310.613 593.174 311.215 592.558 311.681C591.942 312.139 591.176 312.367 590.262 312.367C589.534 312.367 588.88 312.204 588.302 311.877C587.732 311.551 587.284 311.089 586.958 310.491C586.631 309.885 586.468 309.185 586.468 308.391C586.468 307.598 586.626 306.903 586.944 306.305C587.261 305.708 587.704 305.251 588.274 304.933C588.852 304.607 589.515 304.443 590.262 304.443C590.99 304.443 591.634 304.602 592.194 304.919C592.754 305.237 593.183 305.675 593.482 306.235C593.79 306.786 593.944 307.411 593.944 308.111ZM592.628 307.845C592.628 307.36 592.52 306.945 592.306 306.599C592.091 306.245 591.797 305.979 591.424 305.801C591.06 305.615 590.654 305.521 590.206 305.521C589.562 305.521 589.011 305.727 588.554 306.137C588.106 306.548 587.849 307.117 587.784 307.845H592.628ZM596.899 305.983C597.151 305.545 597.525 305.181 598.019 304.891C598.523 304.593 599.107 304.443 599.769 304.443C600.451 304.443 601.067 304.607 601.617 304.933C602.177 305.26 602.616 305.722 602.933 306.319C603.251 306.907 603.409 307.593 603.409 308.377C603.409 309.152 603.251 309.843 602.933 310.449C602.616 311.056 602.177 311.527 601.617 311.863C601.067 312.199 600.451 312.367 599.769 312.367C599.116 312.367 598.537 312.223 598.033 311.933C597.539 311.635 597.161 311.266 596.899 310.827V315.881H595.625V304.569H596.899V305.983ZM602.107 308.377C602.107 307.799 601.991 307.295 601.757 306.865C601.524 306.436 601.207 306.109 600.805 305.885C600.413 305.661 599.979 305.549 599.503 305.549C599.037 305.549 598.603 305.666 598.201 305.899C597.809 306.123 597.492 306.455 597.249 306.893C597.016 307.323 596.899 307.822 596.899 308.391C596.899 308.97 597.016 309.479 597.249 309.917C597.492 310.347 597.809 310.678 598.201 310.911C598.603 311.135 599.037 311.247 599.503 311.247C599.979 311.247 600.413 311.135 600.805 310.911C601.207 310.678 601.524 310.347 601.757 309.917C601.991 309.479 602.107 308.965 602.107 308.377Z" fill="#99A4BB"/>
<path d="M516.948 310.071H512.692L511.908 312.241H510.564L514.092 302.539H515.562L519.076 312.241H517.732L516.948 310.071ZM516.584 309.035L514.82 304.107L513.056 309.035H516.584ZM527.418 304.569V312.241H526.144V311.107C525.901 311.499 525.56 311.807 525.122 312.031C524.692 312.246 524.216 312.353 523.694 312.353C523.096 312.353 522.56 312.232 522.084 311.989C521.608 311.737 521.23 311.364 520.95 310.869C520.679 310.375 520.544 309.773 520.544 309.063V304.569H521.804V308.895C521.804 309.651 521.995 310.235 522.378 310.645C522.76 311.047 523.283 311.247 523.946 311.247C524.627 311.247 525.164 311.037 525.556 310.617C525.948 310.197 526.144 309.586 526.144 308.783V304.569H527.418ZM532.733 304.443C533.395 304.443 533.974 304.588 534.469 304.877C534.973 305.167 535.346 305.531 535.589 305.969V304.569H536.877V312.409C536.877 313.109 536.727 313.73 536.429 314.271C536.13 314.822 535.701 315.251 535.141 315.559C534.59 315.867 533.946 316.021 533.209 316.021C532.201 316.021 531.361 315.783 530.689 315.307C530.017 314.831 529.62 314.183 529.499 313.361H530.759C530.899 313.828 531.188 314.201 531.627 314.481C532.065 314.771 532.593 314.915 533.209 314.915C533.909 314.915 534.478 314.696 534.917 314.257C535.365 313.819 535.589 313.203 535.589 312.409V310.799C535.337 311.247 534.963 311.621 534.469 311.919C533.974 312.218 533.395 312.367 532.733 312.367C532.051 312.367 531.431 312.199 530.871 311.863C530.32 311.527 529.886 311.056 529.569 310.449C529.251 309.843 529.093 309.152 529.093 308.377C529.093 307.593 529.251 306.907 529.569 306.319C529.886 305.722 530.32 305.26 530.871 304.933C531.431 304.607 532.051 304.443 532.733 304.443ZM535.589 308.391C535.589 307.813 535.472 307.309 535.239 306.879C535.005 306.45 534.688 306.123 534.287 305.899C533.895 305.666 533.461 305.549 532.985 305.549C532.509 305.549 532.075 305.661 531.683 305.885C531.291 306.109 530.978 306.436 530.745 306.865C530.511 307.295 530.395 307.799 530.395 308.377C530.395 308.965 530.511 309.479 530.745 309.917C530.978 310.347 531.291 310.678 531.683 310.911C532.075 311.135 532.509 311.247 532.985 311.247C533.461 311.247 533.895 311.135 534.287 310.911C534.688 310.678 535.005 310.347 535.239 309.917C535.472 309.479 535.589 308.97 535.589 308.391Z" fill="#99A4BB"/>
<path d="M455.302 302.483V309.693C455.302 310.496 455.054 311.14 454.56 311.625C454.065 312.101 453.412 312.339 452.6 312.339C451.778 312.339 451.12 312.097 450.626 311.611C450.131 311.117 449.884 310.445 449.884 309.595H451.158C451.167 310.071 451.288 310.459 451.522 310.757C451.764 311.056 452.124 311.205 452.6 311.205C453.076 311.205 453.43 311.065 453.664 310.785C453.897 310.496 454.014 310.132 454.014 309.693V302.483H455.302ZM464.615 304.569V312.241H463.341V311.107C463.099 311.499 462.758 311.807 462.319 312.031C461.89 312.246 461.414 312.353 460.891 312.353C460.294 312.353 459.757 312.232 459.281 311.989C458.805 311.737 458.427 311.364 458.147 310.869C457.877 310.375 457.741 309.773 457.741 309.063V304.569H459.001V308.895C459.001 309.651 459.193 310.235 459.575 310.645C459.958 311.047 460.481 311.247 461.143 311.247C461.825 311.247 462.361 311.037 462.753 310.617C463.145 310.197 463.341 309.586 463.341 308.783V304.569H464.615ZM468.04 301.881V312.241H466.766V301.881H468.04Z" fill="#99A4BB"/>
<path d="M390.756 302.483V309.693C390.756 310.496 390.509 311.14 390.014 311.625C389.519 312.101 388.866 312.339 388.054 312.339C387.233 312.339 386.575 312.097 386.08 311.611C385.585 311.117 385.338 310.445 385.338 309.595H386.612C386.621 310.071 386.743 310.459 386.976 310.757C387.219 311.056 387.578 311.205 388.054 311.205C388.53 311.205 388.885 311.065 389.118 310.785C389.351 310.496 389.468 310.132 389.468 309.693V302.483H390.756ZM400.07 304.569V312.241H398.796V311.107C398.553 311.499 398.213 311.807 397.774 312.031C397.345 312.246 396.869 312.353 396.346 312.353C395.749 312.353 395.212 312.232 394.736 311.989C394.26 311.737 393.882 311.364 393.602 310.869C393.331 310.375 393.196 309.773 393.196 309.063V304.569H394.456V308.895C394.456 309.651 394.647 310.235 395.03 310.645C395.413 311.047 395.935 311.247 396.598 311.247C397.279 311.247 397.816 311.037 398.208 310.617C398.6 310.197 398.796 309.586 398.796 308.783V304.569H400.07ZM405.959 304.429C406.892 304.429 407.648 304.714 408.227 305.283C408.806 305.843 409.095 306.655 409.095 307.719V312.241H407.835V307.901C407.835 307.136 407.644 306.553 407.261 306.151C406.878 305.741 406.356 305.535 405.693 305.535C405.021 305.535 404.484 305.745 404.083 306.165C403.691 306.585 403.495 307.197 403.495 307.999V312.241H402.221V304.569H403.495V305.661C403.747 305.269 404.088 304.966 404.517 304.751C404.956 304.537 405.436 304.429 405.959 304.429Z" fill="#99A4BB"/>
<path d="M328.945 302.553V312.241H327.671V305.017L324.451 312.241H323.555L320.321 305.003V312.241H319.047V302.553H320.419L324.003 310.561L327.587 302.553H328.945ZM330.63 308.377C330.63 307.593 330.788 306.907 331.106 306.319C331.423 305.722 331.857 305.26 332.408 304.933C332.968 304.607 333.588 304.443 334.27 304.443C334.942 304.443 335.525 304.588 336.02 304.877C336.514 305.167 336.883 305.531 337.126 305.969V304.569H338.414V312.241H337.126V310.813C336.874 311.261 336.496 311.635 335.992 311.933C335.497 312.223 334.918 312.367 334.256 312.367C333.574 312.367 332.958 312.199 332.408 311.863C331.857 311.527 331.423 311.056 331.106 310.449C330.788 309.843 330.63 309.152 330.63 308.377ZM337.126 308.391C337.126 307.813 337.009 307.309 336.776 306.879C336.542 306.45 336.225 306.123 335.824 305.899C335.432 305.666 334.998 305.549 334.522 305.549C334.046 305.549 333.612 305.661 333.22 305.885C332.828 306.109 332.515 306.436 332.282 306.865C332.048 307.295 331.932 307.799 331.932 308.377C331.932 308.965 332.048 309.479 332.282 309.917C332.515 310.347 332.828 310.678 333.22 310.911C333.612 311.135 334.046 311.247 334.522 311.247C334.998 311.247 335.432 311.135 335.824 310.911C336.225 310.678 336.542 310.347 336.776 309.917C337.009 309.479 337.126 308.97 337.126 308.391ZM347.175 304.569L342.555 315.853H341.239L342.751 312.157L339.657 304.569H341.071L343.479 310.785L345.859 304.569H347.175Z" fill="#99A4BB"/>
<path d="M263.272 310.071H259.016L258.232 312.241H256.888L260.416 302.539H261.886L265.4 312.241H264.056L263.272 310.071ZM262.908 309.035L261.144 304.107L259.38 309.035H262.908ZM268.212 305.815C268.436 305.377 268.753 305.036 269.164 304.793C269.584 304.551 270.093 304.429 270.69 304.429V305.745H270.354C268.926 305.745 268.212 306.52 268.212 308.069V312.241H266.938V304.569H268.212V305.815ZM273.435 301.881V312.241H272.161V301.881H273.435Z" fill="#99A4BB"/>
<path d="M202.105 302.553V312.241H200.831V305.017L197.611 312.241H196.715L193.481 305.003V312.241H192.207V302.553H193.579L197.163 310.561L200.747 302.553H202.105ZM203.79 308.377C203.79 307.593 203.949 306.907 204.266 306.319C204.583 305.722 205.017 305.26 205.568 304.933C206.128 304.607 206.749 304.443 207.43 304.443C208.102 304.443 208.685 304.588 209.18 304.877C209.675 305.167 210.043 305.531 210.286 305.969V304.569H211.574V312.241H210.286V310.813C210.034 311.261 209.656 311.635 209.152 311.933C208.657 312.223 208.079 312.367 207.416 312.367C206.735 312.367 206.119 312.199 205.568 311.863C205.017 311.527 204.583 311.056 204.266 310.449C203.949 309.843 203.79 309.152 203.79 308.377ZM210.286 308.391C210.286 307.813 210.169 307.309 209.936 306.879C209.703 306.45 209.385 306.123 208.984 305.899C208.592 305.666 208.158 305.549 207.682 305.549C207.206 305.549 206.772 305.661 206.38 305.885C205.988 306.109 205.675 306.436 205.442 306.865C205.209 307.295 205.092 307.799 205.092 308.377C205.092 308.965 205.209 309.479 205.442 309.917C205.675 310.347 205.988 310.678 206.38 310.911C206.772 311.135 207.206 311.247 207.682 311.247C208.158 311.247 208.592 311.135 208.984 310.911C209.385 310.678 209.703 310.347 209.936 309.917C210.169 309.479 210.286 308.97 210.286 308.391ZM215.001 305.815C215.225 305.377 215.542 305.036 215.953 304.793C216.373 304.551 216.882 304.429 217.479 304.429V305.745H217.143C215.715 305.745 215.001 306.52 215.001 308.069V312.241H213.727V304.569H215.001V305.815Z" fill="#99A4BB"/>
<path d="M133.18 302.483V303.519H128.938V306.809H132.382V307.845H128.938V312.241H127.664V302.483H133.18ZM141.719 308.111C141.719 308.354 141.705 308.611 141.677 308.881H135.545C135.592 309.637 135.848 310.23 136.315 310.659C136.791 311.079 137.365 311.289 138.037 311.289C138.588 311.289 139.045 311.163 139.409 310.911C139.782 310.65 140.044 310.305 140.193 309.875H141.565C141.36 310.613 140.949 311.215 140.333 311.681C139.717 312.139 138.952 312.367 138.037 312.367C137.309 312.367 136.656 312.204 136.077 311.877C135.508 311.551 135.06 311.089 134.733 310.491C134.406 309.885 134.243 309.185 134.243 308.391C134.243 307.598 134.402 306.903 134.719 306.305C135.036 305.708 135.48 305.251 136.049 304.933C136.628 304.607 137.29 304.443 138.037 304.443C138.765 304.443 139.409 304.602 139.969 304.919C140.529 305.237 140.958 305.675 141.257 306.235C141.565 306.786 141.719 307.411 141.719 308.111ZM140.403 307.845C140.403 307.36 140.296 306.945 140.081 306.599C139.866 306.245 139.572 305.979 139.199 305.801C138.835 305.615 138.429 305.521 137.981 305.521C137.337 305.521 136.786 305.727 136.329 306.137C135.881 306.548 135.624 307.117 135.559 307.845H140.403ZM144.675 305.997C144.936 305.54 145.319 305.167 145.823 304.877C146.327 304.588 146.901 304.443 147.545 304.443C148.235 304.443 148.856 304.607 149.407 304.933C149.957 305.26 150.391 305.722 150.709 306.319C151.026 306.907 151.185 307.593 151.185 308.377C151.185 309.152 151.026 309.843 150.709 310.449C150.391 311.056 149.953 311.527 149.393 311.863C148.842 312.199 148.226 312.367 147.545 312.367C146.882 312.367 146.299 312.223 145.795 311.933C145.3 311.644 144.927 311.275 144.675 310.827V312.241H143.401V301.881H144.675V305.997ZM149.883 308.377C149.883 307.799 149.766 307.295 149.533 306.865C149.299 306.436 148.982 306.109 148.581 305.885C148.189 305.661 147.755 305.549 147.279 305.549C146.812 305.549 146.378 305.666 145.977 305.899C145.585 306.123 145.267 306.455 145.025 306.893C144.791 307.323 144.675 307.822 144.675 308.391C144.675 308.97 144.791 309.479 145.025 309.917C145.267 310.347 145.585 310.678 145.977 310.911C146.378 311.135 146.812 311.247 147.279 311.247C147.755 311.247 148.189 311.135 148.581 310.911C148.982 310.678 149.299 310.347 149.533 309.917C149.766 309.479 149.883 308.965 149.883 308.377Z" fill="#99A4BB"/>
<path d="M68.4085 302.483V309.693C68.4085 310.496 68.1612 311.14 67.6665 311.625C67.1718 312.101 66.5185 312.339 65.7065 312.339C64.8852 312.339 64.2272 312.097 63.7325 311.611C63.2378 311.117 62.9905 310.445 62.9905 309.595H64.2645C64.2738 310.071 64.3952 310.459 64.6285 310.757C64.8712 311.056 65.2305 311.205 65.7065 311.205C66.1825 311.205 66.5372 311.065 66.7705 310.785C67.0038 310.496 67.1205 310.132 67.1205 309.693V302.483H68.4085ZM70.4423 308.377C70.4423 307.593 70.601 306.907 70.9183 306.319C71.2357 305.722 71.6697 305.26 72.2203 304.933C72.7803 304.607 73.401 304.443 74.0823 304.443C74.7543 304.443 75.3377 304.588 75.8323 304.877C76.327 305.167 76.6957 305.531 76.9383 305.969V304.569H78.2263V312.241H76.9383V310.813C76.6863 311.261 76.3083 311.635 75.8043 311.933C75.3097 312.223 74.731 312.367 74.0683 312.367C73.387 312.367 72.771 312.199 72.2203 311.863C71.6697 311.527 71.2357 311.056 70.9183 310.449C70.601 309.843 70.4423 309.152 70.4423 308.377ZM76.9383 308.391C76.9383 307.813 76.8217 307.309 76.5883 306.879C76.355 306.45 76.0377 306.123 75.6363 305.899C75.2443 305.666 74.8103 305.549 74.3343 305.549C73.8583 305.549 73.4243 305.661 73.0323 305.885C72.6403 306.109 72.3277 306.436 72.0943 306.865C71.861 307.295 71.7443 307.799 71.7443 308.377C71.7443 308.965 71.861 309.479 72.0943 309.917C72.3277 310.347 72.6403 310.678 73.0323 310.911C73.4243 311.135 73.8583 311.247 74.3343 311.247C74.8103 311.247 75.2443 311.135 75.6363 310.911C76.0377 310.678 76.355 310.347 76.5883 309.917C76.8217 309.479 76.9383 308.97 76.9383 308.391ZM84.1173 304.429C85.0506 304.429 85.8066 304.714 86.3853 305.283C86.9639 305.843 87.2533 306.655 87.2533 307.719V312.241H85.9933V307.901C85.9933 307.136 85.8019 306.553 85.4193 306.151C85.0366 305.741 84.5139 305.535 83.8513 305.535C83.1793 305.535 82.6426 305.745 82.2413 306.165C81.8493 306.585 81.6533 307.197 81.6533 307.999V312.241H80.3793V304.569H81.6533V305.661C81.9053 305.269 82.2459 304.966 82.6753 304.751C83.1139 304.537 83.5946 304.429 84.1173 304.429Z" fill="#99A4BB"/>
<path d="M0.842547 72.0888V70.9268H3.47455V81.0488H2.18655V72.0888H0.842547ZM5.66292 75.8828C5.66292 74.2775 5.92426 73.0268 6.44692 72.1308C6.96959 71.2255 7.88426 70.7728 9.19092 70.7728C10.4883 70.7728 11.3983 71.2255 11.9209 72.1308C12.4436 73.0268 12.7049 74.2775 12.7049 75.8828C12.7049 77.5162 12.4436 78.7855 11.9209 79.6908C11.3983 80.5962 10.4883 81.0488 9.19092 81.0488C7.88426 81.0488 6.96959 80.5962 6.44692 79.6908C5.92426 78.7855 5.66292 77.5162 5.66292 75.8828ZM11.4449 75.8828C11.4449 75.0708 11.3889 74.3848 11.2769 73.8248C11.1743 73.2555 10.9549 72.7982 10.6189 72.4528C10.2923 72.1075 9.81626 71.9348 9.19092 71.9348C8.55626 71.9348 8.07092 72.1075 7.73492 72.4528C7.40826 72.7982 7.18892 73.2555 7.07692 73.8248C6.97426 74.3848 6.92292 75.0708 6.92292 75.8828C6.92292 76.7228 6.97426 77.4275 7.07692 77.9968C7.18892 78.5662 7.40826 79.0235 7.73492 79.3688C8.07092 79.7142 8.55626 79.8868 9.19092 79.8868C9.81626 79.8868 10.2923 79.7142 10.6189 79.3688C10.9549 79.0235 11.1743 78.5662 11.2769 77.9968C11.3889 77.4275 11.4449 76.7228 11.4449 75.8828ZM14.4539 75.8828C14.4539 74.2775 14.7153 73.0268 15.2379 72.1308C15.7606 71.2255 16.6753 70.7728 17.9819 70.7728C19.2793 70.7728 20.1893 71.2255 20.7119 72.1308C21.2346 73.0268 21.4959 74.2775 21.4959 75.8828C21.4959 77.5162 21.2346 78.7855 20.7119 79.6908C20.1893 80.5962 19.2793 81.0488 17.9819 81.0488C16.6753 81.0488 15.7606 80.5962 15.2379 79.6908C14.7153 78.7855 14.4539 77.5162 14.4539 75.8828ZM20.2359 75.8828C20.2359 75.0708 20.1799 74.3848 20.0679 73.8248C19.9653 73.2555 19.7459 72.7982 19.4099 72.4528C19.0833 72.1075 18.6073 71.9348 17.9819 71.9348C17.3473 71.9348 16.8619 72.1075 16.5259 72.4528C16.1993 72.7982 15.9799 73.2555 15.8679 73.8248C15.7653 74.3848 15.7139 75.0708 15.7139 75.8828C15.7139 76.7228 15.7653 77.4275 15.8679 77.9968C15.9799 78.5662 16.1993 79.0235 16.5259 79.3688C16.8619 79.7142 17.3473 79.8868 17.9819 79.8868C18.6073 79.8868 19.0833 79.7142 19.4099 79.3688C19.7459 79.0235 19.9653 78.5662 20.0679 77.9968C20.1799 77.4275 20.2359 76.7228 20.2359 75.8828ZM22.965 73.2088C22.965 72.5742 23.1563 72.0702 23.539 71.6968C23.9216 71.3142 24.4116 71.1228 25.009 71.1228C25.6063 71.1228 26.0963 71.3142 26.479 71.6968C26.8616 72.0702 27.053 72.5742 27.053 73.2088C27.053 73.8528 26.8616 74.3662 26.479 74.7488C26.0963 75.1222 25.6063 75.3088 25.009 75.3088C24.4116 75.3088 23.9216 75.1222 23.539 74.7488C23.1563 74.3662 22.965 73.8528 22.965 73.2088ZM31.141 71.2768L25.471 81.0488H24.211L29.881 71.2768H31.141ZM25.009 71.9068C24.6916 71.9068 24.4396 72.0188 24.253 72.2428C24.0756 72.4575 23.987 72.7795 23.987 73.2088C23.987 73.6382 24.0756 73.9648 24.253 74.1888C24.4396 74.4128 24.6916 74.5248 25.009 74.5248C25.3263 74.5248 25.5783 74.4128 25.765 74.1888C25.9516 73.9555 26.045 73.6288 26.045 73.2088C26.045 72.7795 25.9516 72.4575 25.765 72.2428C25.5783 72.0188 25.3263 71.9068 25.009 71.9068ZM28.327 79.1168C28.327 78.4728 28.5183 77.9642 28.901 77.5908C29.2836 77.2082 29.7736 77.0168 30.371 77.0168C30.9683 77.0168 31.4536 77.2082 31.827 77.5908C32.2096 77.9642 32.401 78.4728 32.401 79.1168C32.401 79.7515 32.2096 80.2602 31.827 80.6428C31.4536 81.0255 30.9683 81.2168 30.371 81.2168C29.7736 81.2168 29.2836 81.0302 28.901 80.6568C28.5183 80.2742 28.327 79.7608 28.327 79.1168ZM30.357 77.8148C30.0396 77.8148 29.7876 77.9268 29.601 78.1508C29.4143 78.3655 29.321 78.6875 29.321 79.1168C29.321 79.5368 29.4143 79.8588 29.601 80.0828C29.7876 80.2975 30.0396 80.4048 30.357 80.4048C30.6743 80.4048 30.9263 80.2975 31.113 80.0828C31.2996 79.8588 31.393 79.5368 31.393 79.1168C31.393 78.6875 31.2996 78.3655 31.113 78.1508C30.9263 77.9268 30.6743 77.8148 30.357 77.8148Z" fill="#99A4BB"/>
<path d="M13.0414 117.155L9.14936 126.283H7.86136L11.8094 117.281H6.40536V116.189H13.0414V117.155ZM20.9079 117.267H15.9939V120.459C16.2086 120.16 16.5259 119.917 16.9459 119.731C17.3659 119.535 17.8186 119.437 18.3039 119.437C19.0786 119.437 19.7086 119.6 20.1939 119.927C20.6793 120.244 21.0246 120.659 21.2299 121.173C21.4446 121.677 21.5519 122.213 21.5519 122.783C21.5519 123.455 21.4259 124.057 21.1739 124.589C20.9219 125.121 20.5346 125.541 20.0119 125.849C19.4986 126.157 18.8593 126.311 18.0939 126.311C17.1139 126.311 16.3206 126.059 15.7139 125.555C15.1073 125.051 14.7386 124.379 14.6079 123.539H15.8539C15.9753 124.071 16.2319 124.486 16.6239 124.785C17.0159 125.083 17.5106 125.233 18.1079 125.233C18.8453 125.233 19.4006 125.013 19.7739 124.575C20.1473 124.127 20.3339 123.539 20.3339 122.811C20.3339 122.083 20.1473 121.523 19.7739 121.131C19.4006 120.729 18.8499 120.529 18.1219 120.529C17.6273 120.529 17.1933 120.65 16.8199 120.893C16.4559 121.126 16.1899 121.448 16.0219 121.859H14.8179V116.147H20.9079V117.267ZM22.965 118.443C22.965 117.808 23.1563 117.304 23.539 116.931C23.9216 116.548 24.4116 116.357 25.009 116.357C25.6063 116.357 26.0963 116.548 26.479 116.931C26.8616 117.304 27.053 117.808 27.053 118.443C27.053 119.087 26.8616 119.6 26.479 119.983C26.0963 120.356 25.6063 120.543 25.009 120.543C24.4116 120.543 23.9216 120.356 23.539 119.983C23.1563 119.6 22.965 119.087 22.965 118.443ZM31.141 116.511L25.471 126.283H24.211L29.881 116.511H31.141ZM25.009 117.141C24.6916 117.141 24.4396 117.253 24.253 117.477C24.0756 117.691 23.987 118.013 23.987 118.443C23.987 118.872 24.0756 119.199 24.253 119.423C24.4396 119.647 24.6916 119.759 25.009 119.759C25.3263 119.759 25.5783 119.647 25.765 119.423C25.9516 119.189 26.045 118.863 26.045 118.443C26.045 118.013 25.9516 117.691 25.765 117.477C25.5783 117.253 25.3263 117.141 25.009 117.141ZM28.327 124.351C28.327 123.707 28.5183 123.198 28.901 122.825C29.2836 122.442 29.7736 122.251 30.371 122.251C30.9683 122.251 31.4536 122.442 31.827 122.825C32.2096 123.198 32.401 123.707 32.401 124.351C32.401 124.985 32.2096 125.494 31.827 125.877C31.4536 126.259 30.9683 126.451 30.371 126.451C29.7736 126.451 29.2836 126.264 28.901 125.891C28.5183 125.508 28.327 124.995 28.327 124.351ZM30.357 123.049C30.0396 123.049 29.7876 123.161 29.601 123.385C29.4143 123.599 29.321 123.921 29.321 124.351C29.321 124.771 29.4143 125.093 29.601 125.317C29.7876 125.531 30.0396 125.639 30.357 125.639C30.6743 125.639 30.9263 125.531 31.113 125.317C31.2996 125.093 31.393 124.771 31.393 124.351C31.393 123.921 31.2996 123.599 31.113 123.385C30.9263 123.161 30.6743 123.049 30.357 123.049Z" fill="#99A4BB"/>
<path d="M12.1169 162.497H7.20292V165.689C7.41759 165.391 7.73492 165.148 8.15492 164.961C8.57492 164.765 9.02759 164.667 9.51292 164.667C10.2876 164.667 10.9176 164.831 11.4029 165.157C11.8883 165.475 12.2336 165.89 12.4389 166.403C12.6536 166.907 12.7609 167.444 12.7609 168.013C12.7609 168.685 12.6349 169.287 12.3829 169.819C12.1309 170.351 11.7436 170.771 11.2209 171.079C10.7076 171.387 10.0683 171.541 9.30292 171.541C8.32292 171.541 7.52959 171.289 6.92292 170.785C6.31626 170.281 5.94759 169.609 5.81692 168.769H7.06292C7.18426 169.301 7.44092 169.717 7.83292 170.015C8.22492 170.314 8.71959 170.463 9.31692 170.463C10.0543 170.463 10.6096 170.244 10.9829 169.805C11.3563 169.357 11.5429 168.769 11.5429 168.041C11.5429 167.313 11.3563 166.753 10.9829 166.361C10.6096 165.96 10.0589 165.759 9.33092 165.759C8.83626 165.759 8.40226 165.881 8.02892 166.123C7.66492 166.357 7.39892 166.679 7.23092 167.089H6.02692V161.377H12.1169V162.497ZM14.4539 166.347C14.4539 164.742 14.7153 163.491 15.2379 162.595C15.7606 161.69 16.6753 161.237 17.9819 161.237C19.2793 161.237 20.1893 161.69 20.7119 162.595C21.2346 163.491 21.4959 164.742 21.4959 166.347C21.4959 167.981 21.2346 169.25 20.7119 170.155C20.1893 171.061 19.2793 171.513 17.9819 171.513C16.6753 171.513 15.7606 171.061 15.2379 170.155C14.7153 169.25 14.4539 167.981 14.4539 166.347ZM20.2359 166.347C20.2359 165.535 20.1799 164.849 20.0679 164.289C19.9653 163.72 19.7459 163.263 19.4099 162.917C19.0833 162.572 18.6073 162.399 17.9819 162.399C17.3473 162.399 16.8619 162.572 16.5259 162.917C16.1993 163.263 15.9799 163.72 15.8679 164.289C15.7653 164.849 15.7139 165.535 15.7139 166.347C15.7139 167.187 15.7653 167.892 15.8679 168.461C15.9799 169.031 16.1993 169.488 16.5259 169.833C16.8619 170.179 17.3473 170.351 17.9819 170.351C18.6073 170.351 19.0833 170.179 19.4099 169.833C19.7459 169.488 19.9653 169.031 20.0679 168.461C20.1799 167.892 20.2359 167.187 20.2359 166.347ZM22.965 163.673C22.965 163.039 23.1563 162.535 23.539 162.161C23.9216 161.779 24.4116 161.587 25.009 161.587C25.6063 161.587 26.0963 161.779 26.479 162.161C26.8616 162.535 27.053 163.039 27.053 163.673C27.053 164.317 26.8616 164.831 26.479 165.213C26.0963 165.587 25.6063 165.773 25.009 165.773C24.4116 165.773 23.9216 165.587 23.539 165.213C23.1563 164.831 22.965 164.317 22.965 163.673ZM31.141 161.741L25.471 171.513H24.211L29.881 161.741H31.141ZM25.009 162.371C24.6916 162.371 24.4396 162.483 24.253 162.707C24.0756 162.922 23.987 163.244 23.987 163.673C23.987 164.103 24.0756 164.429 24.253 164.653C24.4396 164.877 24.6916 164.989 25.009 164.989C25.3263 164.989 25.5783 164.877 25.765 164.653C25.9516 164.42 26.045 164.093 26.045 163.673C26.045 163.244 25.9516 162.922 25.765 162.707C25.5783 162.483 25.3263 162.371 25.009 162.371ZM28.327 169.581C28.327 168.937 28.5183 168.429 28.901 168.055C29.2836 167.673 29.7736 167.481 30.371 167.481C30.9683 167.481 31.4536 167.673 31.827 168.055C32.2096 168.429 32.401 168.937 32.401 169.581C32.401 170.216 32.2096 170.725 31.827 171.107C31.4536 171.49 30.9683 171.681 30.371 171.681C29.7736 171.681 29.2836 171.495 28.901 171.121C28.5183 170.739 28.327 170.225 28.327 169.581ZM30.357 168.279C30.0396 168.279 29.7876 168.391 29.601 168.615C29.4143 168.83 29.321 169.152 29.321 169.581C29.321 170.001 29.4143 170.323 29.601 170.547C29.7876 170.762 30.0396 170.869 30.357 170.869C30.6743 170.869 30.9263 170.762 31.113 170.547C31.2996 170.323 31.393 170.001 31.393 169.581C31.393 169.152 31.2996 168.83 31.113 168.615C30.9263 168.391 30.6743 168.279 30.357 168.279Z" fill="#99A4BB"/>
<path d="M6.2472 215.726C7.43254 214.774 8.3612 213.994 9.0332 213.388C9.7052 212.772 10.2699 212.132 10.7272 211.47C11.1939 210.798 11.4272 210.14 11.4272 209.496C11.4272 208.889 11.2779 208.413 10.9792 208.068C10.6899 207.713 10.2185 207.536 9.5652 207.536C8.93054 207.536 8.43587 207.736 8.0812 208.138C7.73587 208.53 7.5492 209.057 7.5212 209.72H6.2892C6.32654 208.674 6.64387 207.867 7.2412 207.298C7.83854 206.728 8.60854 206.444 9.5512 206.444C10.5125 206.444 11.2732 206.71 11.8332 207.242C12.4025 207.774 12.6872 208.506 12.6872 209.44C12.6872 210.214 12.4539 210.97 11.9872 211.708C11.5299 212.436 11.0072 213.08 10.4192 213.64C9.8312 214.19 9.07987 214.834 8.1652 215.572H12.9812V216.636H6.2472V215.726ZM20.9079 207.732H15.9939V210.924C16.2086 210.625 16.5259 210.382 16.9459 210.196C17.3659 210 17.8186 209.902 18.3039 209.902C19.0786 209.902 19.7086 210.065 20.1939 210.392C20.6793 210.709 21.0246 211.124 21.2299 211.638C21.4446 212.142 21.5519 212.678 21.5519 213.248C21.5519 213.92 21.4259 214.522 21.1739 215.054C20.9219 215.586 20.5346 216.006 20.0119 216.314C19.4986 216.622 18.8593 216.776 18.0939 216.776C17.1139 216.776 16.3206 216.524 15.7139 216.02C15.1073 215.516 14.7386 214.844 14.6079 214.004H15.8539C15.9753 214.536 16.2319 214.951 16.6239 215.25C17.0159 215.548 17.5106 215.698 18.1079 215.698C18.8453 215.698 19.4006 215.478 19.7739 215.04C20.1473 214.592 20.3339 214.004 20.3339 213.276C20.3339 212.548 20.1473 211.988 19.7739 211.596C19.4006 211.194 18.8499 210.994 18.1219 210.994C17.6273 210.994 17.1933 211.115 16.8199 211.358C16.4559 211.591 16.1899 211.913 16.0219 212.324H14.8179V206.612H20.9079V207.732ZM22.965 208.908C22.965 208.273 23.1563 207.769 23.539 207.396C23.9216 207.013 24.4116 206.822 25.009 206.822C25.6063 206.822 26.0963 207.013 26.479 207.396C26.8616 207.769 27.053 208.273 27.053 208.908C27.053 209.552 26.8616 210.065 26.479 210.448C26.0963 210.821 25.6063 211.008 25.009 211.008C24.4116 211.008 23.9216 210.821 23.539 210.448C23.1563 210.065 22.965 209.552 22.965 208.908ZM31.141 206.976L25.471 216.748H24.211L29.881 206.976H31.141ZM25.009 207.606C24.6916 207.606 24.4396 207.718 24.253 207.942C24.0756 208.156 23.987 208.478 23.987 208.908C23.987 209.337 24.0756 209.664 24.253 209.888C24.4396 210.112 24.6916 210.224 25.009 210.224C25.3263 210.224 25.5783 210.112 25.765 209.888C25.9516 209.654 26.045 209.328 26.045 208.908C26.045 208.478 25.9516 208.156 25.765 207.942C25.5783 207.718 25.3263 207.606 25.009 207.606ZM28.327 214.816C28.327 214.172 28.5183 213.663 28.901 213.29C29.2836 212.907 29.7736 212.716 30.371 212.716C30.9683 212.716 31.4536 212.907 31.827 213.29C32.2096 213.663 32.401 214.172 32.401 214.816C32.401 215.45 32.2096 215.959 31.827 216.342C31.4536 216.724 30.9683 216.916 30.371 216.916C29.7736 216.916 29.2836 216.729 28.901 216.356C28.5183 215.973 28.327 215.46 28.327 214.816ZM30.357 213.514C30.0396 213.514 29.7876 213.626 29.601 213.85C29.4143 214.064 29.321 214.386 29.321 214.816C29.321 215.236 29.4143 215.558 29.601 215.782C29.7876 215.996 30.0396 216.104 30.357 216.104C30.6743 216.104 30.9263 215.996 31.113 215.782C31.2996 215.558 31.393 215.236 31.393 214.816C31.393 214.386 31.2996 214.064 31.113 213.85C30.9263 213.626 30.6743 213.514 30.357 213.514Z" fill="#99A4BB"/>
<path d="M25.077 255.714C25.077 254.109 25.3383 252.858 25.861 251.962C26.3837 251.057 27.2983 250.604 28.605 250.604C29.9023 250.604 30.8123 251.057 31.335 251.962C31.8577 252.858 32.119 254.109 32.119 255.714C32.119 257.348 31.8577 258.617 31.335 259.522C30.8123 260.428 29.9023 260.88 28.605 260.88C27.2983 260.88 26.3837 260.428 25.861 259.522C25.3383 258.617 25.077 257.348 25.077 255.714ZM30.859 255.714C30.859 254.902 30.803 254.216 30.691 253.656C30.5883 253.087 30.369 252.63 30.033 252.284C29.7063 251.939 29.2303 251.766 28.605 251.766C27.9703 251.766 27.485 251.939 27.149 252.284C26.8223 252.63 26.603 253.087 26.491 253.656C26.3883 254.216 26.337 254.902 26.337 255.714C26.337 256.554 26.3883 257.259 26.491 257.828C26.603 258.398 26.8223 258.855 27.149 259.2C27.485 259.546 27.9703 259.718 28.605 259.718C29.2303 259.718 29.7063 259.546 30.033 259.2C30.369 258.855 30.5883 258.398 30.691 257.828C30.803 257.259 30.859 256.554 30.859 255.714Z" fill="#99A4BB"/>
<path fill-rule="evenodd" clip-rule="evenodd" d="M440.532 20.6706C440.532 13.8341 446.074 8.29199 452.911 8.29199H503.882C510.718 8.29199 516.26 13.8341 516.26 20.6706C516.26 27.5071 510.718 33.0492 503.882 33.0492H452.911C446.074 33.0492 440.532 27.5071 440.532 20.6706Z" fill="#E4E9F3"/>
<path d="M454.036 23.7011C454.932 22.9544 455.646 22.3338 456.178 21.8391C456.71 21.3351 457.153 20.8124 457.508 20.2711C457.862 19.7298 458.04 19.1978 458.04 18.6751C458.04 18.1991 457.928 17.8258 457.704 17.5551C457.48 17.2844 457.134 17.1491 456.668 17.1491C456.201 17.1491 455.842 17.3078 455.59 17.6251C455.338 17.9331 455.207 18.3578 455.198 18.8991H453.294C453.331 17.7791 453.662 16.9298 454.288 16.3511C454.922 15.7724 455.725 15.4831 456.696 15.4831C457.76 15.4831 458.576 15.7678 459.146 16.3371C459.715 16.8971 460 17.6391 460 18.5631C460 19.2911 459.804 19.9864 459.412 20.6491C459.02 21.3118 458.572 21.8904 458.068 22.3851C457.564 22.8704 456.906 23.4584 456.094 24.1491H460.224V25.7731H453.308V24.3171L454.036 23.7011ZM468.319 17.4011H463.783V19.7951C463.979 19.5524 464.259 19.3564 464.623 19.2071C464.987 19.0484 465.374 18.9691 465.785 18.9691C466.531 18.9691 467.143 19.1324 467.619 19.4591C468.095 19.7858 468.44 20.2058 468.655 20.7191C468.869 21.2231 468.977 21.7644 468.977 22.3431C468.977 23.4164 468.669 24.2798 468.053 24.9331C467.446 25.5864 466.578 25.9131 465.449 25.9131C464.385 25.9131 463.535 25.6471 462.901 25.1151C462.266 24.5831 461.907 23.8878 461.823 23.0291H463.727C463.811 23.4024 463.997 23.7011 464.287 23.9251C464.585 24.1491 464.963 24.2611 465.421 24.2611C465.971 24.2611 466.387 24.0884 466.667 23.7431C466.947 23.3978 467.087 22.9404 467.087 22.3711C467.087 21.7924 466.942 21.3538 466.653 21.0551C466.373 20.7471 465.957 20.5931 465.407 20.5931C465.015 20.5931 464.688 20.6911 464.427 20.8871C464.165 21.0831 463.979 21.3444 463.867 21.6711H461.991V15.6791H468.319V17.4011ZM470.245 18.2131C470.245 17.5038 470.45 16.9484 470.861 16.5471C471.281 16.1458 471.817 15.9451 472.471 15.9451C473.124 15.9451 473.656 16.1458 474.067 16.5471C474.487 16.9484 474.697 17.5038 474.697 18.2131C474.697 18.9318 474.487 19.4918 474.067 19.8931C473.656 20.2944 473.124 20.4951 472.471 20.4951C471.817 20.4951 471.281 20.2944 470.861 19.8931C470.45 19.4918 470.245 18.9318 470.245 18.2131ZM479.233 16.1131L473.731 25.9131H471.827L477.315 16.1131H479.233ZM472.457 17.1211C471.943 17.1211 471.687 17.4851 471.687 18.2131C471.687 18.9504 471.943 19.3191 472.457 19.3191C472.709 19.3191 472.905 19.2304 473.045 19.0531C473.185 18.8664 473.255 18.5864 473.255 18.2131C473.255 17.4851 472.989 17.1211 472.457 17.1211ZM476.391 23.7991C476.391 23.0804 476.596 22.5251 477.007 22.1331C477.427 21.7318 477.963 21.5311 478.617 21.5311C479.27 21.5311 479.797 21.7318 480.199 22.1331C480.609 22.5251 480.815 23.0804 480.815 23.7991C480.815 24.5178 480.609 25.0778 480.199 25.4791C479.797 25.8804 479.27 26.0811 478.617 26.0811C477.954 26.0811 477.417 25.8804 477.007 25.4791C476.596 25.0778 476.391 24.5178 476.391 23.7991ZM478.603 22.7071C478.071 22.7071 477.805 23.0711 477.805 23.7991C477.805 24.5364 478.071 24.9051 478.603 24.9051C479.125 24.9051 479.387 24.5364 479.387 23.7991C479.387 23.0711 479.125 22.7071 478.603 22.7071Z" fill="#282828"/>
<path d="M487.596 19.2771C487.848 18.9224 488.193 18.6284 488.632 18.3951C489.08 18.1524 489.589 18.0311 490.158 18.0311C490.821 18.0311 491.418 18.1944 491.95 18.5211C492.491 18.8478 492.916 19.3144 493.224 19.9211C493.541 20.5184 493.7 21.2138 493.7 22.0071C493.7 22.8004 493.541 23.5051 493.224 24.1211C492.916 24.7278 492.491 25.1991 491.95 25.5351C491.418 25.8711 490.821 26.0391 490.158 26.0391C489.589 26.0391 489.085 25.9224 488.646 25.6891C488.217 25.4558 487.867 25.1618 487.596 24.8071V29.6091H485.636V18.1571H487.596V19.2771ZM491.698 22.0071C491.698 21.5404 491.6 21.1391 491.404 20.8031C491.217 20.4578 490.965 20.1964 490.648 20.0191C490.34 19.8418 490.004 19.7531 489.64 19.7531C489.285 19.7531 488.949 19.8464 488.632 20.0331C488.324 20.2104 488.072 20.4718 487.876 20.8171C487.689 21.1624 487.596 21.5684 487.596 22.0351C487.596 22.5018 487.689 22.9078 487.876 23.2531C488.072 23.5984 488.324 23.8644 488.632 24.0511C488.949 24.2284 489.285 24.3171 489.64 24.3171C490.004 24.3171 490.34 24.2238 490.648 24.0371C490.965 23.8504 491.217 23.5844 491.404 23.2391C491.6 22.8938 491.698 22.4831 491.698 22.0071ZM494.62 22.0351C494.62 21.2324 494.784 20.5324 495.11 19.9351C495.437 19.3284 495.89 18.8618 496.468 18.5351C497.047 18.1991 497.71 18.0311 498.456 18.0311C499.418 18.0311 500.211 18.2738 500.836 18.7591C501.471 19.2351 501.896 19.9071 502.11 20.7751H499.996C499.884 20.4391 499.693 20.1778 499.422 19.9911C499.161 19.7951 498.834 19.6971 498.442 19.6971C497.882 19.6971 497.439 19.9024 497.112 20.3131C496.786 20.7144 496.622 21.2884 496.622 22.0351C496.622 22.7724 496.786 23.3464 497.112 23.7571C497.439 24.1584 497.882 24.3591 498.442 24.3591C499.236 24.3591 499.754 24.0044 499.996 23.2951H502.11C501.896 24.1351 501.471 24.8024 500.836 25.2971C500.202 25.7918 499.408 26.0391 498.456 26.0391C497.71 26.0391 497.047 25.8758 496.468 25.5491C495.89 25.2131 495.437 24.7464 495.11 24.1491C494.784 23.5424 494.62 22.8378 494.62 22.0351Z" fill="#501CD8"/>
<path fill-rule="evenodd" clip-rule="evenodd" d="M350.241 20.6677C350.241 13.8312 355.783 8.28906 362.62 8.28906H416.503C423.34 8.28906 428.882 13.8312 428.882 20.6677C428.882 27.5042 423.34 33.0463 416.503 33.0463H362.62C355.783 33.0463 350.241 27.5042 350.241 20.6677Z" fill="#E4E9F3"/>
<path d="M369.348 23.0431C369.423 23.4538 369.591 23.7711 369.852 23.9951C370.123 24.2098 370.482 24.3171 370.93 24.3171C371.509 24.3171 371.929 24.0791 372.19 23.6031C372.452 23.1178 372.582 22.3058 372.582 21.1671C372.368 21.4658 372.064 21.6991 371.672 21.8671C371.29 22.0351 370.874 22.1191 370.426 22.1191C369.829 22.1191 369.288 21.9978 368.802 21.7551C368.326 21.5031 367.948 21.1344 367.668 20.6491C367.388 20.1544 367.248 19.5571 367.248 18.8571C367.248 17.8211 367.556 16.9998 368.172 16.3931C368.788 15.7771 369.628 15.4691 370.692 15.4691C372.018 15.4691 372.951 15.8938 373.492 16.7431C374.043 17.5924 374.318 18.8711 374.318 20.5791C374.318 21.7924 374.211 22.7864 373.996 23.5611C373.791 24.3358 373.432 24.9238 372.918 25.3251C372.414 25.7264 371.724 25.9271 370.846 25.9271C370.156 25.9271 369.568 25.7964 369.082 25.5351C368.597 25.2644 368.224 24.9144 367.962 24.4851C367.71 24.0464 367.566 23.5658 367.528 23.0431H369.348ZM370.832 20.5231C371.318 20.5231 371.7 20.3738 371.98 20.0751C372.26 19.7764 372.4 19.3751 372.4 18.8711C372.4 18.3204 372.251 17.8958 371.952 17.5971C371.663 17.2891 371.266 17.1351 370.762 17.1351C370.258 17.1351 369.857 17.2938 369.558 17.6111C369.269 17.9191 369.124 18.3298 369.124 18.8431C369.124 19.3378 369.264 19.7438 369.544 20.0611C369.834 20.3691 370.263 20.5231 370.832 20.5231ZM382.704 17.4011H378.168V19.7951C378.364 19.5524 378.644 19.3564 379.008 19.2071C379.372 19.0484 379.759 18.9691 380.17 18.9691C380.917 18.9691 381.528 19.1324 382.004 19.4591C382.48 19.7858 382.825 20.2058 383.04 20.7191C383.255 21.2231 383.362 21.7644 383.362 22.3431C383.362 23.4164 383.054 24.2798 382.438 24.9331C381.831 25.5864 380.963 25.9131 379.834 25.9131C378.77 25.9131 377.921 25.6471 377.286 25.1151C376.651 24.5831 376.292 23.8878 376.208 23.0291H378.112C378.196 23.4024 378.383 23.7011 378.672 23.9251C378.971 24.1491 379.349 24.2611 379.806 24.2611C380.357 24.2611 380.772 24.0884 381.052 23.7431C381.332 23.3978 381.472 22.9404 381.472 22.3711C381.472 21.7924 381.327 21.3538 381.038 21.0551C380.758 20.7471 380.343 20.5931 379.792 20.5931C379.4 20.5931 379.073 20.6911 378.812 20.8871C378.551 21.0831 378.364 21.3444 378.252 21.6711H376.376V15.6791H382.704V17.4011ZM384.63 18.2131C384.63 17.5038 384.835 16.9484 385.246 16.5471C385.666 16.1458 386.202 15.9451 386.856 15.9451C387.509 15.9451 388.041 16.1458 388.452 16.5471C388.872 16.9484 389.082 17.5038 389.082 18.2131C389.082 18.9318 388.872 19.4918 388.452 19.8931C388.041 20.2944 387.509 20.4951 386.856 20.4951C386.202 20.4951 385.666 20.2944 385.246 19.8931C384.835 19.4918 384.63 18.9318 384.63 18.2131ZM393.618 16.1131L388.116 25.9131H386.212L391.7 16.1131H393.618ZM386.842 17.1211C386.328 17.1211 386.072 17.4851 386.072 18.2131C386.072 18.9504 386.328 19.3191 386.842 19.3191C387.094 19.3191 387.29 19.2304 387.43 19.0531C387.57 18.8664 387.64 18.5864 387.64 18.2131C387.64 17.4851 387.374 17.1211 386.842 17.1211ZM390.776 23.7991C390.776 23.0804 390.981 22.5251 391.392 22.1331C391.812 21.7318 392.348 21.5311 393.002 21.5311C393.655 21.5311 394.182 21.7318 394.584 22.1331C394.994 22.5251 395.2 23.0804 395.2 23.7991C395.2 24.5178 394.994 25.0778 394.584 25.4791C394.182 25.8804 393.655 26.0811 393.002 26.0811C392.339 26.0811 391.802 25.8804 391.392 25.4791C390.981 25.0778 390.776 24.5178 390.776 23.7991ZM392.988 22.7071C392.456 22.7071 392.19 23.0711 392.19 23.7991C392.19 24.5364 392.456 24.9051 392.988 24.9051C393.51 24.9051 393.772 24.5364 393.772 23.7991C393.772 23.0711 393.51 22.7071 392.988 22.7071Z" fill="#282828"/>
<path d="M399.517 22.0071C399.517 21.2231 399.671 20.5278 399.979 19.9211C400.297 19.3144 400.726 18.8478 401.267 18.5211C401.809 18.1944 402.411 18.0311 403.073 18.0311C403.577 18.0311 404.058 18.1431 404.515 18.3671C404.973 18.5818 405.337 18.8711 405.607 19.2351V15.5531H407.595V25.9131H405.607V24.7651C405.365 25.1478 405.024 25.4558 404.585 25.6891C404.147 25.9224 403.638 26.0391 403.059 26.0391C402.406 26.0391 401.809 25.8711 401.267 25.5351C400.726 25.1991 400.297 24.7278 399.979 24.1211C399.671 23.5051 399.517 22.8004 399.517 22.0071ZM405.621 22.0351C405.621 21.5591 405.528 21.1531 405.341 20.8171C405.155 20.4718 404.903 20.2104 404.585 20.0331C404.268 19.8464 403.927 19.7531 403.563 19.7531C403.199 19.7531 402.863 19.8418 402.555 20.0191C402.247 20.1964 401.995 20.4578 401.799 20.8031C401.613 21.1391 401.519 21.5404 401.519 22.0071C401.519 22.4738 401.613 22.8844 401.799 23.2391C401.995 23.5844 402.247 23.8504 402.555 24.0371C402.873 24.2238 403.209 24.3171 403.563 24.3171C403.927 24.3171 404.268 24.2284 404.585 24.0511C404.903 23.8644 405.155 23.6031 405.341 23.2671C405.528 22.9218 405.621 22.5111 405.621 22.0351ZM411.469 19.3611C411.721 18.9504 412.048 18.6284 412.449 18.3951C412.86 18.1618 413.327 18.0451 413.849 18.0451V20.1031H413.331C412.715 20.1031 412.249 20.2478 411.931 20.5371C411.623 20.8264 411.469 21.3304 411.469 22.0491V25.9131H409.509V18.1571H411.469V19.3611Z" fill="#00B0FF"/>
<defs>
<linearGradient id="paint0_linear_50_858" x1="294.704" y1="0.785156" x2="294.704" y2="211.681" gradientUnits="userSpaceOnUse">
<stop stop-color="#E0D9F8"/>
<stop offset="1" stop-color="#F6F7F9"/>
</linearGradient>
</defs>
</svg>
