<svg width="36" height="35" viewBox="0 0 36 35" fill="none" xmlns="http://www.w3.org/2000/svg">
<path d="M26.3585 17.4111C32.5851 28.3014 23.76 33.2349 19.0595 34.9999C28.0561 34.2399 35.1223 26.6957 35.1223 17.503C35.1284 8.29799 28.0438 0.741549 19.0288 0V0.0061285C23.9316 1.87532 32.4257 6.80264 26.3585 17.4111Z" fill="#171542"/>
<path d="M16.0319 0.0180664C11.0984 1.85049 2.59206 6.72878 8.79411 17.4108C8.82475 17.3617 8.84926 17.3127 8.8799 17.2637C10.9084 14.1014 17.2514 8.36509 16.0319 0.0180664Z" fill="#501CD8"/>
<path d="M19.029 0.00585938C17.8891 8.2916 24.1831 13.9788 26.1994 17.135C26.2545 17.227 26.3097 17.3189 26.3587 17.4108C32.4259 6.80237 23.9318 1.87505 19.029 0.00585938Z" fill="#171542"/>
<path d="M26.3594 17.4111C26.3042 17.5031 26.2552 17.595 26.2 17.6869C24.1654 20.8615 17.7917 26.6161 19.0542 34.9999H19.0603C23.7609 33.241 32.5859 28.3015 26.3594 17.4111Z" fill="#00B0FF"/>
<path d="M8.7944 17.4108C2.59236 6.72883 11.0987 1.85054 16.0322 0.0181164C16.0322 0.0119879 16.0322 0.0119879 16.0322 0.00585938C7.04778 0.78418 0 8.31611 0 17.5027C0 26.671 7.02939 34.2029 15.9954 34.9935C11.2826 33.2653 2.42689 28.3808 8.7944 17.4108Z" fill="#F8256D"/>
<path d="M8.88007 17.5582C8.84943 17.5092 8.82492 17.4602 8.79427 17.4111C2.42676 28.3812 11.2824 33.2656 15.9953 34.9938C16.0014 34.9938 16.0014 34.9938 16.0075 34.9938C17.3497 26.5426 10.927 20.7512 8.88007 17.5582Z" fill="#F8256D"/>
</svg>
