<svg width="714" height="235" viewBox="0 0 714 235" fill="none" xmlns="http://www.w3.org/2000/svg">
<path d="M80.3457 2.30176V5.32137" stroke="url(#paint0_linear_61_156)" stroke-width="0.25" stroke-miterlimit="10" stroke-linecap="round"/>
<path d="M80.3457 11.3604V226.658" stroke="url(#paint1_linear_61_156)" stroke-width="0.25" stroke-miterlimit="10" stroke-linecap="round" stroke-dasharray="2.01 2.01"/>
<path d="M80.3457 229.678V232.698" stroke="url(#paint2_linear_61_156)" stroke-width="0.25" stroke-miterlimit="10" stroke-linecap="round"/>
<path d="M158.786 2.30176V5.32137" stroke="url(#paint3_linear_61_156)" stroke-width="0.25" stroke-miterlimit="10" stroke-linecap="round"/>
<path d="M158.786 11.3604V226.658" stroke="url(#paint4_linear_61_156)" stroke-width="0.25" stroke-miterlimit="10" stroke-linecap="round" stroke-dasharray="2.01 2.01"/>
<path d="M158.786 229.678V232.698" stroke="url(#paint5_linear_61_156)" stroke-width="0.25" stroke-miterlimit="10" stroke-linecap="round"/>
<path d="M237.529 2.30176V5.32137" stroke="url(#paint6_linear_61_156)" stroke-width="0.25" stroke-miterlimit="10" stroke-linecap="round"/>
<path d="M237.529 11.3604V226.658" stroke="url(#paint7_linear_61_156)" stroke-width="0.25" stroke-miterlimit="10" stroke-linecap="round" stroke-dasharray="2.01 2.01"/>
<path d="M237.529 229.678V232.698" stroke="url(#paint8_linear_61_156)" stroke-width="0.25" stroke-miterlimit="10" stroke-linecap="round"/>
<path d="M316.271 2.30176V5.32137" stroke="url(#paint9_linear_61_156)" stroke-width="0.25" stroke-miterlimit="10" stroke-linecap="round"/>
<path d="M316.271 11.3604V226.658" stroke="url(#paint10_linear_61_156)" stroke-width="0.25" stroke-miterlimit="10" stroke-linecap="round" stroke-dasharray="2.01 2.01"/>
<path d="M316.271 229.678V232.698" stroke="url(#paint11_linear_61_156)" stroke-width="0.25" stroke-miterlimit="10" stroke-linecap="round"/>
<path d="M395.014 2.30176V5.32137" stroke="url(#paint12_linear_61_156)" stroke-width="0.25" stroke-miterlimit="10" stroke-linecap="round"/>
<path d="M395.014 11.3604V226.658" stroke="url(#paint13_linear_61_156)" stroke-width="0.25" stroke-miterlimit="10" stroke-linecap="round" stroke-dasharray="2.01 2.01"/>
<path d="M395.014 229.678V232.698" stroke="url(#paint14_linear_61_156)" stroke-width="0.25" stroke-miterlimit="10" stroke-linecap="round"/>
<path d="M473.454 2.30176V5.32137" stroke="url(#paint15_linear_61_156)" stroke-width="0.25" stroke-miterlimit="10" stroke-linecap="round"/>
<path d="M473.454 11.3604V226.658" stroke="url(#paint16_linear_61_156)" stroke-width="0.25" stroke-miterlimit="10" stroke-linecap="round" stroke-dasharray="2.01 2.01"/>
<path d="M473.454 229.678V232.698" stroke="url(#paint17_linear_61_156)" stroke-width="0.25" stroke-miterlimit="10" stroke-linecap="round"/>
<path d="M552.196 2.30176V5.32137" stroke="url(#paint18_linear_61_156)" stroke-width="0.25" stroke-miterlimit="10" stroke-linecap="round"/>
<path d="M552.196 11.3604V226.658" stroke="url(#paint19_linear_61_156)" stroke-width="0.25" stroke-miterlimit="10" stroke-linecap="round" stroke-dasharray="2.01 2.01"/>
<path d="M552.196 229.678V232.698" stroke="url(#paint20_linear_61_156)" stroke-width="0.25" stroke-miterlimit="10" stroke-linecap="round"/>
<path d="M630.939 2.30176V5.32137" stroke="url(#paint21_linear_61_156)" stroke-width="0.25" stroke-miterlimit="10" stroke-linecap="round"/>
<path d="M630.939 11.3604V226.658" stroke="url(#paint22_linear_61_156)" stroke-width="0.25" stroke-miterlimit="10" stroke-linecap="round" stroke-dasharray="2.01 2.01"/>
<path d="M630.939 229.678V232.698" stroke="url(#paint23_linear_61_156)" stroke-width="0.25" stroke-miterlimit="10" stroke-linecap="round"/>
<path d="M709.38 2.30176V5.32137" stroke="url(#paint24_linear_61_156)" stroke-width="0.25" stroke-miterlimit="10" stroke-linecap="round"/>
<path d="M709.38 11.3604V226.658" stroke="url(#paint25_linear_61_156)" stroke-width="0.25" stroke-miterlimit="10" stroke-linecap="round" stroke-dasharray="2.01 2.01"/>
<path d="M709.38 229.678V232.698" stroke="url(#paint26_linear_61_156)" stroke-width="0.25" stroke-miterlimit="10" stroke-linecap="round"/>
<path d="M1.60352 213.071L80.3459 96.5139L158.787 156.604L237.529 133.957L316.271 140.902L395.014 104.969L473.454 126.71L552.197 35.8198L630.939 92.2865L709.38 80.51" stroke="url(#paint27_linear_61_156)" stroke-width="1.5" stroke-miterlimit="10"/>
<path d="M80.3461 99.2317C81.8457 99.2317 83.0614 98.0149 83.0614 96.514C83.0614 95.0131 81.8457 93.7964 80.3461 93.7964C78.8465 93.7964 77.6309 95.0131 77.6309 96.514C77.6309 98.0149 78.8465 99.2317 80.3461 99.2317Z" fill="white" stroke="url(#paint28_linear_61_156)" stroke-width="1.5" stroke-miterlimit="10"/>
<path d="M158.787 159.02C160.286 159.02 161.502 157.803 161.502 156.302C161.502 154.801 160.286 153.584 158.787 153.584C157.287 153.584 156.071 154.801 156.071 156.302C156.071 157.803 157.287 159.02 158.787 159.02Z" fill="white" stroke="url(#paint29_linear_61_156)" stroke-width="1.5" stroke-miterlimit="10"/>
<path d="M237.529 136.675C239.028 136.675 240.244 135.458 240.244 133.957C240.244 132.456 239.028 131.239 237.529 131.239C236.029 131.239 234.813 132.456 234.813 133.957C234.813 135.458 236.029 136.675 237.529 136.675Z" fill="white" stroke="url(#paint30_linear_61_156)" stroke-width="1.5" stroke-miterlimit="10"/>
<path d="M316.271 143.62C317.771 143.62 318.987 142.403 318.987 140.902C318.987 139.401 317.771 138.185 316.271 138.185C314.772 138.185 313.556 139.401 313.556 140.902C313.556 142.403 314.772 143.62 316.271 143.62Z" fill="white" stroke="url(#paint31_linear_61_156)" stroke-width="1.5" stroke-miterlimit="10"/>
<path d="M395.014 107.686C396.513 107.686 397.729 106.47 397.729 104.969C397.729 103.468 396.513 102.251 395.014 102.251C393.514 102.251 392.298 103.468 392.298 104.969C392.298 106.47 393.514 107.686 395.014 107.686Z" fill="white" stroke="url(#paint32_linear_61_156)" stroke-width="1.5" stroke-miterlimit="10"/>
<path d="M473.756 129.126C475.256 129.126 476.472 127.909 476.472 126.408C476.472 124.907 475.256 123.69 473.756 123.69C472.257 123.69 471.041 124.907 471.041 126.408C471.041 127.909 472.257 129.126 473.756 129.126Z" fill="white" stroke="url(#paint33_linear_61_156)" stroke-width="1.5" stroke-miterlimit="10"/>
<path d="M552.197 38.5373C553.696 38.5373 554.912 37.3206 554.912 35.8197C554.912 34.3188 553.696 33.1021 552.197 33.1021C550.697 33.1021 549.481 34.3188 549.481 35.8197C549.481 37.3206 550.697 38.5373 552.197 38.5373Z" fill="white" stroke="url(#paint34_linear_61_156)" stroke-width="1.5" stroke-miterlimit="10"/>
<path d="M630.939 95.6081C632.439 95.6081 633.654 94.3914 633.654 92.8905C633.654 91.3896 632.439 90.1729 630.939 90.1729C629.439 90.1729 628.224 91.3896 628.224 92.8905C628.224 94.3914 629.439 95.6081 630.939 95.6081Z" fill="white" stroke="url(#paint35_linear_61_156)" stroke-width="1.5" stroke-miterlimit="10"/>
<path d="M709.682 83.2278C711.181 83.2278 712.397 82.011 712.397 80.5101C712.397 79.0092 711.181 77.7925 709.682 77.7925C708.182 77.7925 706.966 79.0092 706.966 80.5101C706.966 82.011 708.182 83.2278 709.682 83.2278Z" fill="white" stroke="url(#paint36_linear_61_156)" stroke-width="1.5" stroke-miterlimit="10"/>
<path d="M1.60352 96.5139L80.3459 193.443L158.787 69.3374L237.529 109.8L316.271 162.643L395.014 200.086L473.454 153.584L552.197 74.7727L630.939 140.902L709.38 160.832" stroke="url(#paint37_linear_61_156)" stroke-width="1.5" stroke-miterlimit="10"/>
<path d="M80.3461 195.859C81.8457 195.859 83.0614 194.642 83.0614 193.141C83.0614 191.64 81.8457 190.423 80.3461 190.423C78.8465 190.423 77.6309 191.64 77.6309 193.141C77.6309 194.642 78.8465 195.859 80.3461 195.859Z" fill="white" stroke="url(#paint38_linear_61_156)" stroke-width="1.5" stroke-miterlimit="10"/>
<path d="M158.787 72.0549C160.286 72.0549 161.502 70.8382 161.502 69.3373C161.502 67.8364 160.286 66.6196 158.787 66.6196C157.287 66.6196 156.071 67.8364 156.071 69.3373C156.071 70.8382 157.287 72.0549 158.787 72.0549Z" fill="white" stroke="url(#paint39_linear_61_156)" stroke-width="1.5" stroke-miterlimit="10"/>
<path d="M237.529 112.82C239.028 112.82 240.244 111.603 240.244 110.102C240.244 108.601 239.028 107.384 237.529 107.384C236.029 107.384 234.813 108.601 234.813 110.102C234.813 111.603 236.029 112.82 237.529 112.82Z" fill="white" stroke="url(#paint40_linear_61_156)" stroke-width="1.5" stroke-miterlimit="10"/>
<path d="M316.271 165.059C317.771 165.059 318.987 163.842 318.987 162.341C318.987 160.84 317.771 159.624 316.271 159.624C314.772 159.624 313.556 160.84 313.556 162.341C313.556 163.842 314.772 165.059 316.271 165.059Z" fill="white" stroke="url(#paint41_linear_61_156)" stroke-width="1.5" stroke-miterlimit="10"/>
<path d="M395.014 202.804C396.513 202.804 397.729 201.587 397.729 200.086C397.729 198.585 396.513 197.369 395.014 197.369C393.514 197.369 392.298 198.585 392.298 200.086C392.298 201.587 393.514 202.804 395.014 202.804Z" fill="white" stroke="url(#paint42_linear_61_156)" stroke-width="1.5" stroke-miterlimit="10"/>
<path d="M473.756 156.302C475.256 156.302 476.472 155.085 476.472 153.584C476.472 152.083 475.256 150.867 473.756 150.867C472.257 150.867 471.041 152.083 471.041 153.584C471.041 155.085 472.257 156.302 473.756 156.302Z" fill="white" stroke="url(#paint43_linear_61_156)" stroke-width="1.5" stroke-miterlimit="10"/>
<path d="M552.197 77.7922C553.696 77.7922 554.912 76.5755 554.912 75.0746C554.912 73.5737 553.696 72.3569 552.197 72.3569C550.697 72.3569 549.481 73.5737 549.481 75.0746C549.481 76.5755 550.697 77.7922 552.197 77.7922Z" fill="white" stroke="url(#paint44_linear_61_156)" stroke-width="1.5" stroke-miterlimit="10"/>
<path d="M630.939 143.318C632.439 143.318 633.654 142.101 633.654 140.6C633.654 139.099 632.439 137.882 630.939 137.882C629.439 137.882 628.224 139.099 628.224 140.6C628.224 142.101 629.439 143.318 630.939 143.318Z" fill="white" stroke="url(#paint45_linear_61_156)" stroke-width="1.5" stroke-miterlimit="10"/>
<path d="M709.682 163.851C711.181 163.851 712.397 162.634 712.397 161.133C712.397 159.632 711.181 158.416 709.682 158.416C708.182 158.416 706.966 159.632 706.966 161.133C706.966 162.634 708.182 163.851 709.682 163.851Z" fill="white" stroke="url(#paint46_linear_61_156)" stroke-width="1.5" stroke-miterlimit="10"/>
<path d="M1.60352 75.6786L80.3459 149.357L158.787 98.3256L237.529 153.584L316.271 117.651L395.014 130.635L473.454 98.3256L552.197 89.2668L630.939 69.3374L709.38 130.032" stroke="url(#paint47_linear_61_156)" stroke-width="1.5" stroke-miterlimit="10"/>
<path d="M80.3461 151.169C81.8457 151.169 83.0614 149.952 83.0614 148.451C83.0614 146.95 81.8457 145.733 80.3461 145.733C78.8465 145.733 77.6309 146.95 77.6309 148.451C77.6309 149.952 78.8465 151.169 80.3461 151.169Z" fill="white" stroke="url(#paint48_linear_61_156)" stroke-width="1.5" stroke-miterlimit="10"/>
<path d="M158.787 101.949C160.286 101.949 161.502 100.732 161.502 99.2313C161.502 97.7304 160.286 96.5137 158.787 96.5137C157.287 96.5137 156.071 97.7304 156.071 99.2313C156.071 100.732 157.287 101.949 158.787 101.949Z" fill="white" stroke="url(#paint49_linear_61_156)" stroke-width="1.5" stroke-miterlimit="10"/>
<path d="M237.529 156.302C239.028 156.302 240.244 155.085 240.244 153.584C240.244 152.083 239.028 150.867 237.529 150.867C236.029 150.867 234.813 152.083 234.813 153.584C234.813 155.085 236.029 156.302 237.529 156.302Z" fill="white" stroke="url(#paint50_linear_61_156)" stroke-width="1.5" stroke-miterlimit="10"/>
<path d="M316.271 120.369C317.771 120.369 318.987 119.152 318.987 117.651C318.987 116.15 317.771 114.934 316.271 114.934C314.772 114.934 313.556 116.15 313.556 117.651C313.556 119.152 314.772 120.369 316.271 120.369Z" fill="white" stroke="url(#paint51_linear_61_156)" stroke-width="1.5" stroke-miterlimit="10"/>
<path d="M395.014 132.749C396.513 132.749 397.729 131.533 397.729 130.032C397.729 128.531 396.513 127.314 395.014 127.314C393.514 127.314 392.298 128.531 392.298 130.032C392.298 131.533 393.514 132.749 395.014 132.749Z" fill="white" stroke="url(#paint52_linear_61_156)" stroke-width="1.5" stroke-miterlimit="10"/>
<path d="M473.756 100.741C475.256 100.741 476.472 99.5242 476.472 98.0233C476.472 96.5224 475.256 95.3057 473.756 95.3057C472.257 95.3057 471.041 96.5224 471.041 98.0233C471.041 99.5242 472.257 100.741 473.756 100.741Z" fill="white" stroke="url(#paint53_linear_61_156)" stroke-width="1.5" stroke-miterlimit="10"/>
<path d="M552.197 91.6824C553.696 91.6824 554.912 90.4656 554.912 88.9647C554.912 87.4638 553.696 86.2471 552.197 86.2471C550.697 86.2471 549.481 87.4638 549.481 88.9647C549.481 90.4656 550.697 91.6824 552.197 91.6824Z" fill="white" stroke="url(#paint54_linear_61_156)" stroke-width="1.5" stroke-miterlimit="10"/>
<path d="M630.939 72.0549C632.439 72.0549 633.654 70.8382 633.654 69.3373C633.654 67.8364 632.439 66.6196 630.939 66.6196C629.439 66.6196 628.224 67.8364 628.224 69.3373C628.224 70.8382 629.439 72.0549 630.939 72.0549Z" fill="white" stroke="url(#paint55_linear_61_156)" stroke-width="1.5" stroke-miterlimit="10"/>
<path d="M709.682 132.749C711.181 132.749 712.397 131.533 712.397 130.032C712.397 128.531 711.181 127.314 709.682 127.314C708.182 127.314 706.966 128.531 706.966 130.032C706.966 131.533 708.182 132.749 709.682 132.749Z" fill="white" stroke="url(#paint56_linear_61_156)" stroke-width="1.5" stroke-miterlimit="10"/>
<path d="M1.60352 2.30176V232.698H709.38" stroke="#6B788E" stroke-width="3" stroke-miterlimit="10" stroke-linecap="round"/>
<defs>
<linearGradient id="paint0_linear_61_156" x1="80.3449" y1="3.80847" x2="81.3462" y2="3.80847" gradientUnits="userSpaceOnUse">
<stop stop-color="#69DAF9"/>
<stop offset="1" stop-color="#419ED9"/>
</linearGradient>
<linearGradient id="paint1_linear_61_156" x1="80.3449" y1="118.789" x2="81.3462" y2="118.789" gradientUnits="userSpaceOnUse">
<stop stop-color="#69DAF9"/>
<stop offset="1" stop-color="#419ED9"/>
</linearGradient>
<linearGradient id="paint2_linear_61_156" x1="80.3449" y1="231.185" x2="81.3462" y2="231.185" gradientUnits="userSpaceOnUse">
<stop stop-color="#69DAF9"/>
<stop offset="1" stop-color="#419ED9"/>
</linearGradient>
<linearGradient id="paint3_linear_61_156" x1="158.785" y1="3.80847" x2="159.787" y2="3.80847" gradientUnits="userSpaceOnUse">
<stop stop-color="#69DAF9"/>
<stop offset="1" stop-color="#419ED9"/>
</linearGradient>
<linearGradient id="paint4_linear_61_156" x1="158.785" y1="118.789" x2="159.787" y2="118.789" gradientUnits="userSpaceOnUse">
<stop stop-color="#69DAF9"/>
<stop offset="1" stop-color="#419ED9"/>
</linearGradient>
<linearGradient id="paint5_linear_61_156" x1="158.785" y1="231.185" x2="159.787" y2="231.185" gradientUnits="userSpaceOnUse">
<stop stop-color="#69DAF9"/>
<stop offset="1" stop-color="#419ED9"/>
</linearGradient>
<linearGradient id="paint6_linear_61_156" x1="237.528" y1="3.80847" x2="238.529" y2="3.80847" gradientUnits="userSpaceOnUse">
<stop stop-color="#69DAF9"/>
<stop offset="1" stop-color="#419ED9"/>
</linearGradient>
<linearGradient id="paint7_linear_61_156" x1="237.528" y1="118.789" x2="238.529" y2="118.789" gradientUnits="userSpaceOnUse">
<stop stop-color="#69DAF9"/>
<stop offset="1" stop-color="#419ED9"/>
</linearGradient>
<linearGradient id="paint8_linear_61_156" x1="237.528" y1="231.185" x2="238.529" y2="231.185" gradientUnits="userSpaceOnUse">
<stop stop-color="#69DAF9"/>
<stop offset="1" stop-color="#419ED9"/>
</linearGradient>
<linearGradient id="paint9_linear_61_156" x1="316.27" y1="3.80847" x2="317.271" y2="3.80847" gradientUnits="userSpaceOnUse">
<stop stop-color="#69DAF9"/>
<stop offset="1" stop-color="#419ED9"/>
</linearGradient>
<linearGradient id="paint10_linear_61_156" x1="316.27" y1="118.789" x2="317.271" y2="118.789" gradientUnits="userSpaceOnUse">
<stop stop-color="#69DAF9"/>
<stop offset="1" stop-color="#419ED9"/>
</linearGradient>
<linearGradient id="paint11_linear_61_156" x1="316.27" y1="231.185" x2="317.271" y2="231.185" gradientUnits="userSpaceOnUse">
<stop stop-color="#69DAF9"/>
<stop offset="1" stop-color="#419ED9"/>
</linearGradient>
<linearGradient id="paint12_linear_61_156" x1="395.013" y1="3.80847" x2="396.014" y2="3.80847" gradientUnits="userSpaceOnUse">
<stop stop-color="#69DAF9"/>
<stop offset="1" stop-color="#419ED9"/>
</linearGradient>
<linearGradient id="paint13_linear_61_156" x1="395.013" y1="118.789" x2="396.014" y2="118.789" gradientUnits="userSpaceOnUse">
<stop stop-color="#69DAF9"/>
<stop offset="1" stop-color="#419ED9"/>
</linearGradient>
<linearGradient id="paint14_linear_61_156" x1="395.013" y1="231.185" x2="396.014" y2="231.185" gradientUnits="userSpaceOnUse">
<stop stop-color="#69DAF9"/>
<stop offset="1" stop-color="#419ED9"/>
</linearGradient>
<linearGradient id="paint15_linear_61_156" x1="473.453" y1="3.80847" x2="474.455" y2="3.80847" gradientUnits="userSpaceOnUse">
<stop stop-color="#69DAF9"/>
<stop offset="1" stop-color="#419ED9"/>
</linearGradient>
<linearGradient id="paint16_linear_61_156" x1="473.453" y1="118.789" x2="474.455" y2="118.789" gradientUnits="userSpaceOnUse">
<stop stop-color="#69DAF9"/>
<stop offset="1" stop-color="#419ED9"/>
</linearGradient>
<linearGradient id="paint17_linear_61_156" x1="473.453" y1="231.185" x2="474.455" y2="231.185" gradientUnits="userSpaceOnUse">
<stop stop-color="#69DAF9"/>
<stop offset="1" stop-color="#419ED9"/>
</linearGradient>
<linearGradient id="paint18_linear_61_156" x1="552.195" y1="3.80847" x2="553.197" y2="3.80847" gradientUnits="userSpaceOnUse">
<stop stop-color="#69DAF9"/>
<stop offset="1" stop-color="#419ED9"/>
</linearGradient>
<linearGradient id="paint19_linear_61_156" x1="552.195" y1="118.789" x2="553.197" y2="118.789" gradientUnits="userSpaceOnUse">
<stop stop-color="#69DAF9"/>
<stop offset="1" stop-color="#419ED9"/>
</linearGradient>
<linearGradient id="paint20_linear_61_156" x1="552.195" y1="231.185" x2="553.197" y2="231.185" gradientUnits="userSpaceOnUse">
<stop stop-color="#69DAF9"/>
<stop offset="1" stop-color="#419ED9"/>
</linearGradient>
<linearGradient id="paint21_linear_61_156" x1="630.938" y1="3.80847" x2="631.939" y2="3.80847" gradientUnits="userSpaceOnUse">
<stop stop-color="#69DAF9"/>
<stop offset="1" stop-color="#419ED9"/>
</linearGradient>
<linearGradient id="paint22_linear_61_156" x1="630.938" y1="118.789" x2="631.939" y2="118.789" gradientUnits="userSpaceOnUse">
<stop stop-color="#69DAF9"/>
<stop offset="1" stop-color="#419ED9"/>
</linearGradient>
<linearGradient id="paint23_linear_61_156" x1="630.938" y1="231.185" x2="631.939" y2="231.185" gradientUnits="userSpaceOnUse">
<stop stop-color="#69DAF9"/>
<stop offset="1" stop-color="#419ED9"/>
</linearGradient>
<linearGradient id="paint24_linear_61_156" x1="709.379" y1="3.80847" x2="710.38" y2="3.80847" gradientUnits="userSpaceOnUse">
<stop stop-color="#69DAF9"/>
<stop offset="1" stop-color="#419ED9"/>
</linearGradient>
<linearGradient id="paint25_linear_61_156" x1="709.379" y1="118.789" x2="710.38" y2="118.789" gradientUnits="userSpaceOnUse">
<stop stop-color="#69DAF9"/>
<stop offset="1" stop-color="#419ED9"/>
</linearGradient>
<linearGradient id="paint26_linear_61_156" x1="709.379" y1="231.185" x2="710.38" y2="231.185" gradientUnits="userSpaceOnUse">
<stop stop-color="#69DAF9"/>
<stop offset="1" stop-color="#419ED9"/>
</linearGradient>
<linearGradient id="paint27_linear_61_156" x1="1.03963" y1="124.264" x2="709.703" y2="124.264" gradientUnits="userSpaceOnUse">
<stop stop-color="#00B0FF"/>
<stop offset="1" stop-color="#F8256D"/>
</linearGradient>
<linearGradient id="paint28_linear_61_156" x1="77.6265" y1="96.5085" x2="83.0639" y2="96.5085" gradientUnits="userSpaceOnUse">
<stop stop-color="#69DAF9"/>
<stop offset="1" stop-color="#419ED9"/>
</linearGradient>
<linearGradient id="paint29_linear_61_156" x1="156.067" y1="156.297" x2="161.504" y2="156.297" gradientUnits="userSpaceOnUse">
<stop stop-color="#69DAF9"/>
<stop offset="1" stop-color="#419ED9"/>
</linearGradient>
<linearGradient id="paint30_linear_61_156" x1="234.809" y1="133.951" x2="240.246" y2="133.951" gradientUnits="userSpaceOnUse">
<stop stop-color="#69DAF9"/>
<stop offset="1" stop-color="#419ED9"/>
</linearGradient>
<linearGradient id="paint31_linear_61_156" x1="313.552" y1="140.897" x2="318.989" y2="140.897" gradientUnits="userSpaceOnUse">
<stop stop-color="#69DAF9"/>
<stop offset="1" stop-color="#419ED9"/>
</linearGradient>
<linearGradient id="paint32_linear_61_156" x1="392.294" y1="104.963" x2="397.731" y2="104.963" gradientUnits="userSpaceOnUse">
<stop stop-color="#69DAF9"/>
<stop offset="1" stop-color="#419ED9"/>
</linearGradient>
<linearGradient id="paint33_linear_61_156" x1="471.037" y1="126.403" x2="476.474" y2="126.403" gradientUnits="userSpaceOnUse">
<stop stop-color="#69DAF9"/>
<stop offset="1" stop-color="#419ED9"/>
</linearGradient>
<linearGradient id="paint34_linear_61_156" x1="549.477" y1="35.8141" x2="554.914" y2="35.8141" gradientUnits="userSpaceOnUse">
<stop stop-color="#69DAF9"/>
<stop offset="1" stop-color="#419ED9"/>
</linearGradient>
<linearGradient id="paint35_linear_61_156" x1="628.219" y1="92.8849" x2="633.657" y2="92.8849" gradientUnits="userSpaceOnUse">
<stop stop-color="#69DAF9"/>
<stop offset="1" stop-color="#419ED9"/>
</linearGradient>
<linearGradient id="paint36_linear_61_156" x1="706.962" y1="80.5046" x2="712.399" y2="80.5046" gradientUnits="userSpaceOnUse">
<stop stop-color="#69DAF9"/>
<stop offset="1" stop-color="#419ED9"/>
</linearGradient>
<linearGradient id="paint37_linear_61_156" x1="1.03963" y1="134.578" x2="709.703" y2="134.578" gradientUnits="userSpaceOnUse">
<stop stop-color="#F8256D"/>
<stop offset="1" stop-color="#501CD8"/>
</linearGradient>
<linearGradient id="paint38_linear_61_156" x1="77.6265" y1="193.135" x2="83.0639" y2="193.135" gradientUnits="userSpaceOnUse">
<stop stop-color="#69DAF9"/>
<stop offset="1" stop-color="#419ED9"/>
</linearGradient>
<linearGradient id="paint39_linear_61_156" x1="156.067" y1="69.3317" x2="161.504" y2="69.3317" gradientUnits="userSpaceOnUse">
<stop stop-color="#69DAF9"/>
<stop offset="1" stop-color="#419ED9"/>
</linearGradient>
<linearGradient id="paint40_linear_61_156" x1="234.809" y1="110.096" x2="240.246" y2="110.096" gradientUnits="userSpaceOnUse">
<stop stop-color="#69DAF9"/>
<stop offset="1" stop-color="#419ED9"/>
</linearGradient>
<linearGradient id="paint41_linear_61_156" x1="313.552" y1="162.336" x2="318.989" y2="162.336" gradientUnits="userSpaceOnUse">
<stop stop-color="#69DAF9"/>
<stop offset="1" stop-color="#419ED9"/>
</linearGradient>
<linearGradient id="paint42_linear_61_156" x1="392.294" y1="200.081" x2="397.731" y2="200.081" gradientUnits="userSpaceOnUse">
<stop stop-color="#69DAF9"/>
<stop offset="1" stop-color="#419ED9"/>
</linearGradient>
<linearGradient id="paint43_linear_61_156" x1="471.037" y1="153.579" x2="476.474" y2="153.579" gradientUnits="userSpaceOnUse">
<stop stop-color="#69DAF9"/>
<stop offset="1" stop-color="#419ED9"/>
</linearGradient>
<linearGradient id="paint44_linear_61_156" x1="549.477" y1="75.069" x2="554.914" y2="75.069" gradientUnits="userSpaceOnUse">
<stop stop-color="#69DAF9"/>
<stop offset="1" stop-color="#419ED9"/>
</linearGradient>
<linearGradient id="paint45_linear_61_156" x1="628.219" y1="140.594" x2="633.657" y2="140.594" gradientUnits="userSpaceOnUse">
<stop stop-color="#69DAF9"/>
<stop offset="1" stop-color="#419ED9"/>
</linearGradient>
<linearGradient id="paint46_linear_61_156" x1="706.962" y1="161.128" x2="712.399" y2="161.128" gradientUnits="userSpaceOnUse">
<stop stop-color="#69DAF9"/>
<stop offset="1" stop-color="#419ED9"/>
</linearGradient>
<linearGradient id="paint47_linear_61_156" x1="1.03963" y1="111.375" x2="709.703" y2="111.375" gradientUnits="userSpaceOnUse">
<stop stop-color="#69DAF9"/>
<stop offset="1" stop-color="#419ED9"/>
</linearGradient>
<linearGradient id="paint48_linear_61_156" x1="77.6265" y1="148.445" x2="83.0639" y2="148.445" gradientUnits="userSpaceOnUse">
<stop stop-color="#69DAF9"/>
<stop offset="1" stop-color="#419ED9"/>
</linearGradient>
<linearGradient id="paint49_linear_61_156" x1="156.067" y1="99.2258" x2="161.504" y2="99.2258" gradientUnits="userSpaceOnUse">
<stop stop-color="#69DAF9"/>
<stop offset="1" stop-color="#419ED9"/>
</linearGradient>
<linearGradient id="paint50_linear_61_156" x1="234.809" y1="153.579" x2="240.246" y2="153.579" gradientUnits="userSpaceOnUse">
<stop stop-color="#69DAF9"/>
<stop offset="1" stop-color="#419ED9"/>
</linearGradient>
<linearGradient id="paint51_linear_61_156" x1="313.552" y1="117.646" x2="318.989" y2="117.646" gradientUnits="userSpaceOnUse">
<stop stop-color="#69DAF9"/>
<stop offset="1" stop-color="#419ED9"/>
</linearGradient>
<linearGradient id="paint52_linear_61_156" x1="392.294" y1="130.026" x2="397.731" y2="130.026" gradientUnits="userSpaceOnUse">
<stop stop-color="#69DAF9"/>
<stop offset="1" stop-color="#419ED9"/>
</linearGradient>
<linearGradient id="paint53_linear_61_156" x1="471.037" y1="98.0178" x2="476.474" y2="98.0178" gradientUnits="userSpaceOnUse">
<stop stop-color="#69DAF9"/>
<stop offset="1" stop-color="#419ED9"/>
</linearGradient>
<linearGradient id="paint54_linear_61_156" x1="549.477" y1="88.9592" x2="554.914" y2="88.9592" gradientUnits="userSpaceOnUse">
<stop stop-color="#69DAF9"/>
<stop offset="1" stop-color="#419ED9"/>
</linearGradient>
<linearGradient id="paint55_linear_61_156" x1="628.219" y1="69.3317" x2="633.657" y2="69.3317" gradientUnits="userSpaceOnUse">
<stop stop-color="#69DAF9"/>
<stop offset="1" stop-color="#419ED9"/>
</linearGradient>
<linearGradient id="paint56_linear_61_156" x1="706.962" y1="130.026" x2="712.399" y2="130.026" gradientUnits="userSpaceOnUse">
<stop stop-color="#69DAF9"/>
<stop offset="1" stop-color="#419ED9"/>
</linearGradient>
</defs>
</svg>
