<svg width="220" height="55" viewBox="0 0 220 55" fill="none" xmlns="http://www.w3.org/2000/svg">
<path d="M41.42 27.3603C51.2046 44.4737 37.3366 52.2263 29.95 54.9998C44.0876 53.8057 55.1916 41.9505 55.1916 27.5047C55.2012 13.0397 44.0684 1.16529 29.9019 0V0.00963051C37.6063 2.94694 50.9542 10.6899 41.42 27.3603Z" fill="#171542"/>
<path d="M25.1929 0.0283203C17.4403 2.90784 4.07316 10.5737 13.8192 27.3597C13.8674 27.2827 13.9059 27.2056 13.9541 27.1286C17.1418 22.1592 27.1094 13.1451 25.1929 0.0283203Z" fill="#501CD8"/>
<path d="M29.9027 0.00927734C28.1114 13.0297 38.0019 21.9669 41.1704 26.9266C41.257 27.071 41.3437 27.2155 41.4208 27.3599C50.955 10.6895 37.6071 2.94658 29.9027 0.00927734Z" fill="#171542"/>
<path d="M41.4215 27.3604C41.3348 27.5048 41.2578 27.6493 41.1711 27.7937C37.9737 32.7823 27.958 41.8254 29.9419 54.9999H29.9515C37.3381 52.236 51.2061 44.4738 41.4215 27.3604Z" fill="#00B0FF"/>
<path d="M13.8198 27.3599C4.07371 10.574 17.4409 2.90806 25.1934 0.0285384C25.1934 0.0189079 25.1934 0.0189079 25.1934 0.00927734C11.0751 1.23235 0 13.0683 0 27.5044C0 41.9117 11.0462 53.7476 25.1356 54.9899C17.7298 52.2741 3.81368 44.5986 13.8198 27.3599Z" fill="#F8256D"/>
<path d="M13.9543 27.5915C13.9062 27.5144 13.8677 27.4374 13.8195 27.3604C3.81341 44.599 17.7295 52.2745 25.1354 54.9903C25.145 54.9903 25.145 54.9903 25.1546 54.9903C27.2637 41.7098 17.1709 32.609 13.9543 27.5915Z" fill="#F8256D"/>
<path d="M84.9981 30.174C84.9981 30.854 84.9528 31.466 84.8621 32.01H71.0921C71.2054 33.37 71.6814 34.4353 72.5201 35.206C73.3588 35.9767 74.3901 36.362 75.6141 36.362C77.3821 36.362 78.6401 35.6027 79.3881 34.084H84.5221C83.9781 35.8973 82.9354 37.3933 81.3941 38.572C79.8528 39.728 77.9601 40.306 75.7161 40.306C73.9028 40.306 72.2708 39.9093 70.8201 39.116C69.3921 38.3 68.2701 37.1553 67.4541 35.682C66.6608 34.2087 66.2641 32.5087 66.2641 30.582C66.2641 28.6327 66.6608 26.9213 67.4541 25.448C68.2474 23.9747 69.3581 22.8413 70.7861 22.048C72.2141 21.2547 73.8574 20.858 75.7161 20.858C77.5068 20.858 79.1048 21.2433 80.5101 22.014C81.9381 22.7847 83.0374 23.884 83.8081 25.312C84.6014 26.7173 84.9981 28.338 84.9981 30.174ZM80.0681 28.814C80.0454 27.59 79.6034 26.6153 78.7421 25.89C77.8808 25.142 76.8268 24.768 75.5801 24.768C74.4014 24.768 73.4041 25.1307 72.5881 25.856C71.7948 26.5587 71.3074 27.5447 71.1261 28.814H80.0681ZM96.3265 35.614L101.086 21.164H106.152L99.1825 40H93.4025L86.4665 21.164H91.5665L96.3265 35.614ZM126.336 30.174C126.336 30.854 126.291 31.466 126.2 32.01H112.43C112.543 33.37 113.019 34.4353 113.858 35.206C114.697 35.9767 115.728 36.362 116.952 36.362C118.72 36.362 119.978 35.6027 120.726 34.084H125.86C125.316 35.8973 124.273 37.3933 122.732 38.572C121.191 39.728 119.298 40.306 117.054 40.306C115.241 40.306 113.609 39.9093 112.158 39.116C110.73 38.3 109.608 37.1553 108.792 35.682C107.999 34.2087 107.602 32.5087 107.602 30.582C107.602 28.6327 107.999 26.9213 108.792 25.448C109.585 23.9747 110.696 22.8413 112.124 22.048C113.552 21.2547 115.195 20.858 117.054 20.858C118.845 20.858 120.443 21.2433 121.848 22.014C123.276 22.7847 124.375 23.884 125.146 25.312C125.939 26.7173 126.336 28.338 126.336 30.174ZM121.406 28.814C121.383 27.59 120.941 26.6153 120.08 25.89C119.219 25.142 118.165 24.768 116.918 24.768C115.739 24.768 114.742 25.1307 113.926 25.856C113.133 26.5587 112.645 27.5447 112.464 28.814H121.406ZM140.248 20.892C142.492 20.892 144.306 21.606 145.688 23.034C147.071 24.4393 147.762 26.4113 147.762 28.95V40H143.002V29.596C143.002 28.1 142.628 26.9553 141.88 26.162C141.132 25.346 140.112 24.938 138.82 24.938C137.506 24.938 136.463 25.346 135.692 26.162C134.944 26.9553 134.57 28.1 134.57 29.596V40H129.81V21.164H134.57V23.51C135.205 22.694 136.01 22.0593 136.984 21.606C137.982 21.13 139.07 20.892 140.248 20.892ZM157.831 25.074V34.186C157.831 34.8207 157.978 35.2853 158.273 35.58C158.59 35.852 159.112 35.988 159.837 35.988H162.047V40H159.055C155.043 40 153.037 38.0507 153.037 34.152V25.074H150.793V21.164H153.037V16.506H157.831V21.164H162.047V25.074H157.831ZM182.981 30.174C182.981 30.854 182.935 31.466 182.845 32.01H169.075C169.188 33.37 169.664 34.4353 170.503 35.206C171.341 35.9767 172.373 36.362 173.597 36.362C175.365 36.362 176.623 35.6027 177.371 34.084H182.505C181.961 35.8973 180.918 37.3933 179.377 38.572C177.835 39.728 175.943 40.306 173.699 40.306C171.885 40.306 170.253 39.9093 168.803 39.116C167.375 38.3 166.253 37.1553 165.437 35.682C164.643 34.2087 164.247 32.5087 164.247 30.582C164.247 28.6327 164.643 26.9213 165.437 25.448C166.23 23.9747 167.341 22.8413 168.769 22.048C170.197 21.2547 171.84 20.858 173.699 20.858C175.489 20.858 177.087 21.2433 178.493 22.014C179.921 22.7847 181.02 23.884 181.791 25.312C182.584 26.7173 182.981 28.338 182.981 30.174ZM178.051 28.814C178.028 27.59 177.586 26.6153 176.725 25.89C175.863 25.142 174.809 24.768 173.563 24.768C172.384 24.768 171.387 25.1307 170.571 25.856C169.777 26.5587 169.29 27.5447 169.109 28.814H178.051ZM191.215 24.088C191.827 23.0907 192.62 22.3087 193.595 21.742C194.592 21.1753 195.726 20.892 196.995 20.892V25.89H195.737C194.241 25.89 193.108 26.2413 192.337 26.944C191.589 27.6467 191.215 28.8707 191.215 30.616V40H186.455V21.164H191.215V24.088ZM218.221 21.164L206.559 48.908H201.493L205.573 39.524L198.025 21.164H203.363L208.225 34.322L213.155 21.164H218.221Z" fill="#2D2D2D"/>
</svg>
