<svg width="20" height="20" viewBox="0 0 20 20" fill="none" xmlns="http://www.w3.org/2000/svg">
<path d="M6.65168 19.9922C5.47107 19.57 4.28264 19.14 3.10203 18.7177C2.85966 19.4918 2.68765 19.6169 1.85887 19.6169C1.52267 19.6169 1.17866 19.6247 0.842455 19.6169C0.342064 19.6012 0.00586396 19.2729 0.00586396 18.7725C-0.00195465 16.4894 -0.00195465 14.2142 0.00586396 11.9312C0.00586396 11.4543 0.349883 11.1181 0.818999 11.1024C1.28812 11.0868 1.75723 11.079 2.22635 11.1024C2.72674 11.1259 2.9613 11.4152 3.0864 12.1032C3.33659 12.1267 3.58679 12.1501 3.86826 12.1736C3.79007 8.71775 5.67435 6.34871 8.16067 4.30805C7.51955 4.15168 6.48749 4.52697 6.03401 5.06646C5.9871 5.12901 5.95582 5.22283 5.89328 5.24629C5.76818 5.30102 5.61962 5.32447 5.48671 5.35575C5.46325 5.20719 5.37725 5.01955 5.43198 4.9179C5.72908 4.39406 6.20602 4.07349 6.76896 3.90149C7.22244 3.76075 7.69937 3.69038 8.18413 3.58874C7.87138 3.16654 7.457 2.99453 6.94097 3.04144C6.33894 3.08835 5.76818 3.01016 5.24433 2.70524C5.0645 2.6036 4.83776 2.48632 4.98632 2.2283C5.12705 1.97029 5.32252 2.11884 5.5258 2.18139C5.91673 2.30649 6.3233 2.46286 6.72205 2.45504C7.38663 2.43159 7.95739 2.54887 8.45778 3.00235C8.49687 3.04144 8.55942 3.04926 8.71579 3.11962C8.63761 2.94762 8.60633 2.86161 8.56724 2.78342C8.3405 2.29085 8.08249 1.8061 7.88702 1.29789C7.80883 1.09461 7.80883 0.828772 7.84793 0.609851C7.91048 0.22674 8.23104 0.0156372 8.55942 0.179828C8.96599 0.383112 9.24746 0.234558 9.54457 0C9.75567 0 9.95895 0 10.1701 0C10.5844 0.430023 11.0066 0.297107 11.421 0C11.6009 0 11.7885 0 11.9683 0C12.2811 0.242377 12.586 0.375293 13.0004 0.172009C13.321 0.0156372 13.6572 0.250195 13.6806 0.641126C13.7041 0.946052 13.6728 1.27443 13.5555 1.5559C13.3444 2.08757 13.0551 2.58014 12.844 3.01016C12.9457 3.38546 13.016 3.71384 13.1177 4.0344C13.1489 4.13604 13.2271 4.22987 13.3053 4.30023C13.5477 4.51916 13.8057 4.71462 14.0559 4.92572C14.2123 5.05864 14.3217 5.23847 14.1263 5.3792C14.0324 5.44957 13.7666 5.44175 13.6962 5.37138C13.2037 4.81626 12.6955 4.73026 11.9449 4.94136C10.905 5.23847 9.80258 5.15246 8.74707 4.80844C8.66106 4.78499 8.53597 4.78499 8.47342 4.8319C6.57349 6.35653 5.03323 8.13917 4.55629 10.6177C4.47029 11.0711 4.47811 11.5481 4.47811 12.0172C4.47811 12.1345 4.61884 12.2987 4.74394 12.3612C5.24433 12.6114 5.79945 12.7678 6.26075 13.0727C7.14425 13.6513 8.14503 13.6982 9.138 13.8155C9.70876 13.8858 10.2795 13.9328 10.8425 14.0109C11.9371 14.1595 12.5235 14.8084 12.5782 15.9109C12.5782 15.9578 12.5938 16.0125 12.6095 16.0985C13.7979 15.5747 14.9629 15.0665 16.12 14.5426C16.2451 14.4879 16.3389 14.3237 16.4093 14.1986C17.2381 12.7052 17.2146 11.1572 16.683 9.58561C16.3311 8.49883 15.7291 7.56059 15.002 6.70055C14.9238 6.61454 14.8143 6.53636 14.783 6.43471C14.7283 6.28616 14.6579 6.06724 14.7283 5.9656C14.8847 5.7545 15.0723 5.88741 15.2131 6.04378C15.9715 6.89601 16.6204 7.81861 17.0582 8.87412C17.7619 10.5629 17.9027 12.2674 17.1599 14.0657C17.3788 13.9875 17.5352 13.9171 17.6994 13.8624C18.3796 13.6278 18.9973 13.8702 19.2866 14.4722C19.568 15.0665 19.3647 15.7154 18.7705 16.0907C17.0426 17.1853 15.3303 18.2955 13.5868 19.3667C13.1411 19.6403 12.6173 19.7889 12.1325 20C10.303 19.9922 8.47342 19.9922 6.65168 19.9922ZM3.0473 12.7131C3.0473 12.9789 3.07858 13.2056 3.03948 13.4089C3.00821 13.5575 2.88311 13.7686 2.76583 13.792C2.51564 13.8389 2.45309 13.62 2.45309 13.4011C2.45309 12.9554 2.44527 12.5176 2.45309 12.0719C2.46091 11.7905 2.35145 11.6575 2.06216 11.6654C1.69468 11.6732 1.33503 11.6732 0.967553 11.6654C0.678264 11.6575 0.576622 11.7983 0.576622 12.0719C0.576622 14.2455 0.584441 16.4269 0.576622 18.6005C0.576622 18.8976 0.693901 19.0383 0.991009 19.0227C1.30375 19.0149 1.6165 19.0227 1.92924 19.0227C2.40618 19.0227 2.44527 18.9836 2.44527 18.5145C2.44527 17.459 2.43745 16.4034 2.45309 15.3479C2.46091 15.0821 2.2889 14.6364 2.73456 14.6208C3.18804 14.613 3.02385 15.0586 3.03167 15.3245C3.0473 16.1063 3.0473 16.8882 3.03167 17.6701C3.02385 17.9437 3.10203 18.0844 3.37568 18.1783C4.25919 18.4832 5.12705 18.8507 6.01837 19.14C6.45622 19.2807 6.93315 19.3745 7.38663 19.3823C8.71579 19.4136 10.045 19.3823 11.3741 19.398C12.0856 19.4058 12.7267 19.2181 13.3288 18.8272C14.8299 17.8577 16.3389 16.9116 17.8479 15.9578C18.0825 15.8092 18.317 15.6763 18.536 15.5121C18.8174 15.3088 18.8722 15.0195 18.7392 14.7146C18.5985 14.3941 18.3327 14.2846 17.9965 14.3706C17.8479 14.4097 17.6994 14.4722 17.5586 14.5348C16.5422 14.9805 15.5023 15.3714 14.525 15.8874C13.0786 16.6458 11.5774 17.0211 9.95113 16.8413C9.63839 16.81 9.32564 16.8647 9.0129 16.8178C8.8878 16.8022 8.78616 16.6302 8.66888 16.5364C8.78616 16.4347 8.8878 16.2783 9.0129 16.2549C9.23964 16.208 9.48202 16.2392 9.71658 16.2392C10.4593 16.2392 11.1943 16.2392 11.9214 16.2392C12.0856 15.2541 11.6634 14.6755 10.733 14.5661C10.4984 14.5426 10.2639 14.5113 10.0371 14.4879C8.34832 14.3393 6.67514 14.1517 5.19742 13.1665C4.60321 12.7834 3.85262 12.6974 3.0473 12.7131ZM13.1959 0.828772C13.1646 0.797498 13.1333 0.766224 13.102 0.734949C12.6564 0.938233 12.2654 0.852228 11.8667 0.633307C11.7416 0.56294 11.507 0.61767 11.3585 0.695856C10.9519 0.914777 10.5766 0.906959 10.1701 0.695856C10.0293 0.625489 9.8104 0.555121 9.70094 0.61767C9.28655 0.84441 8.87217 0.946052 8.3405 0.719312C8.41869 1.0086 8.44996 1.19625 8.51251 1.37608C9.04417 2.87725 9.5602 3.17436 11.1474 3.05708C11.8901 3.00235 12.4296 2.75215 12.6955 2.02502C12.8518 1.61845 13.0317 1.2197 13.1959 0.828772ZM10.6548 4.53479C11.1552 4.45661 11.6478 4.39406 12.1325 4.30805C12.4296 4.26114 12.5704 4.08131 12.5078 3.78421C12.4453 3.4871 12.2263 3.44019 11.9683 3.50274C11.0927 3.70602 10.217 3.71384 9.34128 3.50274C9.08327 3.44019 8.86435 3.47146 8.79398 3.77639C8.73143 4.07349 8.86435 4.26114 9.16145 4.30805C9.66184 4.39406 10.1622 4.46443 10.6548 4.53479Z" fill="white"/>
<path d="M10.4283 12.0014C10.4283 11.1883 10.4439 10.4768 10.4126 9.75745C10.4048 9.64799 10.2094 9.51507 10.0764 9.4447C9.27895 9.00686 8.98184 8.32664 9.37277 7.60733C9.53696 7.3024 9.89662 7.10694 10.1625 6.84893C10.2563 6.7551 10.3892 6.65346 10.4126 6.53618C10.4596 6.31726 10.4205 6.05143 10.741 6.06707C11.0538 6.0827 11.0147 6.35635 11.0225 6.57527C11.0225 6.62219 11.0381 6.67692 11.0381 6.69255C11.3431 6.83329 11.6402 6.94275 11.8904 7.11476C11.9842 7.17731 11.9842 7.39623 12.0233 7.53696C11.8747 7.5526 11.7184 7.60733 11.5776 7.57606C11.4134 7.53696 11.2571 7.4275 11.0225 7.31022C11.0225 7.95135 11.0147 8.52211 11.0303 9.08505C11.0303 9.1476 11.1163 9.24924 11.1867 9.27269C11.9607 9.53853 12.4924 10.0076 12.4377 10.8911C12.3829 11.7668 11.8669 12.2829 11.0538 12.5096C10.9365 12.7676 11.1867 13.2289 10.7332 13.2524C10.2641 13.2758 10.5065 12.7911 10.4126 12.6191C10.0061 12.4549 9.63079 12.3376 9.29459 12.1578C9.18513 12.0952 9.16167 11.8763 9.09912 11.7277C9.25549 11.7043 9.4275 11.6339 9.56824 11.673C9.84971 11.7356 10.0999 11.8607 10.4283 12.0014ZM11.046 11.845C11.5463 11.7121 11.8747 11.2821 11.8669 10.7895C11.8591 10.3204 11.562 9.99983 11.046 9.906C11.046 10.5549 11.046 11.1961 11.046 11.845ZM10.4126 7.38841C9.9748 7.57606 9.8028 7.87316 9.81843 8.27191C9.83407 8.63157 10.0608 8.8114 10.4126 8.90522C10.4126 8.39701 10.4126 7.92008 10.4126 7.38841Z" fill="white"/>
</svg>
