<svg width="20" height="20" viewBox="0 0 20 20" fill="none" xmlns="http://www.w3.org/2000/svg">
<path d="M6.20969 19.9998C5.96411 19.8693 5.6955 19.7696 5.48061 19.593C4.92036 19.1402 4.75919 18.3728 5.04315 17.7204C5.32711 17.0604 6.01783 16.6537 6.70854 16.7381C7.46833 16.8302 8.02857 17.3597 8.15904 18.1042C8.27416 18.8026 7.92113 19.5086 7.28414 19.8233C7.16134 19.8847 7.03088 19.9384 6.90808 19.9998C6.67017 19.9998 6.43993 19.9998 6.20969 19.9998ZM6.54738 19.1709C6.9925 19.1709 7.35321 18.8179 7.36088 18.3805C7.36856 17.9277 7.00018 17.5439 6.54738 17.5439C6.0869 17.5439 5.72619 17.92 5.73387 18.3805C5.74154 18.8256 6.09458 19.1709 6.54738 19.1709Z" fill="white"/>
<path d="M13.5774 19.9998C13.3318 19.8693 13.0632 19.7696 12.8483 19.593C12.288 19.1402 12.1269 18.3728 12.4108 17.7204C12.6948 17.0604 13.3855 16.6537 14.0762 16.7381C14.836 16.8302 15.3963 17.3597 15.5267 18.1042C15.6418 18.8026 15.2888 19.5086 14.6518 19.8233C14.529 19.8847 14.3986 19.9384 14.2758 19.9998C14.0378 19.9998 13.8076 19.9998 13.5774 19.9998ZM13.9227 19.1709C14.3679 19.1633 14.7209 18.8102 14.7286 18.3651C14.7286 17.9123 14.3525 17.5362 13.8997 17.5439C13.4392 17.5516 13.0862 17.9277 13.1015 18.3881C13.1169 18.8409 13.4776 19.1786 13.9227 19.1709Z" fill="white"/>
<path d="M4.80516 13.4611C4.62097 12.5248 4.45213 11.6499 4.27561 10.7749C3.82281 8.50327 3.37001 6.23926 2.91721 3.96758C2.75604 3.15407 2.33394 2.80871 1.51276 2.80104C1.1674 2.80104 0.822042 2.80104 0.476685 2.80104C0.208074 2.80104 0.0162091 2.68592 0.000859885 2.40963C-0.0144893 2.12567 0.177376 1.98753 0.438312 1.97986C0.921812 1.97218 1.41299 1.94916 1.89649 1.9952C2.82511 2.0873 3.48513 2.71662 3.68467 3.63757C3.79979 4.15944 3.89956 4.68899 4.01468 5.24924C4.85121 5.24924 5.68006 5.24924 6.50892 5.24924C6.64706 5.24924 6.79288 5.24156 6.93102 5.24924C7.18429 5.26458 7.34545 5.39505 7.35313 5.65599C7.3608 5.91693 7.18429 6.06274 6.9387 6.07042C6.41683 6.08577 5.88728 6.07809 5.36541 6.07809C4.98168 6.07809 4.60562 6.07809 4.19119 6.07809C4.41375 7.20626 4.62864 8.28838 4.84353 9.36282C5.09679 10.6138 5.35006 11.8647 5.59564 13.1234C5.63402 13.3152 5.66471 13.4534 5.91798 13.4534C9.10294 13.4457 12.2879 13.4457 15.4729 13.4457C15.5112 13.4457 15.5496 13.4304 15.634 13.415C15.6954 13.0927 15.7645 12.7627 15.8336 12.425C15.895 12.141 16.0331 11.9338 16.3554 12.0029C16.6624 12.072 16.7008 12.3099 16.6471 12.5785C16.5703 12.9545 16.4936 13.3306 16.4245 13.7066C16.3247 14.1901 16.2557 14.2592 15.7645 14.2592C13.4851 14.2592 11.2135 14.2592 8.93409 14.2592C7.29941 14.2592 5.65704 14.2592 4.02235 14.2592C3.92258 14.2592 3.81514 14.2515 3.71537 14.2669C3.46978 14.2899 3.29326 14.405 3.30094 14.6736C3.30094 14.9346 3.46978 15.065 3.71537 15.0804C3.83049 15.0881 3.9456 15.0804 4.06072 15.0804C8.45827 15.0804 12.8635 15.0804 17.261 15.0804C17.3915 15.0804 17.545 15.0344 17.6371 15.0957C17.7906 15.1955 17.9748 15.349 17.9978 15.5025C18.0131 15.6176 17.7983 15.7788 17.6601 15.8862C17.6064 15.9323 17.4836 15.9016 17.3992 15.9016C12.8865 15.9016 8.36617 15.9016 3.85351 15.9016C3.66164 15.9016 3.46978 15.8786 3.28559 15.8248C2.74837 15.656 2.41068 15.0957 2.47208 14.5355C2.54115 13.9599 3.0093 13.4918 3.59257 13.4611C3.96863 13.438 4.36771 13.4611 4.80516 13.4611Z" fill="white"/>
<path d="M13.4697 6.72272C13.6385 6.53086 13.7844 6.36969 13.9225 6.20853C14.6132 5.41804 15.3039 4.63523 15.9946 3.84475C16.1788 3.63753 16.3937 3.54544 16.624 3.7373C16.8542 3.93684 16.8005 4.16708 16.6163 4.3743C15.703 5.42572 14.7821 6.47714 13.8611 7.52088C13.6155 7.79717 13.416 7.79717 13.1397 7.52856C12.6408 7.03738 12.142 6.53853 11.6431 6.03968C11.4513 5.84782 11.3515 5.62526 11.5664 5.40269C11.7966 5.16478 12.0269 5.25687 12.2264 5.46409C12.6408 5.87084 13.0399 6.28527 13.4697 6.72272Z" fill="white"/>
<path d="M14.2986 11.3814C11.1596 11.3814 8.604 8.82579 8.604 5.68688C8.604 2.54797 11.1596 0 14.2986 0C17.4375 0 19.9931 2.55564 19.9931 5.69455C19.9931 8.83346 17.4375 11.3814 14.2986 11.3814ZM14.2986 0.76746C11.5817 0.76746 9.37146 2.97774 9.37146 5.69455C9.37146 8.41136 11.5817 10.6216 14.2986 10.6216C17.0154 10.6216 19.2256 8.41136 19.2256 5.69455C19.2256 2.97774 17.0154 0.76746 14.2986 0.76746Z" fill="white"/>
</svg>
