<svg width="21" height="20" viewBox="0 0 21 20" fill="none" xmlns="http://www.w3.org/2000/svg">
<path d="M20.7969 13.7948C20.2097 13.9986 20.0059 13.8518 20.0059 13.2158C20.0059 12.5308 20.0059 11.8458 20.0059 11.0711C19.8265 11.2423 19.7204 11.332 19.6144 11.4381C17.7389 13.3055 15.8714 15.181 13.9959 17.0485C13.5392 17.5051 13.4251 17.5051 12.9684 17.0485C11.9735 16.0454 10.9787 15.0506 9.96748 14.0312C9.86147 14.0883 9.76361 14.1373 9.67391 14.1862C6.75454 16.0618 3.81886 17.9292 0.891339 19.7966C0.801638 19.8537 0.736401 19.9352 0.654854 20.0005C0.516225 20.0005 0.38575 20.0005 0.247121 20.0005C-0.111684 19.5846 -0.0872198 19.3889 0.369441 19.0953C3.4519 17.13 6.53436 15.181 9.60867 13.2076C9.94301 12.9956 10.1877 13.0201 10.4649 13.3055C11.4516 14.3167 12.4546 15.3115 13.4169 16.2738C15.3659 14.3248 17.3067 12.3922 19.2556 10.435C18.9784 10.435 18.6603 10.435 18.3505 10.435C17.902 10.435 17.4535 10.4432 17.0049 10.4269C16.744 10.4187 16.5564 10.2882 16.5564 10.0028C16.5564 9.70111 16.744 9.56249 17.0294 9.56249C18.1548 9.55433 19.2801 9.55433 20.4136 9.57064C20.5441 9.57064 20.6827 9.6685 20.8132 9.72558C20.7969 11.0793 20.7969 12.4411 20.7969 13.7948Z" fill="white"/>
<path d="M0.875 7.85058C0.899464 3.13719 4.3652 -0.157296 8.61377 0.00579684C12.7074 0.160735 15.9367 3.7651 15.6431 7.89136C15.48 10.1747 14.4444 12.0095 12.6014 13.3713C12.4383 13.4936 12.1284 13.5507 11.949 13.4855C11.631 13.3631 11.6962 12.9799 12.055 12.7108C13.2048 11.8627 14.0448 10.7781 14.4607 9.40812C15.2354 6.83941 14.6972 4.53979 12.7563 2.68053C10.8318 0.837573 8.49961 0.356447 6.00428 1.28608C3.50896 2.22387 2.08189 4.09944 1.78832 6.75786C1.4866 9.55491 2.98706 12.1236 5.53947 13.3061C5.63732 13.355 5.74333 13.3876 5.83303 13.4447C6.06952 13.567 6.18368 13.7546 6.06952 14.0155C5.95535 14.2601 5.75149 14.3499 5.49869 14.2357C5.1562 14.0807 4.79739 13.9258 4.47936 13.7301C2.11451 12.2623 0.956547 10.1176 0.875 7.85058Z" fill="white"/>
<path d="M8.7115 10.4673C8.7115 10.8832 8.7115 11.2583 8.7115 11.6416C8.7115 11.9351 8.58918 12.1635 8.263 12.1553C7.94496 12.1472 7.8308 11.927 7.8308 11.6253C7.8308 11.2502 7.8308 10.8669 7.8308 10.4347C7.47199 10.4347 7.13765 10.4347 6.80331 10.4347C6.47712 10.4347 6.14278 10.4428 6.11016 10.0025C6.0857 9.70077 6.30588 9.56214 6.787 9.55399C7.3986 9.55399 8.0102 9.56214 8.6218 9.55399C9.20078 9.54583 9.5759 9.18703 9.56774 8.66513C9.55959 8.15954 9.20078 7.83335 8.6218 7.8252C8.3527 7.81705 8.07544 7.83335 7.80633 7.81704C6.88486 7.76812 6.18356 7.10759 6.11016 6.25135C6.02862 5.31356 6.6076 4.56333 7.53723 4.35947C7.61878 4.34316 7.70032 4.335 7.8308 4.31054C7.8308 3.92727 7.8308 3.53585 7.8308 3.14442C7.8308 2.85086 7.9205 2.61437 8.24669 2.60622C8.59734 2.58991 8.70335 2.8427 8.70335 3.14442C8.70335 3.51954 8.70335 3.90281 8.70335 4.32685C9.10293 4.32685 9.46989 4.335 9.82869 4.32685C10.1467 4.31869 10.4321 4.40024 10.424 4.7672C10.4158 5.14232 10.1304 5.20755 9.81238 5.1994C9.18447 5.1994 8.56472 5.1994 7.93681 5.1994C7.34967 5.1994 6.95825 5.55005 6.95009 6.05564C6.94194 6.56123 7.34152 6.92003 7.9205 6.92819C8.18145 6.93634 8.43424 6.92819 8.69519 6.92819C9.61667 6.95265 10.3424 7.62133 10.424 8.51019C10.5055 9.39905 9.91839 10.1737 9.01322 10.3776C8.93168 10.4102 8.84198 10.4347 8.7115 10.4673Z" fill="white"/>
</svg>
