<svg width="30" height="30" viewBox="0 0 30 30" fill="none" xmlns="http://www.w3.org/2000/svg">
<path d="M20.1337 0.0197322L20.1337 0.0198983L20.1337 0.0197322ZM25.7858 13.0429L25.7887 13.0428C27.612 13.0226 28.9574 11.6773 28.9902 9.84741C29.0033 7.97335 29.0033 6.08619 28.9902 4.21214C28.969 2.39373 27.6334 1.05078 25.7845 1.01962C23.9099 0.993455 22.0222 0.993461 20.1476 1.01964L20.1448 1.01967C18.3242 1.03987 16.986 2.37069 16.9432 4.22124C16.9346 4.8418 16.9375 5.44903 16.9404 6.06868C16.9419 6.38516 16.9434 6.70487 16.9434 7.03125C16.9434 7.35763 16.9419 7.67735 16.9404 7.99382C16.9375 8.61437 16.9346 9.22246 16.9432 9.84397C16.9743 11.6701 18.3159 13.0118 20.149 13.0429C22.0236 13.069 23.9113 13.069 25.7858 13.0429Z" stroke="white" stroke-width="2"/>
<path d="M9.90416 0.0197507L9.89038 1.01966C7.989 0.993456 6.08761 0.993448 4.18623 1.01963C2.3905 1.05076 1.04825 2.38324 1.0057 4.17261C0.997104 4.8036 0.999977 5.43292 1.00289 6.07075C1.00437 6.39486 1.00586 6.72116 1.00586 7.051C1.00586 7.37767 1.00436 7.69768 1.00287 8.01444C0.999966 8.63464 0.997117 9.24242 1.0057 9.86353C1.04851 11.6804 2.37832 13.0119 4.15981 13.0429C6.06068 13.069 7.96155 13.069 9.86242 13.0429C11.6642 13.0116 13.0119 11.674 13.0428 9.89277C13.0691 7.99385 13.0691 6.09492 13.0428 4.19599C13.0116 2.3868 11.6754 1.04989 9.88723 1.01961L9.90416 0.0197507ZM9.90416 0.0197507C12.237 0.0592521 14.0032 1.83682 14.0427 4.18057L0.00585747 4.15423C0.0585775 1.82365 1.8379 0.0592521 4.17079 0.0197507C6.08191 -0.00658357 7.99303 -0.00658357 9.90416 0.0197507Z" stroke="white" stroke-width="2"/>
<path d="M28.9971 21.94C29 21.3201 29.0029 20.7127 28.9943 20.092C28.9518 18.325 27.6188 16.9972 25.8545 16.967L25.8513 16.9669C23.9287 16.9277 22.0194 16.9277 20.0968 16.9669L20.0936 16.967C18.329 16.9972 16.9972 18.3379 16.967 20.0906L16.9669 20.0938C16.9277 22.0148 16.9277 23.9227 16.9669 25.8437L16.967 25.847C16.9972 27.6085 18.3379 28.9403 20.0937 28.9705L20.0968 28.9706C22.0194 29.0098 23.9287 29.0098 25.8513 28.9706L25.8544 28.9705C27.5995 28.9405 28.9401 27.6049 28.9943 25.8427C29.0029 25.1959 29 24.5563 28.9971 23.9067C28.9956 23.5755 28.9941 23.2417 28.9941 22.9029C28.9941 22.5764 28.9956 22.2566 28.9971 21.94Z" stroke="white" stroke-width="2"/>
<path d="M9.89098 15.9573L9.8772 16.9572C7.97582 16.931 6.07443 16.9309 4.17305 16.9571C2.38546 16.9881 1.04831 18.3258 1.00569 20.1235C0.997118 20.7358 0.999965 21.3463 1.00287 21.9693C1.00436 22.2875 1.00586 22.6091 1.00586 22.9358C1.00586 23.2657 1.00437 23.592 1.00289 23.9161C0.999977 24.5539 0.997104 25.1832 1.0057 25.8142C1.04842 27.6119 2.38563 28.9495 4.17326 28.9804C6.07395 29.0065 7.97464 29.0065 9.87533 28.9804C11.669 28.9494 13.0118 27.6066 13.0428 25.8171C13.0691 23.9182 13.0691 22.0193 13.0428 20.1204C13.0118 18.3305 11.6683 16.9875 9.87405 16.9571L9.89098 15.9573ZM9.89098 15.9573C12.2239 15.9968 14.0032 17.7743 14.0427 20.1049H0.00585747C0.0585775 17.7743 1.82472 15.9968 4.15761 15.9573C6.06873 15.9309 7.97986 15.9309 9.89098 15.9573Z" stroke="white" stroke-width="2"/>
</svg>
