<svg width="26" height="26" viewBox="0 0 26 26" fill="none" xmlns="http://www.w3.org/2000/svg">
<path d="M25.8959 1.92969C25.8959 9.31328 25.8959 16.6867 25.8959 24.0703C25.4998 25.0555 24.7584 25.6648 23.7631 26C16.5826 26 9.4123 26 2.23184 26C2.0998 25.9391 1.96777 25.868 1.82559 25.8172C0.738867 25.4008 0.00761719 24.4156 0.00761719 23.2477C-0.00253906 16.4125 -0.00253906 9.5875 0.00761719 2.75234C0.00761719 1.64531 0.576367 0.822656 1.55137 0.304688C1.7748 0.182812 2.0084 0.101562 2.24199 0C9.42246 0 16.5928 0 23.7732 0C24.7584 0.335156 25.4998 0.944531 25.8959 1.92969ZM8.89433 1.52344C6.8834 1.52344 4.9334 1.52344 2.99355 1.52344C2.01855 1.52344 1.5209 2.02109 1.5209 2.99609C1.5209 9.66875 1.5209 16.3313 1.5209 23.0039C1.5209 23.9789 2.01855 24.4766 2.9834 24.4766C9.65605 24.4766 16.3186 24.4766 22.9912 24.4766C23.9865 24.4766 24.474 23.9789 24.474 22.9734C24.474 16.3211 24.474 9.66875 24.474 3.01641C24.474 2.01094 23.9865 1.52344 22.9811 1.52344C21.1732 1.52344 19.3553 1.52344 17.5475 1.52344C17.385 1.52344 17.2225 1.52344 17.0295 1.52344C17.0295 2.78281 17.0396 3.97109 17.0295 5.14922C16.999 6.86562 15.8412 8.02344 14.1553 8.04375C13.4646 8.05391 12.7639 8.04375 12.0732 8.04375C10.0014 8.04375 8.90449 6.95703 8.90449 4.89531C8.89433 3.79844 8.89433 2.70156 8.89433 1.52344ZM15.4959 1.52344C13.8506 1.52344 12.2662 1.52344 10.6818 1.52344C10.6006 1.52344 10.5295 1.55391 10.4279 1.57422C10.4279 2.84375 10.4076 4.08281 10.4381 5.33203C10.4584 6.0125 10.9764 6.47969 11.667 6.5C12.5303 6.52031 13.3936 6.52031 14.2467 6.5C14.9373 6.47969 15.4654 6.02266 15.4857 5.33203C15.5264 4.10313 15.4959 2.85391 15.4959 1.52344Z" fill="#E5E5E5"/>
</svg>
