<svg width="37" height="26" viewBox="0 0 37 26" fill="none" xmlns="http://www.w3.org/2000/svg">
<path d="M36.5005 22.8626C36.0001 23.4632 35.371 23.6347 34.5989 23.6204C32.5257 23.5775 30.4526 23.6061 28.3651 23.6061C28.3365 23.7634 28.2936 23.8778 28.2793 23.9922C28.122 25.3648 27.45 25.9939 26.0775 25.9939C21.7595 25.9939 17.4559 25.9939 13.138 25.9939C12.2515 25.9939 11.3794 26.0082 10.4929 25.9939C9.37769 25.9796 8.74859 25.5506 8.44834 24.4783C8.33395 24.0494 8.07659 24.0637 7.76204 24.0637C5.80325 24.0637 3.85876 24.0637 1.89997 24.0637C0.541682 24.0637 0.0126651 23.5203 0.0126651 22.1478C0.0126651 21.3185 -0.0445259 20.4749 0.0841539 19.6457C0.856232 14.5985 6.21789 11.9249 10.7503 14.3126C10.8504 14.3698 10.9647 14.427 11.0648 14.4842C15.7116 10.5809 20.4441 10.4665 25.2911 14.2125C26.9353 13.1688 28.7797 12.7112 30.7671 13.1259C33.3979 13.6692 35.1851 15.2277 36.186 17.7155C36.286 17.9585 36.3718 18.1873 36.4719 18.4303C36.5005 19.903 36.5005 21.3757 36.5005 22.8626ZM18.3567 24.8071C20.9017 24.8071 23.461 24.8071 26.006 24.8071C26.8638 24.8071 27.0783 24.5927 27.0783 23.7634C27.0783 22.9055 27.0926 22.0477 27.0783 21.1898C26.9925 16.7718 23.5182 13.0687 19.1288 12.7255C14.5821 12.3681 10.5215 15.3706 9.76373 19.76C9.54926 21.0182 9.63505 22.3193 9.59216 23.6061C9.56356 24.6356 9.74943 24.8071 10.7789 24.8071C13.3096 24.8071 15.8403 24.8071 18.3567 24.8071ZM28.2793 22.4337C30.5813 22.4337 32.7688 22.448 34.9564 22.4051C35.1279 22.4051 35.4139 22.0477 35.4568 21.8189C35.5283 21.2756 35.4854 20.7323 35.4854 20.1747C35.4282 17.115 33.3121 14.6843 30.281 14.2268C28.794 13.998 27.4072 14.3269 26.0918 15.1562C27.7789 17.2865 28.408 19.7028 28.2793 22.4337ZM10.3499 15.4993C6.94707 13.2403 2.00005 15.4707 1.34236 19.517C1.19938 20.3748 1.27087 21.2756 1.21368 22.1478C1.17078 22.7197 1.42814 22.8912 1.97146 22.8769C3.91595 22.8484 5.87474 22.8626 7.81923 22.8626C8.00511 22.8626 8.17668 22.8198 8.41974 22.7912C8.23387 20.1318 8.7057 17.6869 10.3499 15.4993Z" fill="#E5E5E5"/>
<path d="M18.1702 6.27567e-05C21.1441 0.0143605 23.589 2.45928 23.589 5.41891C23.589 8.39284 21.0869 10.8521 18.0844 10.8235C15.0961 10.7949 12.6655 8.36425 12.6655 5.40461C12.6798 2.41638 15.1533 -0.014235 18.1702 6.27567e-05ZM13.8665 5.41891C13.8808 7.73515 15.7538 9.60815 18.113 9.62245C20.4864 9.63675 22.4023 7.73515 22.4023 5.39031C22.4023 3.07408 20.5007 1.20107 18.1559 1.18678C15.7967 1.17248 13.8665 3.07408 13.8665 5.41891Z" fill="#E5E5E5"/>
<path d="M29.3942 3.70264C31.7248 3.70264 33.6407 5.58994 33.6407 7.90618C33.6407 10.2224 31.7391 12.124 29.4085 12.124C27.078 12.124 25.1621 10.251 25.1621 7.92047C25.1621 5.60424 27.0494 3.70264 29.3942 3.70264ZM26.3345 7.83469C26.3059 9.50752 27.6213 10.8801 29.3228 10.9373C30.9813 10.9945 32.4111 9.6362 32.454 7.97766C32.4969 6.33342 31.1529 4.93224 29.4657 4.87505C27.8072 4.83216 26.3774 6.19044 26.3345 7.83469Z" fill="#E5E5E5"/>
<path d="M11.5074 8.19328C11.5074 10.5238 9.62007 12.4111 7.27524 12.4111C4.94471 12.4111 3.02881 10.5238 3.02881 8.20758C3.02881 5.90564 4.93041 4.00404 7.26094 3.98975C9.60577 3.98975 11.5074 5.87705 11.5074 8.19328ZM10.335 8.26477C10.3636 6.59194 9.01957 5.21935 7.33243 5.17646C5.67389 5.13357 4.24412 6.49185 4.21552 8.15039C4.17263 9.79463 5.53092 11.1958 7.21805 11.2387C8.87659 11.2816 10.3064 9.92331 10.335 8.26477Z" fill="#E5E5E5"/>
</svg>
