<svg width="30" height="30" viewBox="0 0 30 30" fill="none" xmlns="http://www.w3.org/2000/svg">
<path d="M13.1169 30C12.1798 29.59 11.6878 28.8989 11.6761 27.868C11.6761 27.7275 11.6292 27.5986 11.6175 27.458C11.4301 25.9235 11.4301 25.9235 9.9424 25.408C9.80184 25.3612 9.56755 25.4315 9.43869 25.5252C8.91156 25.9 8.41956 26.3218 7.90414 26.6966C7.02558 27.3409 6.10016 27.2823 5.31531 26.5209C4.68274 25.9118 4.06189 25.2909 3.45275 24.6583C2.71476 23.8969 2.65619 22.9715 3.28875 22.1164C3.67532 21.6009 4.09703 21.1089 4.46017 20.5818C4.5656 20.4178 4.5656 20.1367 4.53046 19.9258C4.3196 18.7661 3.60504 18.2858 2.44533 18.3678C2.19934 18.3913 1.94162 18.3093 1.69563 18.2741C0.676494 18.1218 0.0204998 17.3838 0.00878563 16.353C-0.00292854 15.451 -0.00292854 14.5607 0.00878563 13.6587C0.0204998 12.6279 0.676494 11.8899 1.69563 11.7376C2.32819 11.6439 2.97247 11.597 3.60504 11.4799C3.79246 11.4447 3.9916 11.269 4.09703 11.105C4.75303 10.1328 4.65931 9.26591 3.74561 8.48106C3.52304 8.29364 3.37075 8.03592 3.20676 7.78993C2.67962 7.01679 2.72647 6.1148 3.37075 5.42366C4.02675 4.73253 4.70617 4.0531 5.39731 3.39711C6.10016 2.7294 7.01386 2.67083 7.81043 3.23311C8.36099 3.63139 8.87642 4.08825 9.43869 4.47481C9.59098 4.58024 9.84869 4.58024 10.0478 4.5451C11.1724 4.33424 11.723 3.65482 11.6292 2.4834C11.6175 2.36626 11.6761 2.24912 11.6761 2.13198C11.6878 1.10113 12.1798 0.409996 13.1169 0C14.3704 0 15.6121 0 16.8655 0C17.8026 0.398282 18.2712 1.10113 18.3063 2.13198C18.3298 2.63569 18.4118 3.1394 18.5055 3.63139C18.5406 3.80711 18.6929 3.98282 18.8452 4.08825C19.8057 4.73253 20.6843 4.68567 21.4692 3.77196C21.6332 3.58454 21.8557 3.45568 22.0666 3.3034C22.9451 2.65912 23.8706 2.70597 24.6554 3.4674C25.288 4.07653 25.9088 4.69738 26.518 5.32995C27.2794 6.1148 27.338 7.04022 26.682 7.91878C26.2954 8.43421 25.8854 8.9262 25.5105 9.45334C25.4168 9.57048 25.3465 9.76962 25.3817 9.89848C25.8034 11.3979 25.862 11.433 27.3965 11.6087C27.5137 11.6205 27.6308 11.6556 27.7479 11.6556C28.6382 11.6673 29.3645 12.0187 29.8682 12.7684C29.8682 14.2561 29.8682 15.7321 29.8682 17.2198C29.3528 17.9578 28.6382 18.2975 27.7479 18.3327C27.2794 18.3561 26.8108 18.4264 26.354 18.5201C26.1783 18.5553 25.9674 18.7075 25.8971 18.8598C25.2645 20.2538 25.2763 20.2538 26.2134 21.4721C26.3657 21.6712 26.5297 21.8704 26.682 22.0695C27.3262 22.9481 27.2794 23.8735 26.518 24.6583C25.9088 25.2909 25.288 25.9118 24.6554 26.5209C23.8706 27.2823 22.9451 27.3409 22.0666 26.6849C21.5863 26.3217 21.106 25.9586 20.6374 25.572C20.3914 25.3612 20.1923 25.3729 19.8643 25.4549C18.7515 25.736 18.2712 26.4037 18.3532 27.5166C18.3649 27.6103 18.318 27.704 18.3063 27.8095C18.2946 28.852 17.8143 29.5783 16.8538 29.9883C15.6121 30 14.3704 30 13.1169 30ZM9.62612 23.8969C9.76669 23.9438 9.83698 23.9555 9.90726 23.9906C10.6687 24.3069 11.4418 24.5881 12.1681 24.9512C12.3907 25.0683 12.5898 25.3963 12.6367 25.6658C12.7889 26.4506 12.8709 27.2472 12.9647 28.0437C13.0232 28.5474 13.2927 28.7583 13.7847 28.7466C14.6046 28.7349 15.4246 28.7349 16.2446 28.7466C16.7132 28.7466 16.9709 28.5474 17.0295 28.0672C17.1232 27.2706 17.2521 26.4857 17.334 25.6892C17.3809 25.2323 17.5918 24.998 18.0135 24.8575C18.6343 24.6349 19.2552 24.4006 19.8526 24.0961C20.2626 23.8852 20.5789 23.9203 20.9186 24.2015C21.5277 24.6935 22.1603 25.1503 22.7577 25.6423C23.1677 25.9703 23.5191 25.9469 23.8823 25.5603C24.4211 24.998 24.9717 24.4358 25.5457 23.9086C25.9791 23.4986 25.9674 23.1355 25.6043 22.6904C25.1357 22.1164 24.7023 21.5072 24.2337 20.9449C23.9291 20.5818 23.8823 20.2655 24.1166 19.8321C24.4094 19.2698 24.6437 18.6607 24.8545 18.0515C25.0068 17.6064 25.2411 17.3721 25.7214 17.337C26.4945 17.2667 27.2677 17.1378 28.0408 17.0441C28.5328 16.9856 28.7671 16.7396 28.7554 16.2358C28.7437 15.4159 28.7437 14.5959 28.7554 13.7759C28.7671 13.2722 28.5328 13.0262 28.0291 12.9676C27.256 12.8856 26.4828 12.745 25.7097 12.6747C25.2645 12.6279 25.0185 12.4287 24.8663 12.007C24.632 11.3627 24.3743 10.7302 24.0814 10.121C23.9057 9.75791 23.9174 9.46505 24.1634 9.14877C24.6671 8.52792 25.1357 7.88364 25.6394 7.26279C25.9674 6.85279 25.9674 6.51308 25.5808 6.13823C25.0068 5.58766 24.4328 5.02538 23.8823 4.43967C23.5191 4.0531 23.1677 4.04139 22.7577 4.36939C22.1369 4.8731 21.4926 5.35338 20.8717 5.84537C20.5554 6.09137 20.2743 6.1148 19.8995 5.93909C19.2903 5.64623 18.6577 5.38852 18.0135 5.15424C17.5918 5.00195 17.3809 4.76767 17.334 4.31082C17.2521 3.51425 17.1232 2.7294 17.0295 1.93284C16.9709 1.45256 16.7132 1.25342 16.2446 1.26513C15.4012 1.27684 14.5695 1.27684 13.7261 1.26513C13.2809 1.26513 13.0349 1.46427 12.9764 1.90941C12.8709 2.71769 12.7538 3.53768 12.6601 4.34596C12.6132 4.77938 12.4024 5.00195 12.0158 5.14252C11.3715 5.37681 10.739 5.6228 10.1298 5.92737C9.74326 6.1148 9.4387 6.09137 9.1107 5.82194C8.47813 5.32995 7.83385 4.84967 7.213 4.34596C6.82644 4.02968 6.48672 4.0531 6.1353 4.41624C5.58473 4.99024 5.02245 5.56423 4.43674 6.1148C4.02675 6.50137 4.03846 6.86451 4.37817 7.28622C4.87017 7.89535 5.33873 8.5162 5.81902 9.12534C6.06501 9.42991 6.10016 9.72276 5.92444 10.0976C5.63159 10.7302 5.36216 11.3862 5.11617 12.0422C4.96388 12.4405 4.7296 12.6279 4.30789 12.6747C3.53475 12.7567 2.76162 12.8856 1.98848 12.9676C1.47306 13.0262 1.22706 13.2722 1.23877 13.811C1.2622 14.6076 1.2622 15.4159 1.23877 16.2124C1.22706 16.7513 1.47306 16.9973 1.98848 17.0558C2.76162 17.1378 3.53475 17.2667 4.30789 17.3487C4.7296 17.3955 4.96388 17.583 5.11617 17.9813C5.36216 18.6373 5.61987 19.2932 5.92444 19.9258C6.10016 20.3007 6.0533 20.5818 5.8073 20.8981C5.30359 21.5189 4.82331 22.1632 4.33132 22.7841C4.02675 23.1706 4.01503 23.5103 4.38989 23.8618C4.97559 24.4358 5.5613 25.0098 6.12358 25.5955C6.47501 25.9586 6.81472 25.9703 7.20129 25.6658C7.81043 25.1738 8.43128 24.7052 9.05213 24.2366C9.23955 24.0843 9.45041 23.9906 9.62612 23.8969Z" fill="#E5E5E5"/>
<path d="M14.9913 21.2496C11.5239 21.2496 8.73588 18.4616 8.7476 15.0059C8.7476 11.5385 11.5473 8.76225 15.0147 8.77396C18.4586 8.78568 21.2232 11.5502 21.2349 14.9942C21.2349 18.4499 18.4586 21.2378 14.9913 21.2496ZM9.9893 14.9473C9.95416 17.6767 12.1681 19.9493 14.921 20.0079C17.6387 20.0664 19.9229 17.8407 19.9932 15.0879C20.0518 12.3468 17.8027 10.0274 15.0381 10.004C12.297 9.96881 10.0244 12.2062 9.9893 14.9473Z" fill="#E5E5E5"/>
</svg>
