<svg width="20" height="26" viewBox="0 0 20 26" fill="none" xmlns="http://www.w3.org/2000/svg">
<path d="M0 13.0112C0 9.51462 0 6.02929 0 2.53275C0 0.896548 0.885341 0.0112069 2.52154 0.0112069C6.18618 0.0112069 9.83962 0.0112069 13.5043 0C13.9077 0 14.1991 0.112069 14.4905 0.403447C16.1042 2.03965 17.7404 3.64223 19.343 5.28963C19.5448 5.50256 19.7016 5.86118 19.7016 6.16377C19.7241 11.9689 19.7241 17.7741 19.7241 23.5792C19.7241 25.0697 18.8051 25.9999 17.3258 25.9999C12.3612 25.9999 7.39652 25.9999 2.42068 25.9999C0.930169 26.0111 0 25.0809 0 23.6016C0 20.0715 0 16.5413 0 13.0112ZM13.4482 0.907755C13.1905 0.907755 13.0336 0.907755 12.8655 0.907755C9.42496 0.907755 5.99567 0.907755 2.55516 0.907755C1.36724 0.907755 0.896548 1.37844 0.896548 2.57758C0.896548 9.52583 0.896548 16.4741 0.896548 23.4111C0.896548 24.6439 1.35603 25.1034 2.57758 25.1034C7.43014 25.1034 12.2827 25.1034 17.1465 25.1034C18.368 25.1034 18.8275 24.6327 18.8275 23.3999C18.8275 17.9086 18.8275 12.4172 18.8275 6.92584C18.8275 6.72411 18.8275 6.52239 18.8275 6.27584C17.8189 6.27584 16.8775 6.27584 15.9249 6.27584C14.356 6.27584 13.4594 5.36808 13.4482 3.81033C13.4482 2.86895 13.4482 1.92758 13.4482 0.907755ZM17.9646 5.37929C16.7542 4.16895 15.5439 2.95861 14.356 1.75948C14.356 2.52154 14.3224 3.36206 14.3672 4.19136C14.4008 4.85257 14.9499 5.35688 15.6336 5.37929C16.4292 5.4017 17.2249 5.37929 17.9646 5.37929Z" fill="#E5E5E5"/>
<path d="M11.2072 21.7526C11.2072 21.4948 11.1848 21.2258 11.2072 20.9681C11.2744 20.1724 11.0951 19.5112 10.5796 18.8276C9.32445 17.1578 9.72789 14.7707 11.3641 13.4595C12.9779 12.1595 15.3089 12.294 16.7658 13.7733C18.2451 15.275 18.3348 17.6284 16.9339 19.2086C16.6649 19.5224 16.5641 19.8138 16.5753 20.206C16.5977 21.3267 16.5865 22.4474 16.5753 23.5681C16.5753 24.1957 16.2615 24.3638 15.7124 24.05C15.2305 23.7698 14.7374 23.5008 14.2779 23.1758C13.9865 22.9741 13.7624 22.9965 13.471 23.187C13.0227 23.4896 12.552 23.7474 12.0813 24.0276C11.4986 24.375 11.196 24.2181 11.196 23.5457C11.2072 22.9405 11.2072 22.3465 11.2072 21.7526ZM17.0348 16.6198C17.046 14.894 15.6451 13.4707 13.9193 13.4707C12.1934 13.4595 10.7701 14.8604 10.7701 16.5862C10.7589 18.3009 12.1598 19.7241 13.8744 19.7241C15.6003 19.7353 17.0236 18.3345 17.0348 16.6198ZM15.6563 20.2172C14.4572 20.7776 13.3029 20.7327 12.1486 20.2396C12.1486 21.1474 12.1486 22.0103 12.1486 22.9405C12.5968 22.6827 12.9891 22.481 13.3477 22.212C13.7399 21.9207 14.0762 21.9543 14.4684 22.2233C14.827 22.481 15.2192 22.6827 15.6563 22.9405C15.6563 22.0215 15.6563 21.1698 15.6563 20.2172Z" fill="#E5E5E5"/>
<path d="M9.89593 7.18309C11.7002 7.18309 13.5157 7.18309 15.32 7.18309C15.4882 7.18309 15.6787 7.14947 15.8132 7.22792C15.9476 7.30637 16.1157 7.49689 16.1157 7.63137C16.1157 7.77706 15.9588 7.95637 15.8244 8.03481C15.6899 8.11326 15.4994 8.07964 15.3313 8.07964C11.689 8.07964 8.05801 8.07964 4.41578 8.07964C4.30371 8.07964 4.15802 8.12447 4.09078 8.06844C3.91147 7.94516 3.76578 7.77706 3.60889 7.63137C3.76578 7.48568 3.91147 7.22792 4.09078 7.20551C4.50543 7.13827 4.9425 7.18309 5.37957 7.18309C6.87008 7.18309 8.38301 7.18309 9.89593 7.18309Z" fill="#E5E5E5"/>
<path d="M9.80652 11.6671C7.9798 11.6671 6.15308 11.6671 4.32637 11.6671C4.00137 11.6671 3.63154 11.6671 3.60913 11.2412C3.59792 10.7593 3.97895 10.7705 4.32637 10.7705C8.02463 10.7705 11.7117 10.7705 15.4099 10.7705C15.7349 10.7705 16.1048 10.7593 16.1272 11.1964C16.1384 11.6671 15.7574 11.6671 15.4099 11.6671C13.5384 11.6671 11.6669 11.6671 9.80652 11.6671Z" fill="#E5E5E5"/>
<path d="M8.1255 3.59812C9.36946 3.59812 10.6246 3.59812 11.8686 3.59812C12.1936 3.59812 12.5186 3.63174 12.5298 4.02398C12.5522 4.46104 12.216 4.50587 11.8686 4.50587C9.33584 4.50587 6.80309 4.50587 4.25913 4.50587C3.93413 4.50587 3.62034 4.47225 3.59793 4.08001C3.58672 3.63174 3.92293 3.58691 4.27034 3.59812C5.55913 3.59812 6.83671 3.59812 8.1255 3.59812Z" fill="#E5E5E5"/>
<path d="M6.51162 15.2523C5.74955 15.2523 4.98749 15.2523 4.22542 15.2523C3.88922 15.2523 3.56422 15.1627 3.63146 14.7816C3.66508 14.6135 4.00129 14.3782 4.21422 14.367C5.73835 14.3334 7.26248 14.3446 8.79782 14.3446C9.13402 14.3446 9.45902 14.4342 9.39178 14.8153C9.35816 14.9834 9.02196 15.2075 8.80903 15.2299C8.03575 15.2859 7.27369 15.2523 6.51162 15.2523Z" fill="#E5E5E5"/>
<path d="M6.49992 18.8392C5.73786 18.8392 4.97579 18.8392 4.21373 18.8392C3.87752 18.8392 3.55252 18.7496 3.63097 18.3685C3.66459 18.2004 4.012 17.9651 4.21373 17.9539C5.73786 17.9203 7.26199 17.9315 8.79733 17.9315C9.13353 17.9315 9.45853 18.0211 9.39129 18.4022C9.35767 18.5703 9.02147 18.7944 8.80854 18.8168C8.03526 18.8729 7.26199 18.8392 6.49992 18.8392Z" fill="#E5E5E5"/>
</svg>
