<svg width="22" height="26" viewBox="0 0 22 26" fill="none" xmlns="http://www.w3.org/2000/svg">
<path d="M19.3553 26C13.5967 26 7.83809 26 2.07949 26C0.809961 25.5734 0.00761719 24.7508 0.00761719 23.3391C-0.00253906 16.443 -0.00253906 9.55703 0.00761719 2.66094C0.00761719 1.37109 0.667773 0.517969 1.91699 0.0914062C1.96777 0.0710937 2.02871 0.0304688 2.08965 0C6.35527 0 10.6209 0 14.8865 0C14.9373 0.0609375 14.9779 0.132031 15.0389 0.192969C17.0498 2.20391 19.0607 4.20469 21.0615 6.22578C21.2545 6.41875 21.4373 6.74375 21.4373 6.99766C21.4576 12.4617 21.4576 17.9258 21.4475 23.3898C21.4475 24.6289 20.767 25.5023 19.599 25.8984C19.5076 25.9188 19.4365 25.9695 19.3553 26ZM20.3811 7.34297C20.1576 7.34297 19.9748 7.34297 19.792 7.34297C18.7764 7.34297 17.7607 7.35313 16.7451 7.34297C15.1709 7.32266 14.1045 6.24609 14.0943 4.68203C14.0842 3.64609 14.0943 2.62031 14.0943 1.58438C14.0943 1.42188 14.074 1.25937 14.0639 1.08672C13.8709 1.07656 13.7186 1.06641 13.5662 1.06641C10.0115 1.06641 6.45684 1.06641 2.90215 1.06641C1.63262 1.06641 1.07402 1.625 1.07402 2.89453C1.07402 9.62813 1.07402 16.3719 1.07402 23.1055C1.07402 24.4055 1.62246 24.9539 2.93262 24.9539C8.13262 24.9539 13.3326 24.9539 18.5326 24.9539C19.8428 24.9539 20.3912 24.4055 20.3912 23.1055C20.3912 18.0578 20.3912 13.0203 20.3912 7.97266C20.3811 7.77969 20.3811 7.59688 20.3811 7.34297ZM19.4467 6.28672C18.0248 4.86484 16.6029 3.44297 15.1912 2.04141C15.1912 3.01641 15.1404 4.05234 15.2115 5.08828C15.2521 5.76875 15.9123 6.26641 16.6436 6.28672C17.5881 6.30703 18.5326 6.28672 19.4467 6.28672Z" fill="#E5E5E5"/>
<path d="M10.6928 11.6395C8.79356 11.6395 6.90449 11.6395 5.00527 11.6395C4.85293 11.6395 4.65996 11.6902 4.5584 11.6192C4.36543 11.477 4.08105 11.2637 4.08105 11.091C4.09121 10.9184 4.38574 10.7254 4.57871 10.5832C4.65996 10.5223 4.8123 10.5731 4.92402 10.5731C8.7834 10.5731 12.6326 10.5731 16.492 10.5731C16.624 10.5731 16.7967 10.5223 16.8881 10.5934C17.0709 10.7254 17.335 10.9184 17.335 11.1012C17.335 11.2738 17.0912 11.4871 16.9084 11.6192C16.8068 11.6902 16.6139 11.6496 16.4615 11.6496C14.5521 11.6395 12.6225 11.6395 10.6928 11.6395Z" fill="#E5E5E5"/>
<path d="M10.7729 13.0004C12.6823 13.0004 14.5916 13.0004 16.501 13.0004C16.6737 13.0004 16.887 12.9598 16.9987 13.041C17.1612 13.1629 17.3541 13.3863 17.3541 13.5691C17.3643 13.7215 17.1409 13.9246 16.9682 14.016C16.8159 14.0973 16.6026 14.0566 16.4198 14.0566C12.6112 14.0566 8.81274 14.0566 5.00415 14.0566C4.90259 14.0566 4.80102 14.0566 4.69946 14.0566C4.32368 14.0566 4.0393 13.9145 4.05962 13.5184C4.06977 13.1223 4.3643 13.0004 4.72993 13.0004C6.75102 13.0004 8.76196 13.0004 10.7729 13.0004Z" fill="#E5E5E5"/>
<path d="M10.7217 16.4841C8.83262 16.4841 6.9334 16.4841 5.04434 16.4841C4.9123 16.4841 4.77012 16.4841 4.63809 16.4841C4.30293 16.4739 4.06934 16.3114 4.06934 15.9661C4.06934 15.6309 4.27246 15.4481 4.61777 15.4278C4.71934 15.4278 4.8209 15.4278 4.92246 15.4278C8.79199 15.4278 12.6717 15.4278 16.5412 15.4278C16.6732 15.4278 16.8561 15.3872 16.9373 15.4481C17.1201 15.5903 17.3436 15.7833 17.3639 15.9763C17.374 16.1286 17.1303 16.3317 16.9576 16.4536C16.8561 16.5247 16.6631 16.4841 16.5107 16.4841C14.5709 16.4841 12.6514 16.4841 10.7217 16.4841Z" fill="#E5E5E5"/>
<path d="M7.14707 18.9115C6.35488 18.9115 5.5627 18.9013 4.76035 18.9115C4.37441 18.9115 4.05957 18.8099 4.05957 18.3732C4.05957 17.9365 4.39473 17.8451 4.78066 17.8552C6.36504 17.8654 7.95957 17.8654 9.54394 17.8552C9.91973 17.8552 10.2447 17.9466 10.2447 18.3935C10.2346 18.8404 9.90957 18.9216 9.53379 18.9115C8.7416 18.9013 7.94941 18.9115 7.14707 18.9115Z" fill="#E5E5E5"/>
<path d="M11.6269 18.9117C11.2105 18.9117 10.9261 18.7695 10.9363 18.3734C10.9465 17.9773 11.2308 17.8555 11.5965 17.8555C11.9519 17.8555 12.2058 18.0078 12.2058 18.3734C12.216 18.7594 11.9519 18.9117 11.6269 18.9117Z" fill="#E5E5E5"/>
</svg>
