<svg width="29" height="30" viewBox="0 0 29 30" fill="none" xmlns="http://www.w3.org/2000/svg">
<mask id="path-1-inside-1_50_1072" fill="white">
<path d="M15.8082 29.6506C15.4764 29.8131 15.0792 29.5709 15.0792 29.2014C15.0792 24.6302 15.0594 20.0392 15.099 15.4679C15.099 15.1117 15.3166 14.5972 15.5937 14.4587C19.7889 12.3215 24.004 10.2239 28.219 8.12623C28.3681 8.07655 28.5052 8.22784 28.5152 8.38466C28.5269 8.56896 28.5356 8.75327 28.5356 8.93758C28.5356 13.1526 28.5158 17.3677 28.5554 21.5827C28.5554 22.6315 28.1794 23.2845 27.2296 23.7595C23.4697 25.6592 19.7296 27.6183 15.9895 29.5576C15.9303 29.5895 15.87 29.6203 15.8082 29.6506Z"/>
</mask>
<path d="M15.099 15.4679L17.0989 15.4852C17.0989 15.4795 17.099 15.4737 17.099 15.4679H15.099ZM15.5937 14.4587L16.4881 16.2475C16.4926 16.2453 16.4971 16.243 16.5015 16.2408L15.5937 14.4587ZM28.5554 21.5827H30.5554C30.5554 21.5764 30.5554 21.5702 30.5553 21.5639L28.5554 21.5827ZM27.2296 23.7595L26.3351 21.9706L26.3276 21.9744L27.2296 23.7595ZM15.9895 29.5576L15.0688 27.7821C15.0596 27.7869 15.0504 27.7918 15.0413 27.7967L15.9895 29.5576ZM28.5152 8.38466L30.5112 8.25806L28.5152 8.38466ZM15.8082 29.6506L14.9284 27.8545L15.8082 29.6506ZM17.0792 29.2014C17.0792 24.6187 17.0594 20.0449 17.0989 15.4852L13.099 15.4506C13.0594 20.0334 13.0792 24.6417 13.0792 29.2014H17.0792ZM17.099 15.4679C17.099 15.5721 17.0846 15.6361 17.0793 15.6575C17.073 15.6832 17.0654 15.7048 17.0542 15.7287C17.0445 15.7494 17.0162 15.8063 16.9535 15.8837C16.8988 15.9512 16.753 16.1151 16.4881 16.2475L14.6993 12.6698C13.9574 13.0407 13.5872 13.6998 13.4307 14.0346C13.2452 14.4313 13.099 14.9383 13.099 15.4679H17.099ZM16.5015 16.2408C20.687 14.1085 24.8936 12.0151 29.1101 9.91677L27.3279 6.3357C23.1143 8.43263 18.8908 10.5344 14.6858 12.6766L16.5015 16.2408ZM26.5192 8.51125C26.5297 8.67715 26.5356 8.814 26.5356 8.93758H30.5356C30.5356 8.69254 30.524 8.46078 30.5112 8.25806L26.5192 8.51125ZM26.5356 8.93758C26.5356 13.1401 26.5158 17.3739 26.5555 21.6015L30.5553 21.5639C30.5159 17.3614 30.5356 13.1651 30.5356 8.93758H26.5356ZM26.5554 21.5827C26.5554 21.8721 26.5038 21.9071 26.5348 21.8555C26.5471 21.835 26.5551 21.8315 26.5375 21.8466C26.5159 21.8651 26.4575 21.9094 26.3351 21.9706L28.124 25.5483C28.8354 25.1926 29.5022 24.6826 29.9626 23.917C30.4191 23.1581 30.5554 22.3422 30.5554 21.5827H26.5554ZM26.3276 21.9744C22.5553 23.8804 18.799 25.848 15.0688 27.7821L16.9101 31.3331C20.6601 29.3887 24.384 27.438 28.1315 25.5446L26.3276 21.9744ZM15.0413 27.7967C15.0069 27.8152 14.9696 27.8343 14.9284 27.8545L16.6881 31.4467C16.7704 31.4063 16.8536 31.3638 16.9377 31.3186L15.0413 27.7967ZM28.8515 10.0236C28.0616 10.2869 27.3876 9.95495 27.0452 9.63127C26.73 9.3332 26.5461 8.93541 26.5192 8.51125L30.5112 8.25806C30.4743 7.67709 30.2169 7.12524 29.7933 6.72475C29.3426 6.29863 28.5255 5.91589 27.5866 6.22887L28.8515 10.0236ZM13.0792 29.2014C13.0792 31.0862 15.0596 32.2444 16.6881 31.4467L14.9284 27.8545C15.8933 27.3819 17.0792 28.0557 17.0792 29.2014H13.0792Z" fill="#E5E5E5" mask="url(#path-1-inside-1_50_1072)"/>
<path d="M12.474 26.3055C12.4747 26.9999 12.4754 27.697 12.4759 28.3971C11.5012 27.8932 10.5249 27.3861 9.54715 26.8782C6.99138 25.5507 4.42578 24.218 1.85435 22.9255L1.85244 22.9245C1.45269 22.7246 1.26815 22.5371 1.16889 22.3702C1.0683 22.2011 0.992241 21.9471 1.00006 21.5014L1.0001 21.5014L1.00018 21.4927C1.02984 18.1557 1.02621 14.8291 1.0225 11.4365C1.02183 10.8218 1.02116 10.2048 1.02068 9.58527C2.31272 10.2288 3.60476 10.8752 4.8972 11.5219C7.32944 12.7387 9.76307 13.9563 12.2006 15.1566C12.3149 15.2138 12.3848 15.2578 12.4283 15.2906C12.4491 15.3064 12.4614 15.3178 12.4682 15.3246C12.4715 15.3281 12.4736 15.3305 12.4748 15.3319L12.4764 15.3339C12.4764 15.334 12.4765 15.3342 12.4766 15.3344C12.4771 15.3356 12.4798 15.3418 12.483 15.3554C12.4899 15.3839 12.4998 15.4458 12.4966 15.559L12.4963 15.5784C12.4666 19.1223 12.4703 22.6779 12.474 26.3055Z" stroke="#E5E5E5" stroke-width="2" stroke-linejoin="round"/>
<path d="M14.7885 1.12445C18.3762 2.93603 21.9655 4.74845 25.5552 6.54674C24.9199 6.86459 24.2925 7.17962 23.6685 7.49291C22.4952 8.08206 21.3341 8.66506 20.156 9.24916L20.156 9.24914L20.1492 9.25255C18.2677 10.2032 16.3971 11.1483 14.5084 12.0533L14.4933 12.0607C14.472 12.0713 14.4389 12.085 14.3968 12.0974C14.3551 12.1096 14.3132 12.1181 14.2757 12.1223C14.2563 12.1245 14.2407 12.1253 14.2293 12.1255C10.8937 10.5031 7.5701 8.84548 4.18843 7.1589C3.78606 6.95823 3.38288 6.75714 2.97875 6.55566C3.93794 6.07399 4.89635 5.59316 5.85415 5.11263C8.44948 3.81056 11.0403 2.51074 13.6302 1.2026L13.6302 1.20262L13.6367 1.19929C14.1187 0.951402 14.4286 0.944998 14.7885 1.12445Z" stroke="#E5E5E5" stroke-width="2" stroke-linejoin="round"/>
</svg>
