<svg width="30" height="28" viewBox="0 0 30 28" fill="none" xmlns="http://www.w3.org/2000/svg">
<path d="M0 13.5819C0 11.1243 0 8.66683 0 6.19624C0 5.80409 0.0261438 5.41193 0.0653594 5.01978C0.20915 3.69951 0.928104 2.98056 2.23529 2.8237C2.57516 2.78448 2.9281 2.75834 3.28104 2.75834C5.6732 2.74527 8.06535 2.74527 10.4706 2.75834C11.3464 2.75834 11.8431 3.13742 11.8562 3.79102C11.8693 4.45768 11.3725 4.84984 10.5098 4.84984C8.05228 4.84984 5.59477 4.84984 3.12418 4.86291C2.14379 4.86291 2.10457 4.9152 2.10457 5.89559C2.0915 11.0067 2.0915 16.1309 2.10457 21.242C2.10457 22.2354 2.14379 22.2747 3.18954 22.2747C5.56862 22.2877 7.93463 22.2747 10.3137 22.2877C10.5359 22.2877 10.7582 22.2747 10.9673 22.3139C11.5163 22.4054 11.817 22.7453 11.8562 23.2812C11.8823 23.791 11.6209 24.157 11.1242 24.3139C10.9281 24.3792 10.6928 24.3792 10.4837 24.3792C8.0915 24.3792 5.69934 24.3792 3.29411 24.3792C2.90196 24.3792 2.5098 24.3531 2.11765 24.3008C0.954248 24.157 0.235294 23.425 0.0915032 22.2616C0.0392157 21.8302 0.0130719 21.3988 0.0130719 20.9544C0 18.51 0 16.0394 0 13.5819Z" fill="#E5E5E5"/>
<path d="M29.9871 13.5953C29.9871 16.0529 29.9871 18.5234 29.9871 20.981C29.9871 21.4123 29.9609 21.8568 29.9086 22.2881C29.7648 23.4515 29.0328 24.1705 27.8694 24.3143C27.5426 24.3535 27.2158 24.3927 26.889 24.3927C24.4054 24.4058 21.9217 24.4058 19.438 24.4058C18.6145 24.4058 18.1309 24.0006 18.1309 23.347C18.1309 22.6934 18.6014 22.3143 19.438 22.3143C21.8956 22.3143 24.3661 22.3143 26.8237 22.3012C27.8433 22.3012 27.8956 22.262 27.8956 21.2424C27.9086 16.1313 27.9086 11.0071 27.8956 5.896C27.8956 4.91561 27.8433 4.8764 26.8629 4.8764C24.4838 4.86332 22.1178 4.86332 19.7387 4.86332C19.5426 4.86332 19.3465 4.8764 19.1505 4.85025C18.5622 4.79796 18.157 4.39274 18.1439 3.85679C18.1309 3.32084 18.5099 2.8764 19.0851 2.78489C19.2289 2.75875 19.3858 2.77182 19.5426 2.77182C21.9217 2.77182 24.2877 2.77182 26.6668 2.77182C27.0197 2.77182 27.3596 2.79797 27.7126 2.83718C29.072 2.98097 29.791 3.69993 29.9348 5.04633C29.974 5.43849 30.0001 5.83064 30.0001 6.2228C30.0001 8.68031 29.9871 11.1378 29.9871 13.5953Z" fill="#E5E5E5"/>
<path d="M13.9476 13.5167C13.9476 9.5167 13.9476 5.50363 13.9476 1.50363C13.9476 1.30755 13.9345 1.11147 13.9607 0.915396C14.0653 0.353305 14.4051 0.0134358 14.9803 0.000363942C15.5554 -0.0127079 15.9084 0.327161 16.026 0.889252C16.0652 1.0984 16.0391 1.32062 16.0391 1.54285C16.0391 9.56898 16.0391 17.6082 16.0391 25.6343C16.0391 25.6735 16.0391 25.7258 16.0391 25.765C16.0391 26.6801 15.6469 27.1899 14.9672 27.1768C14.3136 27.1637 13.9476 26.667 13.9476 25.7912C13.9476 21.6997 13.9476 17.6082 13.9476 13.5167Z" fill="#E5E5E5"/>
</svg>
