<svg width="25" height="30" viewBox="0 0 25 30" fill="none" xmlns="http://www.w3.org/2000/svg">
<path d="M17.1995 0C19.6009 2.17884 22.0023 4.34596 24.392 6.53651C24.9075 7.00507 24.9075 7.34478 24.4037 7.80164C22.1312 9.88676 19.8469 11.9602 17.551 14.0101C17.3518 14.1859 16.9184 14.3381 16.7427 14.2444C16.5201 14.1273 16.3444 13.7407 16.321 13.4479C16.2624 12.6982 16.2975 11.9367 16.2975 11.0816C16.0281 11.0816 15.7938 11.0816 15.5713 11.0816C12.959 11.0816 10.335 11.1519 7.72277 11.0699C3.95081 10.941 2.19369 13.3073 1.45569 15.7907C1.38541 16.0133 1.38541 16.2827 1.25655 16.4584C1.09255 16.6575 0.811415 16.9153 0.612274 16.9035C0.401419 16.8918 0.213992 16.5638 0.0148512 16.3764C0.003137 16.3647 0.003137 16.3413 0.003137 16.3178C0.0499937 13.9516 -0.114005 11.5736 0.190564 9.24248C0.541989 6.47793 3.32996 4.22881 6.32879 3.98282C7.83992 3.86568 9.37447 3.91253 10.8973 3.90082C12.6662 3.8891 14.4467 3.90082 16.3093 3.90082C16.3093 2.8934 16.2741 1.92112 16.3327 0.960562C16.3561 0.632565 16.6021 0.316283 16.7427 0C16.8833 0 17.0473 0 17.1995 0ZM17.6095 12.0187C17.6564 12.0422 17.7032 12.0656 17.7501 12.089C19.5424 10.4608 21.3346 8.83248 23.1503 7.18078C21.2995 5.49394 19.4955 3.86568 17.5978 2.14369C17.5978 2.90511 17.5978 3.52596 17.5978 4.14682C17.5978 5.08395 17.4455 5.23623 16.5084 5.23623C13.5213 5.23623 10.5342 5.23623 7.54706 5.24795C7.01992 5.24795 6.48107 5.24795 5.97736 5.36509C1.83055 6.38422 0.905128 9.18391 1.37369 12.827C1.38541 12.827 1.42055 12.827 1.42055 12.8153C1.52598 12.6864 1.64312 12.5459 1.74855 12.4053C3.01368 10.8239 4.63023 9.86333 6.65678 9.82819C10.0305 9.76962 13.4041 9.79304 16.7895 9.79304C17.3518 9.79304 17.6095 10.0859 17.5978 10.6365C17.6095 11.0816 17.6095 11.5502 17.6095 12.0187Z" fill="#E5E5E5"/>
<path d="M8.17942 29.9884C8.10913 29.9064 8.03885 29.8127 7.95685 29.7424C5.48516 27.6807 3.01347 25.619 0.530067 23.5573C-0.172783 22.9716 -0.172783 22.667 0.530067 22.0813C2.9549 20.0548 5.37973 18.0282 7.82799 16.0251C8.06228 15.8377 8.51913 15.662 8.7417 15.7674C8.96427 15.8728 9.09312 16.3297 9.11655 16.6342C9.17512 17.3488 9.12827 18.0751 9.12827 18.8599C9.38598 18.8716 9.60855 18.8951 9.83112 18.8951C12.2091 18.8951 14.5988 18.8248 16.9768 18.9185C20.9596 19.0708 22.6698 16.5522 23.3844 13.9985C23.5133 13.5417 23.5601 12.9911 24.2044 13.0731C24.837 13.1551 24.7901 13.7057 24.7901 14.1743C24.7901 15.7908 24.7433 17.4191 24.8018 19.0356C24.9541 23.2059 21.4867 25.8181 18.3825 26.0173C16.4613 26.1461 14.5168 26.0758 12.5839 26.0876C11.4594 26.0993 10.3231 26.0876 9.12827 26.0876C9.12827 27.095 9.16341 28.0555 9.11655 29.0044C9.10484 29.3441 8.89398 29.6604 8.76513 30.0001C8.56599 29.9884 8.37856 29.9884 8.17942 29.9884ZM1.67806 22.8193C3.73975 24.5296 5.73116 26.193 7.82799 27.9384C7.82799 27.0598 7.82799 26.3218 7.82799 25.5839C7.82799 25.0567 8.08571 24.7873 8.61284 24.7756C8.8237 24.7756 9.04627 24.7756 9.25712 24.7756C12.1622 24.7639 15.0791 24.7873 17.9842 24.7404C19.6007 24.717 20.9596 24.0259 22.0959 22.8779C23.7124 21.2496 23.5367 19.2113 23.4547 17.0794C23.3141 17.2434 23.2438 17.3137 23.1736 17.4074C21.8264 19.2113 20.0342 20.1836 17.7733 20.2071C14.7511 20.2305 11.7171 20.2188 8.69484 20.2188C8.03885 20.2188 7.83971 19.9962 7.82799 19.3168C7.81628 18.8248 7.82799 18.3328 7.82799 17.7002C5.71944 19.4573 3.72804 21.109 1.67806 22.8193Z" fill="#E5E5E5"/>
</svg>
