<svg width="30" height="30" viewBox="0 0 30 30" fill="none" xmlns="http://www.w3.org/2000/svg">
<path d="M16.9278 5.99887C17.2543 5.84168 17.4961 5.70868 17.75 5.59986C19.467 4.78974 21.2565 5.90214 21.2807 7.80047C21.2927 8.71941 21.2807 9.65043 21.2807 10.654C22.1391 10.654 22.9613 10.654 23.7715 10.654C26.2018 10.654 27.556 12.0082 27.5681 14.4265C27.5681 15.2487 27.5681 16.0709 27.5681 16.881C29.406 17.3163 29.9864 18.0418 29.9864 19.8917C29.9864 20.2303 29.9864 20.581 29.9864 20.9195C29.9864 22.6123 29.2972 23.4345 27.5681 23.761C27.5681 24.6073 27.5681 25.4658 27.5681 26.3243C27.556 28.6096 26.1655 30.0001 23.8682 30.0001C17.1454 30.0001 10.4106 30.0001 3.68784 30.0001C1.3905 30.0001 0 28.6096 0 26.3122C0 22.2979 0 18.2957 0 14.2814C0 12.1533 1.25749 10.8233 3.38556 10.6419C3.63948 10.6177 3.90548 10.4485 4.09894 10.2792C7.00085 7.7521 9.89067 5.21293 12.7805 2.67377C13.4213 2.10548 14.1347 1.81528 14.9932 1.99665C16.1056 2.23848 16.8673 3.16951 16.9157 4.33027C16.9399 4.8502 16.9278 5.37012 16.9278 5.99887ZM26.6008 16.9294C26.6008 15.9863 26.6008 15.1399 26.6008 14.2935C26.6008 12.5765 25.6214 11.6092 23.8924 11.6092C17.1575 11.6092 10.4348 11.6092 3.69993 11.6092C1.9346 11.6213 0.967302 12.5765 0.967302 14.3298C0.967302 18.3199 0.967302 22.31 0.967302 26.3001C0.967302 28.0655 1.9346 29.0207 3.69993 29.0207C7.47241 29.0207 11.2328 29.0207 15.0053 29.0207C18.0281 29.0207 21.0509 29.0207 24.0737 29.0207C25.3433 29.0207 26.3953 28.2468 26.5283 27.0498C26.6492 25.9616 26.5525 24.8492 26.5525 23.7005C26.3227 23.7005 26.1293 23.7005 25.9358 23.7005C24.5453 23.7005 23.1548 23.7126 21.7643 23.7005C20.5915 23.6884 19.8055 23.1564 19.5758 22.0198C19.3944 21.1251 19.334 20.1698 19.4307 19.2751C19.6121 17.5702 20.4101 16.9415 22.127 16.9415C23.6022 16.9294 25.0652 16.9294 26.6008 16.9294ZM5.30807 10.5089C5.32016 10.5694 5.33225 10.6298 5.34435 10.6782C6.17864 10.6298 7.10967 10.8112 7.81097 10.4847C10.459 9.2877 13.0465 7.93347 15.6461 6.61552C15.7912 6.54297 15.9363 6.32533 15.9484 6.18024C15.9847 5.56358 15.9847 4.93483 15.9484 4.30609C15.9242 3.71362 15.6098 3.27833 15.0778 3.02441C14.5579 2.78259 14.038 2.85513 13.6148 3.22996C10.8459 5.66031 8.07698 8.09066 5.30807 10.5089ZM24.6178 22.7332C25.5851 22.7332 26.5525 22.7453 27.5198 22.7332C28.4145 22.7211 28.9949 22.1407 29.0191 21.2581C29.0312 20.6293 29.0312 20.0127 29.0191 19.3839C28.9949 18.5013 28.4145 17.9209 27.5198 17.9088C25.6093 17.8967 23.6989 17.8967 21.7764 17.9088C21.0146 17.9088 20.5552 18.2232 20.4705 18.9728C20.3738 19.8434 20.3617 20.7381 20.4584 21.6087C20.5431 22.4188 21.0026 22.7332 21.8369 22.7332C22.7679 22.7453 23.6868 22.7332 24.6178 22.7332ZM9.96321 10.5936C13.4818 10.5936 16.8794 10.5936 20.3134 10.5936C20.3134 9.72298 20.3134 8.90077 20.3134 8.07857C20.3134 6.51879 19.3098 5.90214 17.9072 6.60343C15.4164 7.83674 12.9377 9.08214 10.4469 10.3275C10.3139 10.388 10.1929 10.4726 9.96321 10.5936Z" fill="#E5E5E5"/>
<path d="M24.7146 4.87431C24.4365 4.86222 24.2188 4.86222 24.0133 4.83803C23.3361 4.76549 22.9855 4.11256 23.3724 3.55636C24.11 2.50442 24.8838 1.46457 25.6819 0.460991C26.1776 -0.155664 27.024 -0.155664 27.5197 0.473082C28.3057 1.46457 29.0553 2.49233 29.7929 3.52009C30.2282 4.13674 29.8775 4.78967 29.1279 4.85013C28.9465 4.86222 28.7772 4.85013 28.5959 4.85013C28.4628 5.41842 28.3661 5.95043 28.2089 6.45827C27.7736 7.87295 26.9152 8.98534 25.7423 9.8801C25.3433 10.1824 25.0289 10.2428 24.6178 9.89219C24.1584 9.50527 23.6505 9.16671 23.179 8.79188C22.5744 8.33241 22.5865 8.06641 23.2273 7.66739C24.2309 7.02656 24.7387 6.11971 24.7146 4.87431ZM25.1619 9.08207C26.5766 8.01804 27.3384 6.63964 27.5439 4.93476C27.6648 3.9191 27.6527 3.9191 28.6684 3.85864C28.6926 3.85864 28.7168 3.81028 28.7893 3.74982C28.088 2.8067 27.3746 1.85149 26.6008 0.82373C25.8028 1.89985 25.1015 2.84297 24.3518 3.84655C24.5695 3.85864 24.6662 3.87073 24.7629 3.87073C25.5368 3.89491 25.6214 3.96746 25.6819 4.72921C25.7665 5.84161 25.4521 6.8331 24.7025 7.67949C24.5211 7.88504 24.2672 8.00595 24.0012 8.19941C24.4727 8.56215 24.7992 8.80397 25.1619 9.08207Z" fill="#E5E5E5"/>
<path d="M23.2033 22.2496C22.1513 22.2375 21.2808 21.379 21.2808 20.315C21.2808 19.2388 22.1755 18.3562 23.2516 18.3804C24.3036 18.4046 25.15 19.2872 25.1379 20.3392C25.1379 21.4032 24.2673 22.2617 23.2033 22.2496ZM23.2154 21.2823C23.7353 21.2823 24.1827 20.847 24.1827 20.3271C24.1827 19.8071 23.7474 19.3598 23.2275 19.3598C22.7075 19.3598 22.2602 19.795 22.2602 20.315C22.2602 20.8349 22.6954 21.2823 23.2154 21.2823Z" fill="#E5E5E5"/>
</svg>
