<svg width="30" height="30" viewBox="0 0 30 30" fill="none" xmlns="http://www.w3.org/2000/svg">
<path d="M14.8903 30C12.5878 29.8993 10.4293 29.3812 8.35711 28.4027C8.04052 28.2588 7.60882 28.2156 7.27784 28.2876C5.75249 28.6185 4.25591 29.0359 2.74494 29.3956C1.24836 29.7554 0.183486 28.6761 0.52885 27.1795C0.888604 25.6829 1.29153 24.2151 1.6225 22.7186C1.70884 22.3588 1.68006 21.8983 1.52177 21.5674C-3.39967 11.2784 4.22713 -0.406452 15.6241 0.0108628C23.179 0.284276 29.3524 6.31376 29.8992 13.9549C30.4316 21.4091 25.1504 28.2876 17.8115 29.6402C16.8473 29.8129 15.8688 29.8849 14.8903 30ZM14.8903 28.8056C15.4802 28.7624 16.0846 28.7193 16.6746 28.6473C23.8122 27.7983 29.1221 21.4522 28.748 14.214C28.3882 7.04766 22.3731 1.26281 15.1637 1.16208C4.77395 1.03257 -2.06138 11.9547 2.64421 21.222C2.90323 21.7256 2.9464 22.1861 2.8025 22.7186C2.39957 24.2151 2.03982 25.7405 1.66567 27.2515C1.44982 28.1293 1.73763 28.4315 2.61543 28.2156C4.16957 27.8271 5.72371 27.4098 7.29223 27.0644C7.69516 26.9781 8.19882 27.0356 8.57296 27.2227C10.5876 28.2156 12.6742 28.7481 14.8903 28.8056Z" fill="#E5E5E5"/>
<path d="M23.0208 11.1778C23.0208 12.0125 23.0928 12.8615 22.992 13.6961C22.9201 14.2286 22.733 14.8617 22.3732 15.2215C19.7974 17.8693 17.1784 20.4739 14.5594 23.0641C13.7104 23.9132 12.7462 23.9132 11.8972 23.0641C10.2135 21.3949 8.5155 19.6968 6.83185 17.9844C6.026 17.1642 6.01161 16.2 6.81746 15.3798C9.43647 12.7464 12.0555 10.0986 14.7177 7.50835C15.0774 7.16298 15.6818 6.93274 16.1855 6.91835C17.9267 6.8464 19.6823 6.87518 21.4379 6.88957C22.474 6.90396 23.0208 7.45079 23.0352 8.50127C23.0352 9.40785 23.0208 10.2857 23.0208 11.1778ZM18.7613 8.05517C17.9411 8.05517 17.1352 8.02639 16.315 8.06956C16.0128 8.08395 15.6386 8.21347 15.4372 8.41493C12.8613 10.962 10.3143 13.5234 7.73843 16.0849C7.29233 16.5166 7.32111 16.8764 7.75282 17.2937C9.37891 18.891 10.9906 20.5027 12.5879 22.1288C13.0772 22.618 13.4369 22.5893 13.9118 22.1144C16.4301 19.5817 18.9628 17.0634 21.4667 14.5164C21.6825 14.2861 21.8408 13.8976 21.8552 13.581C21.8984 11.9693 21.8552 10.372 21.884 8.76029C21.8984 8.1703 21.6825 8.012 21.1357 8.04078C20.3442 8.08396 19.5528 8.05517 18.7613 8.05517Z" fill="#E5E5E5"/>
<path d="M19.6678 11.235C19.38 11.4221 19.0922 11.7531 18.8188 11.7243C18.5742 11.7099 18.1425 11.2494 18.1856 11.0767C18.2432 10.8033 18.6029 10.4436 18.8907 10.4004C19.1066 10.3572 19.4088 10.7314 19.6678 10.9185C19.6678 11.0336 19.6678 11.1343 19.6678 11.235Z" fill="#E5E5E5"/>
</svg>
