<svg width="24" height="30" viewBox="0 0 24 30" fill="none" xmlns="http://www.w3.org/2000/svg">
<path d="M19.5949 30C14.4386 30 9.28235 30 4.1261 30C4.09095 29.9766 4.06751 29.9414 4.03235 29.9414C1.09095 29.0977 -0.198116 27.3398 0.0245399 24.293C0.422977 18.9375 0.86829 13.5938 1.29016 8.23828C1.41907 6.64453 2.16907 5.92969 3.77454 5.91797C4.51282 5.91797 5.2511 5.91797 6.02454 5.91797C6.04798 5.68359 6.07141 5.51953 6.09485 5.34375C6.32923 3.04687 7.52454 1.41797 9.61048 0.46875C10.0675 0.257812 10.5597 0.152344 11.0402 0C11.5909 0 12.13 0 12.6808 0C12.8683 0.0585938 13.0441 0.117188 13.2316 0.164062C15.5753 0.820312 17.005 2.34375 17.5558 4.69922C17.6378 5.07422 17.6495 5.46094 17.7081 5.91797C18.5284 5.91797 19.3253 5.90625 20.1222 5.91797C21.5284 5.94141 22.3136 6.71484 22.4191 8.10938C22.63 10.8281 22.8644 13.5586 23.0753 16.2773C23.298 19.1016 23.5441 21.9258 23.7199 24.75C23.8722 27.0352 22.5597 28.9805 20.4738 29.7188C20.1925 29.8242 19.8995 29.9062 19.5949 30ZM6.0597 7.67578C5.21595 7.67578 4.45423 7.6875 3.69251 7.67578C3.2472 7.66406 3.08313 7.83984 3.04798 8.28516C2.6261 13.7578 2.18079 19.2188 1.75891 24.6914C1.59485 26.8242 2.94251 28.2422 5.08704 28.2422C9.59876 28.2422 14.1105 28.2422 18.6222 28.2422C20.8019 28.2422 22.1261 26.8242 21.962 24.6562C21.7277 21.4805 21.4699 18.3164 21.2238 15.1406C21.0363 12.8438 20.8605 10.5469 20.6613 8.25C20.6495 8.0625 20.462 7.73438 20.3449 7.72266C19.4659 7.67578 18.5753 7.69922 17.6613 7.69922C17.6613 8.46094 17.673 9.11719 17.6613 9.78516C17.6495 10.3008 17.3917 10.6406 16.8644 10.6992C16.3253 10.7578 15.9386 10.3828 15.9152 9.75C15.8917 9.07031 15.9152 8.40234 15.9152 7.71094C13.1847 7.71094 10.5363 7.71094 7.82923 7.71094C7.82923 8.39062 7.84095 9.03516 7.82923 9.66797C7.81751 10.3242 7.48938 10.6875 6.96204 10.6992C6.42298 10.6992 6.09485 10.3359 6.08313 9.67969C6.04798 9.04688 6.0597 8.40234 6.0597 7.67578ZM7.86438 5.85938C10.5597 5.85938 13.2199 5.85938 15.88 5.85938C15.8917 3.55078 14.087 1.74609 11.837 1.75781C9.59876 1.78125 7.80579 3.60938 7.86438 5.85938Z" fill="#E5E5E5"/>
<path d="M10.6066 18.8673C11.8254 17.6602 12.9386 16.5352 14.0519 15.422C14.2277 15.2462 14.4035 15.0587 14.591 14.8946C14.9894 14.5548 15.4699 14.5665 15.8097 14.9063C16.1496 15.2345 16.1964 15.7501 15.8332 16.1134C14.3097 17.6602 12.7863 19.1954 11.2394 20.7071C10.8644 21.0821 10.4074 21.0235 10.0324 20.672C9.31754 19.9805 8.61441 19.2774 7.92301 18.5626C7.54801 18.1641 7.57145 17.6485 7.93473 17.3087C8.27457 16.9923 8.77848 16.9805 9.15348 17.3321C9.63395 17.8009 10.091 18.3165 10.6066 18.8673Z" fill="#E5E5E5"/>
</svg>
