<svg width="32" height="26" viewBox="0 0 32 26" fill="none" xmlns="http://www.w3.org/2000/svg">
<path d="M24.1807 20.8055C25.6293 21.5104 26.3474 22.6429 26.0626 23.9025C25.7903 25.1389 24.6512 25.9941 23.3264 25.9941C22.014 25.9941 20.9121 25.1505 20.6149 23.9487C20.3054 22.666 21.0111 21.5335 22.6083 20.8517C19.9463 20.8517 17.3958 20.8517 15.0186 20.8517C15.452 21.2562 16.0215 21.6838 16.4301 22.2153C16.8634 22.7815 16.851 23.4865 16.6406 24.1682C16.2691 25.3238 15.1053 26.0749 13.8177 25.9941C12.5548 25.9247 11.4776 25.058 11.2548 23.914C10.9948 22.6082 11.651 21.5451 13.1367 20.8055C12.6662 20.8055 12.1833 20.8055 11.7129 20.8055C9.21186 20.794 7.96136 18.8988 9.03853 16.7957C9.16234 16.553 9.19948 16.1948 9.12519 15.9405C7.75088 11.3876 6.35181 6.83459 4.9775 2.28162C4.84131 1.83095 4.63083 1.71539 4.16034 1.72694C3.14509 1.76161 2.14221 1.7385 1.12695 1.7385C0.408845 1.7385 -0.0121155 1.39183 0.000265709 0.860263C0.0126469 0.351809 0.421226 0.0166917 1.10219 0.0051359C2.50126 -0.00641987 3.91272 0.0051359 5.31179 0.0051359C5.94323 0.0051359 6.30229 0.270919 6.46324 0.848707C6.64896 1.51894 6.90896 2.17762 7.05754 2.84785C7.16897 3.36786 7.44135 3.48342 7.98613 3.48342C15.3034 3.46031 22.6331 3.48342 29.9503 3.46031C31.3742 3.46031 31.9809 3.69143 31.4485 5.32079C30.2599 8.98397 29.1827 12.6818 28.056 16.3565C27.796 17.2001 27.5979 17.3388 26.6569 17.3388C21.6426 17.3388 16.6282 17.3388 11.6138 17.3388C10.809 17.3388 10.4995 17.593 10.4995 18.217C10.5119 18.7601 10.9081 19.0721 11.651 19.0721C16.1453 19.0721 20.6397 19.0721 25.1464 19.0721C25.7407 19.0721 26.3474 19.0606 26.9417 19.0721C27.5732 19.0953 27.9693 19.4419 27.9693 19.9273C27.9693 20.4242 27.5732 20.7824 26.9541 20.794C26.0255 20.8286 25.1093 20.8055 24.1807 20.8055ZM7.83755 5.25145C7.86231 5.37857 7.8747 5.47101 7.89946 5.5519C8.87757 8.76441 9.88045 11.9769 10.8338 15.201C10.9452 15.5823 11.1805 15.6054 11.5024 15.6054C16.2691 15.6054 21.0235 15.5939 25.7903 15.617C26.236 15.617 26.3846 15.4668 26.496 15.097C27.4246 12.0116 28.3779 8.92619 29.3189 5.8408C29.3684 5.66746 29.4179 5.48257 29.4675 5.25145C22.2369 5.25145 15.0558 5.25145 7.83755 5.25145ZM23.314 22.5504C22.8188 22.562 22.4226 22.9433 22.4226 23.4056C22.4226 23.8793 22.8559 24.2722 23.3759 24.2607C23.8712 24.2491 24.2674 23.8678 24.2674 23.4056C24.2674 22.9318 23.8217 22.5389 23.314 22.5504ZM14.0034 24.2607C14.5234 24.2491 14.932 23.8562 14.9072 23.3709C14.8824 22.9087 14.4739 22.5504 13.9786 22.5504C13.4586 22.5504 13.05 22.9549 13.0748 23.4402C13.0996 23.914 13.5081 24.2722 14.0034 24.2607Z" fill="#E5E5E5"/>
</svg>
