<svg width="29" height="26" viewBox="0 0 29 26" fill="none" xmlns="http://www.w3.org/2000/svg">
<path d="M27.4066 11.315C27.0992 11.315 26.8391 11.315 26.4962 11.315C26.4962 8.11084 26.4962 4.94217 26.4962 1.6198C25.5149 2.58932 24.6399 3.46425 23.7768 4.33918C23.6822 4.43377 23.6586 4.62294 23.6586 4.77665C23.6468 6.46739 23.6704 8.16996 23.6468 9.8607C23.6349 10.2509 23.8478 10.3573 24.1197 10.511C27.0282 12.1426 28.7308 15.3586 28.3525 18.5627C27.9505 22.0151 25.6213 24.8291 22.3225 25.6922C21.3648 25.9405 20.3362 25.9523 19.3431 25.9996C19.1302 26.0114 18.7637 25.7513 18.7282 25.574C18.6573 25.172 19.0002 25.101 19.3549 25.0774C22.5117 24.8646 24.7582 22.3817 24.5926 19.3076C24.5335 18.3381 24.1906 17.3567 23.6586 16.7537C23.6586 18.4208 23.6586 20.0288 23.6586 21.6368C23.6586 22.7127 23.6586 22.7127 22.5708 22.7127C15.3822 22.7127 8.1936 22.7127 0.993164 22.7127C0.0354702 22.7127 0.0118234 22.6891 0.0118234 21.7077C0.0118234 16.0325 0.0118234 10.3573 0 4.68206C0 4.25642 0.118234 3.94901 0.425642 3.6416C1.52522 2.56567 2.58932 1.45428 3.70072 0.401995C3.92536 0.189174 4.30371 0.0236468 4.62294 0.0236468C11.9534 1.76182e-09 19.2839 0.0118234 26.6144 0C27.111 0 27.4539 0.0827637 27.4539 0.697579C27.4421 4.16183 27.4421 7.6379 27.4421 11.1022C27.4539 11.1494 27.4302 11.1967 27.4066 11.315ZM22.7245 21.7314C22.7245 19.6859 22.7245 17.6996 22.7127 15.7133C22.7127 15.595 22.6418 15.4413 22.5472 15.3704C21.6486 14.6492 20.6318 14.2472 19.414 14.1999C19.414 14.9093 19.4376 15.5714 19.4022 16.2453C19.3903 16.4936 19.2958 16.8128 19.1184 16.9429C19.0002 17.0257 18.6336 16.9074 18.4563 16.7774C16.399 15.3231 14.3418 13.857 12.2963 12.3909C11.6933 11.9653 11.6933 11.7051 12.2845 11.2795C14.3299 9.81341 16.3872 8.34731 18.4445 6.89303C18.6336 6.76297 18.9883 6.63292 19.1066 6.71568C19.2839 6.83391 19.3903 7.16497 19.4022 7.40144C19.4376 8.07537 19.414 8.76112 19.414 9.37594C20.5727 9.51782 21.6368 9.64788 22.6772 9.77794C22.6772 8.11084 22.6772 6.45557 22.6772 4.77665C19.6859 4.77665 16.7419 4.77665 13.7388 4.77665C13.7388 5.82893 13.7269 6.84574 13.7388 7.86255C13.7388 8.30001 13.5732 8.52466 13.1121 8.52466C12.2608 8.51283 11.4214 8.51283 10.5701 8.52466C10.109 8.52466 9.93164 8.30001 9.94346 7.86255C9.95529 7.3305 9.94346 6.79844 9.94346 6.26639C9.94346 5.76981 9.94346 5.2614 9.94346 4.77665C6.89303 4.77665 3.94901 4.77665 1.00499 4.77665C1.00499 10.4519 1.00499 16.0916 1.00499 21.7432C8.25272 21.7314 15.4413 21.7314 22.7245 21.7314ZM18.4681 8.00443C16.6355 9.31682 14.9211 10.5465 13.1358 11.8116C14.9329 13.1003 16.6591 14.3299 18.3735 15.5596C18.4327 15.4768 18.4445 15.465 18.4445 15.4413C18.4563 14.9684 18.4563 14.4955 18.4563 14.0225C18.4681 13.3249 18.5627 13.2067 19.2366 13.2304C21.7314 13.3131 23.6349 14.4482 24.7936 16.6355C25.9641 18.8583 25.7868 21.0811 24.4389 23.1975C24.3325 23.363 24.2143 23.5285 24.1079 23.7059C24.3325 23.6822 24.4744 23.5995 24.6045 23.4931C26.8982 21.5895 27.8677 19.1539 27.2647 16.2335C26.6617 13.3249 24.8173 11.4214 21.9442 10.641C21.0693 10.4046 20.1116 10.4282 19.1893 10.3928C18.6691 10.3691 18.4208 10.2036 18.4445 9.6597C18.4799 9.17494 18.4681 8.65471 18.4681 8.00443ZM13.0885 0.94587C10.8539 0.94587 8.79659 1.0641 6.76297 0.9104C5.1077 0.780343 3.8426 1.20598 2.86126 2.54203C2.54203 2.96767 2.11639 3.29872 1.64345 3.77166C4.52835 3.77166 7.23591 3.77166 9.95529 3.75983C10.0972 3.75983 10.2745 3.71254 10.3809 3.61795C11.244 2.77849 12.0953 1.91539 13.0885 0.94587ZM25.8459 0.94587C23.9187 0.94587 22.1688 0.94587 20.419 0.94587C19.3549 0.94587 18.1844 0.685756 17.274 1.05228C16.3872 1.41881 15.7606 2.43562 15.0157 3.16867C14.8502 3.33419 14.6846 3.51154 14.4245 3.77166C17.2858 3.77166 20.0052 3.77166 22.7127 3.75983C22.8546 3.75983 23.0438 3.71254 23.1384 3.61795C24.0133 2.77849 24.8646 1.91539 25.8459 0.94587ZM10.9012 7.51967C11.5633 7.51967 12.1544 7.51967 12.7929 7.51967C12.7929 6.51468 12.7574 5.55699 12.8165 4.59929C12.8284 4.28006 12.9821 3.91354 13.1949 3.68889C13.9398 2.8849 14.7438 2.11638 15.5123 1.33604C15.6069 1.24145 15.6896 1.12322 15.7724 1.00499C15.7487 0.94587 15.7133 0.87493 15.6896 0.815813C15.1694 0.957694 14.5073 0.934047 14.1408 1.25328C13.0885 2.16368 12.1308 3.19231 11.1613 4.1973C11.0312 4.33918 10.913 4.56382 10.913 4.753C10.8893 5.65158 10.9012 6.55015 10.9012 7.51967Z" fill="#E5E5E5"/>
<path d="M1.92676 18.8709C1.92676 18.5635 1.92676 18.3152 1.92676 18.0078C3.79485 18.0078 5.6393 18.0078 7.54286 18.0078C7.54286 18.2679 7.54286 18.5517 7.54286 18.8709C5.68659 18.8709 3.84215 18.8709 1.92676 18.8709Z" fill="#E5E5E5"/>
<path d="M7.57802 19.8872C7.57802 20.2064 7.57802 20.4547 7.57802 20.7503C5.70993 20.7503 3.85365 20.7503 1.96191 20.7503C1.96191 20.4784 1.96191 20.1946 1.96191 19.8872C3.81818 19.8872 5.67446 19.8872 7.57802 19.8872Z" fill="#E5E5E5"/>
</svg>
