<svg width="22" height="20" viewBox="0 0 22 20" fill="none" xmlns="http://www.w3.org/2000/svg">
<path d="M21.082 8.70383C20.8455 8.70383 20.6454 8.70383 20.3817 8.70383C20.3817 6.23911 20.3817 3.80167 20.3817 1.246C19.6268 1.99178 18.9538 2.66481 18.2899 3.33783C18.2171 3.41059 18.1989 3.55611 18.1989 3.67434C18.1898 4.97491 18.208 6.28458 18.1898 7.58515C18.1807 7.88528 18.3444 7.96714 18.5536 8.08537C20.791 9.34047 22.1006 11.8143 21.8096 14.279C21.5004 16.9347 19.7087 19.0993 17.1712 19.7632C16.4345 19.9542 15.6432 19.9633 14.8793 19.9997C14.7156 20.0088 14.4336 19.8087 14.4063 19.6723C14.3518 19.3631 14.6155 19.3085 14.8884 19.2903C17.3167 19.1266 19.0447 17.2167 18.9174 14.852C18.8719 14.1062 18.6082 13.3513 18.1989 12.8875C18.1989 14.1699 18.1989 15.4068 18.1989 16.6437C18.1989 17.4713 18.1989 17.4713 17.3622 17.4713C11.8325 17.4713 6.30277 17.4713 0.763972 17.4713C0.0272847 17.4713 0.00909491 17.4531 0.00909491 16.6982C0.00909491 12.3327 0.00909491 7.96714 0 3.60158C0 3.27417 0.0909491 3.0377 0.327417 2.80123C1.17324 1.97359 1.99179 1.11867 2.84671 0.309227C3.01951 0.145519 3.31055 0.0181898 3.55611 0.0181898C9.19495 1.35525e-09 14.8338 0.00909491 20.4726 0C20.8546 0 21.1184 0.0636644 21.1184 0.5366C21.1093 3.20141 21.1093 5.87531 21.1093 8.54012C21.1184 8.5765 21.1002 8.61288 21.082 8.70383ZM17.4804 16.7164C17.4804 15.143 17.4804 13.6151 17.4713 12.0871C17.4713 11.9962 17.4168 11.8779 17.344 11.8234C16.6528 11.2686 15.8706 10.9594 14.9338 10.923C14.9338 11.4687 14.952 11.978 14.9247 12.4964C14.9157 12.6874 14.8429 12.933 14.7065 13.033C14.6155 13.0967 14.3336 13.0057 14.1972 12.9057C12.6146 11.787 11.0321 10.6592 9.45871 9.53146C8.99487 9.20405 8.99487 9.00396 9.44961 8.67654C11.023 7.54877 12.6055 6.421 14.1881 5.30233C14.3336 5.20229 14.6064 5.10224 14.6974 5.16591C14.8338 5.25686 14.9157 5.51151 14.9247 5.69341C14.952 6.21182 14.9338 6.73933 14.9338 7.21226C15.8251 7.3214 16.6437 7.42144 17.444 7.52149C17.444 6.23911 17.444 4.96582 17.444 3.67434C15.143 3.67434 12.8784 3.67434 10.5683 3.67434C10.5683 4.48379 10.5592 5.26595 10.5683 6.04811C10.5683 6.38462 10.441 6.55743 10.0863 6.55743C9.43142 6.54833 8.78568 6.54833 8.13085 6.55743C7.77615 6.55743 7.63972 6.38462 7.64882 6.04811C7.65791 5.63884 7.64882 5.22957 7.64882 4.8203C7.64882 4.43831 7.64882 4.04723 7.64882 3.67434C5.30233 3.67434 3.0377 3.67434 0.773067 3.67434C0.773067 8.0399 0.773067 12.3782 0.773067 16.7255C6.34825 16.7164 11.878 16.7164 17.4804 16.7164ZM14.2063 6.15725C12.7965 7.16679 11.4778 8.11266 10.1044 9.08581C11.4869 10.0772 12.8147 11.023 14.1335 11.9689C14.179 11.9052 14.1881 11.8961 14.1881 11.8779C14.1972 11.5142 14.1972 11.1504 14.1972 10.7866C14.2062 10.25 14.279 10.159 14.7974 10.1772C16.7164 10.2409 18.1807 11.114 19.072 12.7965C19.9724 14.5064 19.836 16.2162 18.7992 17.8442C18.7173 17.9715 18.6264 18.0989 18.5445 18.2353C18.7173 18.2171 18.8265 18.1534 18.9265 18.0716C20.6909 16.6073 21.4367 14.7337 20.9729 12.4873C20.509 10.25 19.0902 8.78568 16.8802 8.18542C16.2071 8.00352 15.4704 8.02171 14.761 7.99442C14.3609 7.97623 14.1699 7.84891 14.1881 7.43054C14.2153 7.05765 14.2063 6.65747 14.2063 6.15725ZM10.0681 0.727593C8.34913 0.727593 6.76661 0.818542 5.20229 0.700308C3.929 0.600264 2.95585 0.927681 2.20097 1.95541C1.95541 2.28282 1.62799 2.53748 1.26419 2.90128C3.48335 2.90128 5.56608 2.90128 7.65791 2.89218C7.76705 2.89218 7.90348 2.8558 7.98533 2.78304C8.64926 2.1373 9.30409 1.47337 10.0681 0.727593ZM19.8815 0.727593C18.399 0.727593 17.053 0.727593 15.7069 0.727593C14.8884 0.727593 13.988 0.527505 13.2877 0.809447C12.6055 1.09139 12.1235 1.87355 11.5505 2.43744C11.4232 2.56476 11.2959 2.70119 11.0958 2.90128C13.2968 2.90128 15.3886 2.90128 17.4713 2.89218C17.5805 2.89218 17.726 2.8558 17.7987 2.78304C18.4718 2.1373 19.1266 1.47337 19.8815 0.727593ZM8.38551 5.78436C8.89482 5.78436 9.34957 5.78436 9.84069 5.78436C9.84069 5.01129 9.81341 4.27461 9.85888 3.53792C9.86798 3.29236 9.98621 3.01041 10.1499 2.83761C10.7229 2.21916 11.3414 1.62799 11.9325 1.02772C12.0053 0.954965 12.0689 0.864016 12.1326 0.773067C12.1144 0.727593 12.0871 0.673023 12.0689 0.627549C11.6688 0.736687 11.1595 0.718498 10.8775 0.96406C10.0681 1.66437 9.33138 2.45563 8.5856 3.22869C8.48555 3.33783 8.3946 3.51063 8.3946 3.65615C8.37641 4.34737 8.38551 5.03858 8.38551 5.78436Z" fill="white"/>
<path d="M1.48145 14.5165C1.48145 14.28 1.48145 14.089 1.48145 13.8525C2.91844 13.8525 4.33725 13.8525 5.80153 13.8525C5.80153 14.0526 5.80153 14.2709 5.80153 14.5165C4.37363 14.5165 2.95482 14.5165 1.48145 14.5165Z" fill="white"/>
<path d="M5.82887 15.2979C5.82887 15.5434 5.82887 15.7344 5.82887 15.9618C4.39188 15.9618 2.96397 15.9618 1.50879 15.9618C1.50879 15.7526 1.50879 15.5343 1.50879 15.2979C2.93669 15.2979 4.36459 15.2979 5.82887 15.2979Z" fill="white"/>
</svg>
